<svg width="90" height="48" viewBox="0 0 90 48" fill="none" xmlns="http://www.w3.org/2000/svg">
<path d="M54.4393 28.745C53.4393 28.895 51.7893 29.195 51.1393 28.145C49.2893 25.145 48.8893 23.595 51.0393 23.345C53.8893 23.045 59.5393 22.595 65.5393 22.195C66.4393 21.845 66.7893 21.395 66.9893 20.645C67.0893 20.195 67.2393 19.645 67.3893 18.795C65.7393 18.545 64.0393 18.045 62.7893 17.145C61.9893 18.145 59.9893 19.095 58.4893 19.145C57.2393 19.195 56.6393 18.845 56.7393 17.295C57.1393 13.195 57.7893 5.49495 58.1393 3.19495C58.2893 2.14495 60.0893 2.39495 62.6393 2.54495C63.8893 2.59495 64.4893 2.54495 64.3893 3.64495C64.2893 4.64495 64.1893 5.09495 64.0893 5.89495C66.3393 6.04495 76.0393 5.69495 77.6393 5.24495C77.7893 4.29495 77.8393 3.94495 77.8893 3.34495C77.9393 2.74495 78.1893 2.64495 78.8393 2.64495H83.1393C83.8893 2.64495 84.3393 2.64495 84.4393 3.39495C84.4393 5.84495 84.1393 9.19495 83.7393 11.245C83.3393 13.245 82.8393 15.395 79.8393 17.245C78.3893 18.145 75.8393 18.745 73.1393 18.945L72.7893 20.745C72.6393 21.395 72.6893 21.595 73.2893 21.695C78.8893 21.395 83.8893 21.245 86.0393 21.345C88.0393 21.445 89.9893 21.495 89.9893 22.995C90.0893 24.445 89.0893 24.695 88.4893 24.795C85.6893 25.095 64.9393 27.245 54.4393 28.745ZM58.6393 34.745C58.0893 33.795 58.1393 33.095 59.2393 32.695C63.9393 30.995 69.6393 30.345 74.2393 30.345C76.2893 30.345 77.5393 30.695 79.2893 32.845C80.6893 34.545 81.0893 35.995 80.4893 37.595C79.6393 39.895 78.1393 42.995 75.6393 46.595C75.0393 47.445 74.4393 47.595 73.6893 47.145C72.5393 46.545 72.1893 45.895 72.4393 44.845C73.2893 41.295 73.8393 38.595 74.2393 35.795C70.5393 36.045 66.3893 36.695 63.2393 37.445C62.0393 37.745 61.0893 38.245 60.3393 37.245C59.6393 36.345 59.1393 35.545 58.6393 34.745ZM63.5393 12.395C63.5893 12.645 63.6393 12.895 63.8893 13.095C64.5893 13.645 66.8393 14.045 69.3893 14.045C72.6893 14.045 76.1393 13.695 76.6893 12.345C77.0393 11.445 77.1893 10.745 77.1893 9.99495C75.1393 10.345 65.6393 10.545 64.3893 10.545C63.8893 10.545 63.7393 10.595 63.6393 10.845C63.5893 11.395 63.5393 11.945 63.5393 12.395Z" fill="#F5F7FB"/>
<path d="M41.7658 32.9949C40.0158 34.2949 38.1658 33.7949 37.3658 31.7449C37.0158 30.7449 36.9158 29.4949 36.9658 28.3449C36.9658 27.3949 37.5158 23.4449 38.2158 19.0949C36.5158 19.3449 34.5658 19.5449 32.4158 19.7449L30.6158 29.3949C29.3658 30.0949 27.4658 29.8449 26.2658 28.4449C25.7158 27.7449 25.1658 26.6949 25.2158 25.7949C25.9658 17.3449 27.1158 9.79488 28.6658 3.94488C30.8158 3.34488 33.3158 4.39488 34.4158 5.69488C34.7158 6.14488 34.9158 6.94488 34.8158 7.49488C34.6158 8.34488 34.1158 10.8949 33.5158 14.0449C35.8658 13.6449 37.8658 13.3949 39.2158 13.1449C39.7158 10.2449 40.1658 7.64488 40.4658 6.09488C40.6658 5.29488 40.6658 4.54488 40.7158 3.69488C42.1158 2.79488 43.1658 2.99488 44.4158 3.69488C45.7158 4.44488 46.1658 5.54488 46.3158 6.89488C46.8158 12.2949 43.7158 26.5949 41.9658 31.7449C41.8658 32.1449 41.8658 32.6449 41.7658 32.9949ZM0.215835 12.9949C-0.184165 12.3449 -0.0341647 11.9949 0.715835 11.6949C2.86584 10.8949 5.66584 10.0449 9.06584 9.24488C9.51584 8.89488 9.71584 8.39488 9.81584 7.69488C10.3158 5.09488 10.8158 2.54488 11.7158 0.69488C12.2658 -0.40512 13.3658 -0.00511926 15.2658 0.74488C17.3158 1.54488 18.2658 2.14488 17.4658 3.59488C16.6658 5.04488 16.2158 6.39488 15.3158 7.94488L17.3658 7.64488C18.7658 7.44488 18.9158 7.34488 20.0158 7.44488C21.8158 7.59488 22.3658 7.89488 23.7158 9.54488C24.4158 10.4449 24.2158 11.2449 23.1658 11.6449C20.8658 12.5449 16.9658 16.1949 14.2158 19.8449C17.7658 20.0949 20.4658 22.3949 20.2158 25.8449C20.0158 28.3949 18.6658 30.6949 15.6158 32.1449C12.1158 33.7949 7.61584 33.3949 6.31584 30.7949C5.36584 28.8949 5.26584 26.3949 6.01584 24.1949C7.06584 21.0449 9.61584 16.5949 12.2658 14.2949C9.31584 15.0449 5.11584 16.1949 3.71584 16.6449C3.31584 16.7449 2.66584 17.0449 2.31584 16.5449C1.71584 15.7449 0.865835 14.1449 0.215835 12.9949ZM10.2658 28.2449C10.2658 29.4949 10.8658 29.6949 11.6158 29.5949C13.0658 29.4449 14.9158 27.8449 14.9158 26.3449C14.9158 24.5949 13.0658 23.6449 12.2658 23.7449C11.5158 23.8449 10.2658 26.5949 10.2658 28.2449ZM22.1658 36.4949C23.5658 34.5949 24.2158 33.8949 26.1658 32.6949C29.0658 30.8949 34.1658 31.2449 36.9158 35.1449C38.6658 37.6449 39.2158 41.1949 36.7158 43.8449C33.9158 46.7449 30.6658 47.0949 26.6658 46.5449C21.1158 45.7949 19.0658 40.6949 22.1658 36.4949ZM25.8158 40.6449C25.5658 41.5949 25.7658 42.3449 26.4158 42.7449C27.8158 43.5449 31.6658 42.2949 32.0658 39.6449C32.2658 38.5949 31.9158 37.3449 30.8158 36.9949C29.6158 36.6449 28.5158 36.8949 27.5658 37.7949C26.7158 38.5949 26.0658 39.5949 25.8158 40.6449Z" fill="#F5F7FB"/>
</svg>
