<svg width="91" height="50" viewBox="0 0 91 50" fill="none" xmlns="http://www.w3.org/2000/svg">
<path d="M49.98 23.6449C49.53 23.2949 49.08 22.6949 48.73 22.1449C47.78 20.6449 47.58 19.3449 49.83 18.7449C56.03 17.0949 58.78 16.4949 60.93 15.7949C62.08 15.3949 62.58 14.6949 62.88 13.6949C63.28 12.1949 63.43 11.3949 63.78 9.89492C61.08 10.1949 57.68 11.0949 54.63 12.1449C52.78 12.7949 51.58 10.2949 50.68 9.09492C50.33 8.64492 50.28 8.24492 50.73 7.94492C51.93 7.14492 53.18 6.64492 54.83 6.04492C57.38 5.14492 60.53 4.79492 63.23 4.69492C65.48 4.59492 66.88 5.14492 68.88 6.94492C69.93 7.89492 70.38 9.09492 69.68 10.6949C68.98 12.2949 68.48 13.7449 67.53 15.6949C68.68 16.3449 69.98 18.5449 68.73 19.1449C67.18 19.9449 62.33 20.8449 59.08 21.8449C57.53 22.3449 56.93 22.8449 56.63 23.5949C56.33 24.3449 56.58 25.7949 56.93 27.9449C61.28 27.4949 69.08 25.5949 72.88 24.2949C74.33 23.7949 75.08 25.4949 73.73 26.3949C69.68 29.0949 65.53 31.6449 59.38 33.2949C56.28 34.1449 52.63 34.1949 51.08 30.5449C50.13 28.3449 50.03 25.0449 49.98 23.6449ZM66.13 34.8449C65.73 33.8949 66.88 33.4449 68.03 33.0449C70.28 32.2949 75.98 30.7949 78.13 30.1949C79.13 29.9449 80.08 29.6449 81.03 29.4949C80.98 29.3949 80.93 29.2449 80.93 29.0949C80.78 27.2949 81.13 24.5949 81.63 22.2949C81.68 22.1449 81.68 21.9949 81.73 21.8449C81.23 22.0949 80.68 22.3449 80.08 22.5449C77.18 23.5449 75.78 23.6449 73.38 23.8449C72.38 23.9949 71.68 23.6949 71.38 21.4949C71.08 19.1449 71.48 18.4949 72.28 18.4449C75.58 18.1949 80.18 17.8949 82.83 16.6949C83.08 15.3949 83.28 14.1449 83.53 12.6449C80.08 12.7449 77.18 13.3449 74.98 13.9449C72.53 14.5949 72.58 13.8949 71.93 12.2449C71.13 10.3949 71.23 9.49492 71.98 9.24492C76.53 7.79492 81.03 7.14492 83.88 9.79492C83.98 8.29492 83.88 5.64492 83.83 5.09492C83.63 3.94492 84.13 4.04492 84.68 4.04492C86.23 4.09492 88.33 4.44492 89.53 5.09492C90.68 5.69492 90.63 6.29492 90.53 8.29492C90.38 13.6949 88.33 23.4449 86.08 29.8949C85.98 30.2449 85.83 30.4949 85.73 30.6449L86.03 31.0449C86.68 31.9949 86.88 33.1949 86.68 34.2449C86.08 37.4449 84.28 42.8949 82.98 46.3949C82.63 47.2449 82.13 47.6949 80.88 47.6449C79.83 47.5949 78.33 47.0449 78.43 46.2949C78.88 44.0449 79.38 41.9949 79.68 40.5949C80.08 38.6949 80.38 37.7949 80.83 35.4949C80.33 35.6949 73.88 37.3949 71.83 38.0449C71.03 38.2949 69.28 38.8949 68.13 37.6949C67.28 36.7449 66.68 36.0449 66.13 34.8449Z" fill="#F5F7FB"/>
<path d="M18.3458 14.7949C18.5958 13.3949 17.4958 11.7949 15.9458 11.8949C14.9958 11.9449 14.0958 13.5449 13.6958 14.6449C13.0458 16.2449 13.3958 17.1449 14.3958 17.1949C15.5458 17.2949 18.0458 16.1949 18.3458 14.7949ZM0.29577 26.2949C0.14577 25.7449 0.395773 25.1949 1.09577 25.1449C3.49577 24.7449 7.89577 24.2449 11.5958 23.8449C12.5458 23.5449 12.9958 23.2949 13.1458 22.5449C13.2958 21.6949 13.4458 21.0949 13.5458 20.4949C11.5958 20.0949 9.84578 19.1949 8.89578 17.8449C7.69578 16.0949 7.69578 13.6449 8.99578 11.9449C7.29578 12.1449 5.69578 12.2949 4.24578 12.4949C3.64578 12.5449 3.24577 12.4949 2.79577 11.9449C2.24577 11.2449 1.64577 10.0449 1.29577 8.99489C1.04577 8.29489 1.14578 7.84489 1.99578 7.74489C3.94578 7.44489 7.84578 7.09489 11.7458 6.69489C12.1458 6.44489 12.3458 6.09489 12.5458 5.44489C13.1458 3.59489 13.5958 2.39489 14.2958 0.694885C14.7458 -0.305114 15.7458 -0.155113 17.5958 0.694885C19.5458 1.59489 20.4458 2.34488 19.6458 3.59489C19.0458 4.49489 18.8958 4.69489 18.0458 6.04489C19.3458 5.94489 20.5458 5.79489 21.4458 5.69489C23.1958 5.49489 24.5458 5.19489 25.5958 5.79489C26.5958 6.39489 27.7458 7.29489 28.6458 8.34489C29.4458 9.24489 29.0958 9.74489 27.9958 9.84489C26.1958 9.99489 24.0458 10.2449 21.6958 10.4949C23.2458 11.5949 24.2958 13.3449 24.0458 15.1949C23.6958 17.6949 21.8458 19.5949 19.4458 20.3949C19.2958 20.9449 19.1458 21.4949 19.0958 21.8449C18.9458 22.4949 19.1958 22.7949 19.6458 22.8449C23.2958 22.3949 26.8958 21.8949 30.5958 21.3949C31.3458 16.2449 31.3458 14.3449 31.9958 8.24489C32.2958 4.89489 31.3958 3.74489 32.8958 3.74489C36.0458 3.64489 38.2458 4.34489 38.7958 6.29489C39.2958 8.14489 39.1458 9.44489 38.4958 13.7449C38.6958 14.1949 39.1458 14.1949 39.9458 14.0949C41.8958 13.7949 42.5958 13.6449 44.6958 13.2449C46.3958 12.9449 45.7958 16.7949 44.4458 17.3949L38.8458 19.7449C37.7958 20.1949 37.2958 20.4449 36.7958 21.6949C36.0958 24.1949 35.3458 26.4449 34.6458 28.4449C34.6458 28.5449 34.5958 28.5949 34.4958 28.6449C35.1458 28.8949 35.7458 29.1949 36.2458 29.5949C37.7958 30.8449 36.2458 31.9949 35.3958 32.6949C33.1458 34.4949 31.0958 36.0449 28.3458 37.5449C31.1958 37.3449 32.7458 37.2449 35.1958 37.2949C36.7458 37.3949 37.7958 38.9449 35.5458 40.3449C33.0958 41.7949 29.2458 43.9949 27.2458 45.5949C26.1458 46.4949 26.5458 46.9949 28.1958 46.9449C30.6458 46.8949 34.4458 46.2449 37.3458 45.3949C38.3458 45.0949 37.9458 46.3949 36.5958 47.0949C34.7458 48.0449 32.8458 48.6949 29.2958 49.3449C26.6458 49.8449 22.6958 49.9449 21.3958 48.3949C20.3458 47.0449 20.5958 45.5949 22.2458 44.1449C23.1958 43.2949 23.8458 42.6449 25.1458 41.5949C22.2958 42.0949 21.5958 42.1949 20.3958 42.3949C18.3958 42.8449 17.9958 42.0449 17.6458 40.8449C17.1958 39.2949 16.5958 38.5449 18.8958 37.6449C21.9958 36.4449 24.5958 35.2949 27.0958 33.6449C26.3958 33.8949 19.5458 34.9949 19.1458 34.5449C18.6458 33.7949 18.2958 31.5449 17.8958 30.7449C17.6458 30.0949 18.0458 30.0449 18.5958 29.9449C21.0958 29.3449 27.2458 28.6949 29.8958 28.3949C29.6458 28.0949 29.5458 27.6949 29.6458 27.0949C29.7458 26.3949 29.8958 25.7949 29.9958 25.1949C28.0958 25.8449 25.4458 26.4949 22.9458 27.0949C21.6958 27.3949 19.5458 27.7449 18.0958 27.9949C13.9458 28.5949 8.34577 29.1449 4.04577 29.4449C2.04577 29.4949 0.84577 28.1949 0.29577 26.2949Z" fill="#F5F7FB"/>
</svg>
