<svg width="19" height="23" viewBox="0 0 19 23" fill="none" xmlns="http://www.w3.org/2000/svg">
<path d="M9.45882 22.6887L12.9416 17.4034H5.97607L9.45882 22.6887Z" fill="#31A6E8"/>
<path d="M13.4375 9.5C13.4375 11.7091 11.6466 13.5 9.4375 13.5C7.22836 13.5 5.4375 11.7091 5.4375 9.5C5.4375 7.29086 7.22836 5.5 9.4375 5.5C11.6466 5.5 13.4375 7.29086 13.4375 9.5Z" fill="white"/>
<path fill-rule="evenodd" clip-rule="evenodd" d="M18.4375 9.5C18.4375 14.4706 14.4081 18.5 9.4375 18.5C4.46694 18.5 0.4375 14.4706 0.4375 9.5C0.4375 4.52944 4.46694 0.5 9.4375 0.5C14.4081 0.5 18.4375 4.52944 18.4375 9.5ZM9.4375 13.5C11.6466 13.5 13.4375 11.7091 13.4375 9.5C13.4375 7.29086 11.6466 5.5 9.4375 5.5C7.22836 5.5 5.4375 7.29086 5.4375 9.5C5.4375 11.7091 7.22836 13.5 9.4375 13.5Z" fill="#31A6E8"/>
</svg>
