<svg width="14" height="18" viewBox="0 0 14 18" fill="none" xmlns="http://www.w3.org/2000/svg">
<g clip-path="url(#clip0_1401_40605)">
<path d="M7.71262 18C8.35472 17.2393 14 10.4572 14 6.91405C14 3.10143 10.86 0 7 0C3.13998 0 -9.53674e-07 3.10143 -9.53674e-07 6.91405C-9.53674e-07 10.4572 5.64342 17.2393 6.28738 18H7.71262ZM7 1.83299C9.83749 1.83299 12.1442 4.11324 12.1442 6.91405C12.1442 9.05316 8.89846 13.5715 7 15.9544C5.09968 13.5715 1.85578 9.05316 1.85578 6.91405C1.85578 4.11141 4.16437 1.83299 7 1.83299Z" fill="#EFF6FD"/>
<path d="M6.99987 10.5782C9.04679 10.5782 10.7114 8.934 10.7114 6.9122C10.7114 4.89041 9.04679 3.24622 6.99987 3.24622C4.95294 3.24622 3.28831 4.89041 3.28831 6.9122C3.28831 8.934 4.95294 10.5782 6.99987 10.5782ZM6.99987 5.07921C8.0224 5.07921 8.85565 5.90222 8.85565 6.9122C8.85565 7.92218 8.0224 8.7452 6.99987 8.7452C5.97733 8.7452 5.14409 7.92218 5.14409 6.9122C5.14409 5.90222 5.97733 5.07921 6.99987 5.07921Z" fill="#EFF6FD"/>
</g>
<defs>
<clipPath id="clip0_1401_40605">
<rect width="14" height="18" fill="white" transform="matrix(-1 0 0 1 14 0)"/>
</clipPath>
</defs>
</svg>
