<svg width="51" height="50" viewBox="0 0 51 50" fill="none" xmlns="http://www.w3.org/2000/svg">
<g clip-path="url(#clip0_1401_40749)">
<path d="M18.1313 12.7979V8.72056C18.1313 7.25952 19.3151 6.07031 20.7694 6.07031H30.231C31.6853 6.07031 32.869 7.25952 32.869 8.72056V12.7979" fill="white"/>
<path d="M18.1313 12.7979V8.72056C18.1313 7.25952 19.3151 6.07031 20.7694 6.07031H30.231C31.6853 6.07031 32.869 7.25952 32.869 8.72056V12.7979" stroke="#282828" stroke-width="2.5" stroke-linecap="round" stroke-linejoin="round"/>
<path d="M10.5807 13.333H40.4197C42.914 13.333 44.9433 15.3717 44.9433 17.8775V39.3937C44.9433 41.8996 42.914 43.9382 40.4197 43.9382H10.5807C8.08641 43.9382 6.05713 41.8996 6.05713 39.3937V17.8775C6.05713 15.3717 8.08641 13.333 10.5807 13.333Z" fill="#EF5750" stroke="#282828" stroke-width="2.5" stroke-linejoin="round"/>
<path d="M25.4958 35.3844C24.2698 35.3844 23.2721 34.3821 23.2721 33.1504V31.1033H21.2428C20.0168 31.1033 19.019 30.1009 19.019 28.8692C19.019 27.6376 20.0168 26.6352 21.2428 26.6352H23.2721V24.5966C23.2721 23.3649 24.2698 22.3625 25.4958 22.3625C26.7219 22.3625 27.7196 23.3649 27.7196 24.5966V26.6352H29.7489C30.9749 26.6352 31.9726 27.6376 31.9726 28.8692C31.9726 30.1009 30.9749 31.1033 29.7489 31.1033H27.7196V33.1504C27.7196 34.3821 26.7219 35.3844 25.4958 35.3844Z" fill="#48CBEF" stroke="#282828" stroke-width="2.5"/>
</g>
<defs>
<clipPath id="clip0_1401_40749">
<rect width="41" height="40" fill="white" transform="translate(5 5)"/>
</clipPath>
</defs>
</svg>
