<svg width="51" height="50" viewBox="0 0 51 50" fill="none" xmlns="http://www.w3.org/2000/svg">
<g clip-path="url(#clip0_1401_40814)">
<path d="M15.7998 28.5301V12.0701" stroke="#282828" stroke-width="2.5" stroke-linecap="round" stroke-linejoin="round"/>
<path d="M22.4299 44.04L21.7099 39.85C21.7099 39.85 24.5299 37.05 24.6599 36.93C26.1299 35.5 25.8499 34.09 24.1199 33.59L19.4499 32.91L17.4199 28.8C16.4799 27.26 15.1199 27.26 14.1799 28.8L12.1499 32.91L7.47986 33.59C5.74986 34.09 5.46986 35.5 6.93986 36.93C7.06986 37.05 9.88986 39.85 9.88986 39.85L9.16986 44.04C8.88986 46.15 10.1899 47.04 12.1399 46.01C12.3199 45.92 15.7899 44.14 15.7899 44.14C15.7899 44.14 19.2599 45.92 19.4399 46.01C21.3899 47.04 22.6999 46.15 22.4099 44.04H22.4299Z" fill="#F8CE00" stroke="#282828" stroke-width="2.5" stroke-linecap="round" stroke-linejoin="round"/>
<path d="M35.2002 15.0201V3.56006" stroke="#282828" stroke-width="2.5" stroke-linecap="round" stroke-linejoin="round"/>
<path d="M41.82 30.53L41.1 26.34C41.1 26.34 43.92 23.54 44.05 23.42C45.52 21.99 45.24 20.58 43.51 20.08L38.84 19.4L36.81 15.29C35.87 13.75 34.51 13.75 33.57 15.29L31.54 19.4L26.87 20.08C25.14 20.58 24.86 21.99 26.33 23.42C26.46 23.54 29.28 26.34 29.28 26.34L28.56 30.53C28.28 32.64 29.58 33.53 31.53 32.5C31.71 32.41 35.18 30.63 35.18 30.63C35.18 30.63 38.65 32.41 38.83 32.5C40.78 33.53 42.09 32.64 41.8 30.53H41.82Z" fill="#6ABBEE" stroke="#282828" stroke-width="2.5" stroke-linecap="round" stroke-linejoin="round"/>
</g>
<defs>
<clipPath id="clip0_1401_40814">
<rect width="41.5" height="45.38" fill="white" transform="translate(4.75 2.31006)"/>
</clipPath>
</defs>
</svg>
