<svg width="60" height="69" viewBox="0 0 60 69" fill="none" xmlns="http://www.w3.org/2000/svg">
<g clip-path="url(#clip0_1401_40453)">
<path d="M54.1482 0.789734H58.6941V68.2103H1.30615V0.789734H46.3622H54.1482Z" fill="white"/>
<path d="M58.694 69H1.30601C0.862705 69 0.5 68.6446 0.5 68.2103V0.789745C0.5 0.355385 0.862705 0 1.30601 0H58.694C59.1373 0 59.5 0.355385 59.5 0.789745V68.2103C59.5 68.6446 59.1373 69 58.694 69ZM2.11202 67.4205H57.888V1.57949H2.11202V67.4205Z" fill="#100209"/>
<path d="M37.9471 15.7159H33.6753V11.5382H27.743V15.7159H23.4712V21.5363H27.743V25.722H33.6753V21.5363H37.9471V15.7159Z" fill="#5CB9FF"/>
<path d="M56.7437 7.20246H54.3256V6.41272H56.7437V7.20246ZM51.9076 7.20246H49.4896V6.41272H51.9076V7.20246ZM47.0715 7.20246H44.6535V6.41272H47.0715V7.20246ZM42.2355 7.20246H39.8174V6.41272H42.2355V7.20246ZM37.3994 7.20246H34.9814V6.41272H37.3994V7.20246ZM32.5633 7.20246H30.1453V6.41272H32.5633V7.20246ZM27.7273 7.20246H25.3092V6.41272H27.7273V7.20246ZM22.8912 7.20246H20.4732V6.41272H22.8912V7.20246ZM18.0551 7.20246H15.6371V6.41272H18.0551V7.20246ZM13.2191 7.20246H10.801V6.41272H13.2191V7.20246ZM8.383 7.20246H5.96497V6.41272H8.383V7.20246ZM3.54694 7.20246H1.12891V6.41272H3.54694V7.20246Z" fill="#1E1A1C"/>
<path d="M17.6035 33.4457H42.872C44.7742 33.4457 46.3217 34.962 46.3217 36.8258V64.7354C46.3217 66.5992 44.7742 68.1155 42.872 68.1155H17.6035C15.7013 68.1155 14.1538 66.5992 14.1538 64.7354V36.8258C14.1538 34.962 15.7013 33.4457 17.6035 33.4457Z" fill="#6DCDFC"/>
<path d="M42.8718 68.9052H17.6034C15.2579 68.9052 13.3477 67.0335 13.3477 64.7354V36.8258C13.3477 34.5276 15.2579 32.6559 17.6034 32.6559H42.8718C45.2173 32.6559 47.1276 34.5276 47.1276 36.8258V64.7354C47.1276 67.0335 45.2173 68.9052 42.8718 68.9052ZM17.6034 34.2354C16.1445 34.2354 14.9597 35.3964 14.9597 36.8258V64.7354C14.9597 66.1648 16.1445 67.3257 17.6034 67.3257H42.8718C44.3307 67.3257 45.5155 66.1648 45.5155 64.7354V36.8258C45.5155 35.3964 44.3307 34.2354 42.8718 34.2354H17.6034Z" fill="#100209"/>
<path d="M13.4929 36.6205C13.4929 37.1654 14.0733 37.6076 14.7906 37.6076H46.0396C46.757 37.6076 47.3373 37.1654 47.3373 36.6205V27.5779C47.3373 27.033 46.757 26.5907 46.0396 26.5907H14.7825C14.0652 26.5907 13.4849 27.033 13.4849 27.5779V36.6205H13.4929Z" fill="white"/>
<path d="M46.0395 38.3974H14.7824C13.6056 38.3974 12.6787 37.6155 12.6787 36.6205V27.5779C12.6787 26.5986 13.6217 25.801 14.7824 25.801H46.0314C47.1921 25.801 48.1351 26.5986 48.1351 27.5779V36.6205C48.1351 37.6155 47.2163 38.3974 46.0314 38.3974H46.0395ZM14.7905 27.3726C14.4761 27.3726 14.3149 27.5226 14.2988 27.57V36.6126C14.3069 36.66 14.4761 36.81 14.7905 36.81H46.0395C46.3538 36.81 46.5231 36.6521 46.5312 36.6126V27.57C46.5231 27.5226 46.3538 27.3726 46.0395 27.3726H14.7824H14.7905Z" fill="#100209"/>
<path d="M34.6024 43.8624H15.0889V58.062H34.6024V43.8624Z" fill="white"/>
<path d="M24.3899 49.517H22.3507V47.5189H19.5216V49.517H17.4824V52.2969H19.5216V54.2949H22.3507V52.2969H24.3899V49.517Z" fill="#FC7F2B"/>
<path d="M22.3509 54.6898H19.5218C19.2961 54.6898 19.1188 54.5161 19.1188 54.2949V52.6918H17.4826C17.2569 52.6918 17.0796 52.518 17.0796 52.2969V49.5249C17.0796 49.3038 17.2569 49.13 17.4826 49.13H19.1188V47.5268C19.1188 47.3057 19.2961 47.132 19.5218 47.132H22.3509C22.5766 47.132 22.7539 47.3057 22.7539 47.5268V49.13H24.3901C24.6158 49.13 24.7931 49.3038 24.7931 49.5249V52.2969C24.7931 52.518 24.6158 52.6918 24.3901 52.6918H22.7539V54.2949C22.7539 54.5161 22.5766 54.6898 22.3509 54.6898ZM19.9248 53.9001H21.9479V52.2969C21.9479 52.0758 22.1252 51.902 22.3509 51.902H23.9871V49.9198H22.3509C22.1252 49.9198 21.9479 49.746 21.9479 49.5249V47.9217H19.9248V49.5249C19.9248 49.746 19.7475 49.9198 19.5218 49.9198H17.8856V51.902H19.5218C19.7475 51.902 19.9248 52.0758 19.9248 52.2969V53.9001Z" fill="#100209"/>
</g>
<defs>
<clipPath id="clip0_1401_40453">
<rect width="59" height="69" fill="white" transform="translate(0.5)"/>
</clipPath>
</defs>
</svg>
