<svg width="39" height="40" viewBox="0 0 39 40" fill="none" xmlns="http://www.w3.org/2000/svg">
<g clip-path="url(#clip0_1401_40693)">
<path d="M35.2642 10.0801H12.0203V6.59431C12.0203 5.54449 11.1653 4.69971 10.111 4.69971H3.73549C2.68122 4.69971 1.82617 5.54449 1.82617 6.59431V30.7731C1.82617 31.8147 2.68122 32.6595 3.73549 32.6595H35.2725C36.3268 32.6595 37.1819 31.8147 37.1819 30.7731V11.9665C37.1819 10.9248 36.3268 10.0801 35.2725 10.0801H35.2642Z" fill="#FFEC7B" stroke="#282828" stroke-width="2.5"/>
<path d="M8.51722 1.02515H30.4827C31.454 1.02515 32.2426 1.80431 32.2426 2.76392V17.3221C32.2426 18.2817 31.454 19.0608 30.4827 19.0608H8.51722C7.54596 19.0608 6.75732 18.2817 6.75732 17.3221V2.76392C6.75732 1.80431 7.54596 1.02515 8.51722 1.02515Z" fill="white" stroke="#282828" stroke-width="2.5" stroke-linecap="round" stroke-linejoin="round"/>
<path d="M37.9622 37.0064C37.9622 38.0972 37.074 38.9748 35.9699 38.9748H3.02993C1.92585 38.9748 1.0376 38.089 1.0376 37.0064V17.1991C1.0376 16.1083 1.93415 15.2307 3.02993 15.2307H35.9616C37.0574 15.2307 37.9539 16.1165 37.9539 17.1991V37.0064H37.9622Z" fill="#FFEC7B" stroke="#282828" stroke-width="2.5"/>
<path d="M15.7642 7.75073H23.2354" stroke="#282828" stroke-width="2.5" stroke-linecap="round" stroke-linejoin="round"/>
</g>
<defs>
<clipPath id="clip0_1401_40693">
<rect width="39" height="40" fill="white"/>
</clipPath>
</defs>
</svg>
