<svg width="90" height="60" viewBox="0 0 90 60" fill="none" xmlns="http://www.w3.org/2000/svg">
<path d="M75.1362 22.8503H83.3051V27.0802H5.78418V22.8503H68.09H75.1362Z" fill="white"/>
<path d="M83.3053 27.7319H5.78441C5.42952 27.7319 5.13916 27.4386 5.13916 27.0802V22.8503C5.13916 22.4919 5.42952 22.1986 5.78441 22.1986H83.2989C83.6538 22.1986 83.9441 22.4919 83.9441 22.8503V27.0802C83.9441 27.4386 83.6538 27.7319 83.2989 27.7319H83.3053ZM6.43612 26.4284H82.6601V23.5021H6.42967V26.4284H6.43612Z" fill="#100209"/>
<path d="M82.376 27.0802H71.7422V59.257H82.376V27.0802Z" fill="#E8E8E8"/>
<path d="M82.3762 59.9153H71.7424C71.3875 59.9153 71.0972 59.622 71.0972 59.2635V27.0867C71.0972 26.7282 71.3875 26.4349 71.7424 26.4349H82.3762C82.7311 26.4349 83.0215 26.7282 83.0215 27.0867V59.2635C83.0215 59.622 82.7311 59.9153 82.3762 59.9153ZM72.3877 58.6118H81.731V27.7384H72.3877V58.6118Z" fill="#100209"/>
<path d="M17.7344 27.0802H7.10059V59.257H17.7344V27.0802Z" fill="#E8E8E8"/>
<path d="M17.7346 59.9153H7.10082C6.74593 59.9153 6.45557 59.622 6.45557 59.2635V27.0867C6.45557 26.7282 6.74593 26.4349 7.10082 26.4349H17.7346C18.0895 26.4349 18.3799 26.7282 18.3799 27.0867V59.2635C18.3799 59.622 18.0895 59.9153 17.7346 59.9153ZM7.74608 58.6118H17.0894V27.7384H7.74608V58.6118Z" fill="#100209"/>
<path d="M71.6583 13.6411H17.7344V59.2635H71.6583V13.6411Z" fill="#E8E8E8"/>
<path d="M71.6586 59.9153H17.7346C17.3797 59.9153 17.0894 59.622 17.0894 59.2635V13.6411C17.0894 13.2826 17.3797 12.9893 17.7346 12.9893H71.6586C72.0134 12.9893 72.3038 13.2826 72.3038 13.6411V59.2635C72.3038 59.622 72.0134 59.9153 71.6586 59.9153ZM18.3799 58.6118H71.0133V14.2928H18.3799V58.6118Z" fill="#100209"/>
<path d="M59.7211 0.651764H31.0137V13.6411H59.7211V0.651764Z" fill="white"/>
<path d="M59.7213 14.2929H31.0139C30.659 14.2929 30.3687 13.9996 30.3687 13.6411V0.651749C30.3687 0.293287 30.659 0 31.0139 0H59.7213C60.0762 0 60.3666 0.293287 60.3666 0.651749V13.6411C60.3666 13.9996 60.0762 14.2929 59.7213 14.2929ZM31.6592 12.9894H59.076V1.3035H31.6592V12.9894Z" fill="#100209"/>
<path d="M49.6236 4.73171H47.1329V2.20944H44.397V4.73171H41.8999V7.49513H44.397V10.0109H47.1329V7.49513H49.6236V4.73171Z" fill="#FC7F2B"/>
<path d="M47.1328 10.3367H44.3969C44.2162 10.3367 44.0743 10.1934 44.0743 10.0109V7.82099H41.8998C41.7191 7.82099 41.5771 7.67761 41.5771 7.49512V4.7317C41.5771 4.54921 41.7191 4.40583 41.8998 4.40583H44.0743V2.21595C44.0743 2.03346 44.2162 1.89008 44.3969 1.89008H47.1328C47.3135 1.89008 47.4554 2.03346 47.4554 2.21595V4.40583H49.6299C49.8106 4.40583 49.9526 4.54921 49.9526 4.7317V7.49512C49.9526 7.67761 49.8106 7.82099 49.6299 7.82099H47.4554V10.0109C47.4554 10.1934 47.3135 10.3367 47.1328 10.3367ZM44.7195 9.68499H46.8102V7.49512C46.8102 7.31263 46.9521 7.16924 47.1328 7.16924H49.3073V5.05758H47.1328C46.9521 5.05758 46.8102 4.91419 46.8102 4.7317V2.54182H44.7195V4.7317C44.7195 4.91419 44.5776 5.05758 44.3969 5.05758H42.2224V7.16924H44.3969C44.5776 7.16924 44.7195 7.31263 44.7195 7.49512V9.68499Z" fill="#100209"/>
<path d="M66.6643 11.5816H72.5361V18.1708H16.8506V11.5816H61.6055H66.6643Z" fill="white"/>
<path d="M72.5363 18.8225H16.8508C16.4959 18.8225 16.2056 18.5292 16.2056 18.1708V11.5881C16.2056 11.2296 16.4959 10.9363 16.8508 10.9363H72.5299C72.8848 10.9363 73.1751 11.2296 73.1751 11.5881V18.1708C73.1751 18.5292 72.8848 18.8225 72.5299 18.8225H72.5363ZM17.5025 17.519H71.8911V12.2398H17.4961V17.519H17.5025Z" fill="#100209"/>
<path d="M53.0499 47.8579H36.3442V59.2635H53.0499V47.8579Z" fill="#7E6B82"/>
<path d="M53.0433 59.9153H36.3376C35.9827 59.9153 35.6924 59.622 35.6924 59.2635V47.8579C35.6924 47.4995 35.9827 47.2062 36.3376 47.2062H53.0433C53.3982 47.2062 53.6885 47.4995 53.6885 47.8579V59.2635C53.6885 59.622 53.3982 59.9153 53.0433 59.9153ZM36.9829 58.6118H52.398V48.5097H36.9829V58.6118Z" fill="#100209"/>
<path d="M31.3558 25.5225H25.0581V30.4953H31.3558V25.5225Z" fill="#6DCDFC"/>
<path d="M31.356 31.1536H25.0583C24.7035 31.1536 24.4131 30.8603 24.4131 30.5019V25.529C24.4131 25.1705 24.7035 24.8773 25.0583 24.8773H31.356C31.7109 24.8773 32.0013 25.1705 32.0013 25.529V30.5019C32.0013 30.8603 31.7109 31.1536 31.356 31.1536ZM25.7036 29.8501H30.7108V26.1808H25.7036V29.8501Z" fill="#100209"/>
<path d="M42.3514 25.5225H36.0537V30.4953H42.3514V25.5225Z" fill="#6DCDFC"/>
<path d="M42.3448 31.1536H36.0471C35.6922 31.1536 35.4019 30.8603 35.4019 30.5019V25.529C35.4019 25.1705 35.6922 24.8773 36.0471 24.8773H42.3448C42.6997 24.8773 42.9901 25.1705 42.9901 25.529V30.5019C42.9901 30.8603 42.6997 31.1536 42.3448 31.1536ZM36.6924 29.8501H41.6995V26.1808H36.6924V29.8501Z" fill="#100209"/>
<path d="M53.3397 25.5225H47.042V30.4953H53.3397V25.5225Z" fill="#6DCDFC"/>
<path d="M53.3399 31.1536H47.0422C46.6873 31.1536 46.397 30.8603 46.397 30.5019V25.529C46.397 25.1705 46.6873 24.8773 47.0422 24.8773H53.3399C53.6948 24.8773 53.9852 25.1705 53.9852 25.529V30.5019C53.9852 30.8603 53.6948 31.1536 53.3399 31.1536ZM47.6875 29.8501H52.6947V26.1808H47.6875V29.8501Z" fill="#100209"/>
<path d="M64.3284 25.5225H58.0308V30.4953H64.3284V25.5225Z" fill="#6DCDFC"/>
<path d="M64.3287 31.1536H58.031C57.6761 31.1536 57.3857 30.8603 57.3857 30.5019V25.529C57.3857 25.1705 57.6761 24.8773 58.031 24.8773H64.3287C64.6836 24.8773 64.9739 25.1705 64.9739 25.529V30.5019C64.9739 30.8603 64.6836 31.1536 64.3287 31.1536ZM58.6763 29.8501H63.6834V26.1808H58.6763V29.8501Z" fill="#100209"/>
<path d="M31.3558 36.6348H25.0581V41.6076H31.3558V36.6348Z" fill="#6DCDFC"/>
<path d="M31.356 42.2594H25.0583C24.7035 42.2594 24.4131 41.9661 24.4131 41.6077V36.6348C24.4131 36.2763 24.7035 35.9831 25.0583 35.9831H31.356C31.7109 35.9831 32.0013 36.2763 32.0013 36.6348V41.6077C32.0013 41.9661 31.7109 42.2594 31.356 42.2594ZM25.7036 40.9559H30.7108V37.2866H25.7036V40.9559Z" fill="#100209"/>
<path d="M42.3514 36.6348H36.0537V41.6076H42.3514V36.6348Z" fill="#6DCDFC"/>
<path d="M42.3448 42.2594H36.0471C35.6922 42.2594 35.4019 41.9661 35.4019 41.6077V36.6348C35.4019 36.2763 35.6922 35.9831 36.0471 35.9831H42.3448C42.6997 35.9831 42.9901 36.2763 42.9901 36.6348V41.6077C42.9901 41.9661 42.6997 42.2594 42.3448 42.2594ZM36.6924 40.9559H41.6995V37.2866H36.6924V40.9559Z" fill="#100209"/>
<path d="M53.3397 36.6348H47.042V41.6076H53.3397V36.6348Z" fill="#6DCDFC"/>
<path d="M53.3399 42.2594H47.0422C46.6873 42.2594 46.397 41.9661 46.397 41.6077V36.6348C46.397 36.2763 46.6873 35.9831 47.0422 35.9831H53.3399C53.6948 35.9831 53.9852 36.2763 53.9852 36.6348V41.6077C53.9852 41.9661 53.6948 42.2594 53.3399 42.2594ZM47.6875 40.9559H52.6947V37.2866H47.6875V40.9559Z" fill="#100209"/>
<path d="M64.3284 36.6348H58.0308V41.6076H64.3284V36.6348Z" fill="#6DCDFC"/>
<path d="M64.3287 42.2594H58.031C57.6761 42.2594 57.3857 41.9661 57.3857 41.6077V36.6348C57.3857 36.2763 57.6761 35.9831 58.031 35.9831H64.3287C64.6836 35.9831 64.9739 36.2763 64.9739 36.6348V41.6077C64.9739 41.9661 64.6836 42.2594 64.3287 42.2594ZM58.6763 40.9559H63.6834V37.2866H58.6763V40.9559Z" fill="#100209"/>
<path d="M79.4338 33.9626H74.6782V38.9355H79.4338V33.9626Z" fill="#6DCDFC"/>
<path d="M79.4403 39.5938H74.6848C74.3299 39.5938 74.0396 39.3005 74.0396 38.942V33.9692C74.0396 33.6107 74.3299 33.3174 74.6848 33.3174H79.4403C79.7952 33.3174 80.0856 33.6107 80.0856 33.9692V38.942C80.0856 39.3005 79.7952 39.5938 79.4403 39.5938ZM75.3301 38.2903H78.7951V34.6209H75.3301V38.2903Z" fill="#100209"/>
<path d="M79.4338 43.8562H74.6782V48.8355H79.4338V43.8562Z" fill="#6DCDFC"/>
<path d="M79.4403 49.4808H74.6848C74.3299 49.4808 74.0396 49.1875 74.0396 48.829V43.8497C74.0396 43.4912 74.3299 43.1979 74.6848 43.1979H79.4403C79.7952 43.1979 80.0856 43.4912 80.0856 43.8497V48.829C80.0856 49.1875 79.7952 49.4808 79.4403 49.4808ZM75.3301 48.1773H78.7951V44.5014H75.3301V48.1773Z" fill="#100209"/>
<path d="M14.8053 33.9626H10.0498V38.9355H14.8053V33.9626Z" fill="#6DCDFC"/>
<path d="M14.8119 39.5938H10.0564C9.7015 39.5938 9.41113 39.3005 9.41113 38.942V33.9692C9.41113 33.6107 9.7015 33.3174 10.0564 33.3174H14.8119C15.1668 33.3174 15.4572 33.6107 15.4572 33.9692V38.942C15.4572 39.3005 15.1668 39.5938 14.8119 39.5938ZM10.7016 38.2903H14.1667V34.6209H10.7016V38.2903Z" fill="#100209"/>
<path d="M14.8053 43.8562H10.0498V48.8355H14.8053V43.8562Z" fill="#6DCDFC"/>
<path d="M14.8119 49.4808H10.0564C9.7015 49.4808 9.41113 49.1875 9.41113 48.829V43.8497C9.41113 43.4912 9.7015 43.1979 10.0564 43.1979H14.8119C15.1668 43.1979 15.4572 43.4912 15.4572 43.8497V48.829C15.4572 49.1875 15.1668 49.4808 14.8119 49.4808ZM10.7016 48.1773H14.1667V44.5014H10.7016V48.1773Z" fill="#100209"/>
</svg>
