<svg width="58" height="69" viewBox="0 0 58 69" fill="none" xmlns="http://www.w3.org/2000/svg">
<g clip-path="url(#clip0_1401_40432)">
<path d="M1.50781 32.9715H56.4923V48.3962C56.4923 55.6576 50.5195 61.5463 43.1694 61.5463H14.8307C7.47387 61.5463 1.50781 55.6509 1.50781 48.3962V32.9715Z" fill="white" stroke="#100209" stroke-width="2" stroke-linecap="round" stroke-linejoin="round"/>
<path d="M43.1696 61.5529H15.4624V68.0053H43.1696V61.5529Z" fill="white" stroke="#100209" stroke-width="2" stroke-linecap="round" stroke-linejoin="round"/>
<path d="M36.0207 44.2051H32.0971V40.3323H25.9026V44.2051H21.979V50.3193H25.9026V54.192H32.0971V50.3193H36.0207V44.2051Z" fill="#89C380" stroke="#100209" stroke-width="2" stroke-linecap="round" stroke-linejoin="round"/>
<path d="M49.6123 32.9715H39.9712L41.4157 14.9207H48.1611L49.6123 32.9715Z" fill="white" stroke="#100209" stroke-width="2" stroke-linecap="round" stroke-linejoin="round"/>
<path d="M47.7045 9.7084H41.8728C40.5493 9.7084 39.6691 11.048 40.2066 12.2416L41.4159 14.9207H48.1614L49.3707 12.2416C49.9082 11.048 49.028 9.7084 47.7045 9.7084Z" fill="white" stroke="#100209" stroke-width="2" stroke-linecap="round" stroke-linejoin="round"/>
<path d="M29.0002 14.3239C29.0002 19.6489 25.856 20.2922 21.9794 20.2922C18.1028 20.2922 14.9585 19.6556 14.9585 14.3239C14.9585 8.99222 21.9794 0.99472 21.9794 0.99472C21.9794 0.99472 29.0002 8.99222 29.0002 14.3239Z" fill="#89C380" stroke="#100209" stroke-width="2" stroke-linecap="round" stroke-linejoin="round"/>
<path d="M25.5331 26.3069C23.3966 25.5442 21.979 23.5416 21.979 21.3001V8.26938" stroke="#100209" stroke-width="2" stroke-linecap="round" stroke-linejoin="round"/>
</g>
<defs>
<clipPath id="clip0_1401_40432">
<rect width="57" height="69" fill="white" transform="translate(0.5)"/>
</clipPath>
</defs>
</svg>
