<svg width="51" height="50" viewBox="0 0 51 50" fill="none" xmlns="http://www.w3.org/2000/svg">
<g clip-path="url(#clip0_1401_40824)">
<path d="M25.5 4.06592V7.57057" stroke="#282828" stroke-width="2.5" stroke-linecap="round" stroke-linejoin="round"/>
<path d="M18.0669 6.05273L19.8249 9.09692" stroke="#282828" stroke-width="2.5" stroke-linecap="round" stroke-linejoin="round"/>
<path d="M31.1748 9.09692L32.9328 6.05273" stroke="#282828" stroke-width="2.5" stroke-linecap="round" stroke-linejoin="round"/>
<path d="M11.9736 39.6923V25.9977C11.9736 18.5364 18.0327 12.4822 25.4999 12.4822C32.9671 12.4822 39.0261 18.5364 39.0261 25.9977V39.6923H11.9736Z" fill="#EF5750" stroke="#282828" stroke-width="2.5" stroke-linejoin="round"/>
<path d="M23.4942 18.2039C20.3026 18.2039 17.6997 20.7961 17.6997 23.9938V26.3814" fill="#EF5750"/>
<path d="M23.4942 18.2039C20.3026 18.2039 17.6997 20.7961 17.6997 23.9938V26.3814" stroke="#282828" stroke-width="2.5" stroke-linejoin="round"/>
<path d="M17.7085 30.9861V32.5466" stroke="#282828" stroke-width="2.5" stroke-linecap="round" stroke-linejoin="round"/>
<path d="M43.9334 41.8411C43.9334 44.1008 42.0986 45.9341 39.8371 45.9341H11.1632C8.90169 45.9341 7.06689 44.1008 7.06689 41.8411C7.06689 39.5814 8.90169 37.748 11.1632 37.748H39.8371C42.0986 37.748 43.9334 39.5814 43.9334 41.8411Z" fill="#98D6D8" stroke="#282828" stroke-width="2.5"/>
</g>
<defs>
<clipPath id="clip0_1401_40824">
<rect width="39" height="44" fill="white" transform="translate(6 3)"/>
</clipPath>
</defs>
</svg>
