<svg width="51" height="50" viewBox="0 0 51 50" fill="none" xmlns="http://www.w3.org/2000/svg">
<g clip-path="url(#clip0_1401_40854)">
<path d="M40.6045 11.999H10.3955C9.63515 11.999 9.02197 12.6006 9.02197 13.3465V44.6501C9.02197 45.396 9.63515 45.9976 10.3955 45.9976H20.4107V38.699H30.5975V45.9976H40.6127C41.3731 45.9976 41.9862 45.396 41.9862 44.6501V13.3465C41.9862 12.6006 41.3731 11.999 40.6127 11.999H40.6045Z" fill="#C7EFED" stroke="#282828" stroke-width="2.5"/>
<path d="M22.242 20.5085H15.7178V25.0641H22.242V20.5085Z" fill="white" stroke="#282828" stroke-width="2.5" stroke-linecap="round" stroke-linejoin="round"/>
<path d="M28.7664 20.5085H22.2422V25.0641H28.7664V20.5085Z" fill="white" stroke="#282828" stroke-width="2.5" stroke-linecap="round" stroke-linejoin="round"/>
<path d="M35.282 20.5085H28.7578V25.0641H35.282V20.5085Z" fill="white" stroke="#282828" stroke-width="2.5" stroke-linecap="round" stroke-linejoin="round"/>
<path d="M22.242 28.9622H15.7178V33.5178H22.242V28.9622Z" fill="white" stroke="#282828" stroke-width="2.5" stroke-linecap="round" stroke-linejoin="round"/>
<path d="M28.7664 28.9622H22.2422V33.5178H28.7664V28.9622Z" fill="white" stroke="#282828" stroke-width="2.5" stroke-linecap="round" stroke-linejoin="round"/>
<path d="M35.282 28.9622H28.7578V33.5178H35.282V28.9622Z" fill="white" stroke="#282828" stroke-width="2.5" stroke-linecap="round" stroke-linejoin="round"/>
<path d="M30.5892 38.7068H20.4023V46.0054H30.5892V38.7068Z" fill="#48CBEF" stroke="#282828" stroke-width="2.5"/>
<path d="M32.3389 10.7155C32.3389 14.421 29.273 17.4206 25.4959 17.4206C21.7187 17.4206 18.6528 14.4129 18.6528 10.7155C18.6528 7.01812 21.7187 4.00244 25.4959 4.00244C29.273 4.00244 32.3389 7.0101 32.3389 10.7155Z" fill="#FFA64D" stroke="#282828" stroke-width="2.5"/>
<path d="M27.9897 10.7075H23.0107" stroke="#282828" stroke-width="2.5" stroke-linecap="round" stroke-linejoin="round"/>
<path d="M25.4961 8.26953V13.154" stroke="#282828" stroke-width="2.5" stroke-linecap="round" stroke-linejoin="round"/>
</g>
<defs>
<clipPath id="clip0_1401_40854">
<rect width="37" height="46" fill="white" transform="translate(7 2)"/>
</clipPath>
</defs>
</svg>
