<svg width="51" height="50" viewBox="0 0 51 50" fill="none" xmlns="http://www.w3.org/2000/svg">
<g clip-path="url(#clip0_1401_40739)">
<path d="M41.4686 8.78296H38.2898C37.4648 8.78296 36.7959 9.44285 36.7959 10.2569V15.2272C36.7959 16.0412 37.4648 16.7011 38.2898 16.7011H41.4686C42.2937 16.7011 42.9626 16.0412 42.9626 15.2272V10.2569C42.9626 9.44285 42.2937 8.78296 41.4686 8.78296Z" fill="#EF5750" stroke="#282828" stroke-width="2.5" stroke-linejoin="round"/>
<path d="M41.4686 16.7993H38.2898C37.4648 16.7993 36.7959 17.4592 36.7959 18.2732V23.2435C36.7959 24.0575 37.4648 24.7174 38.2898 24.7174H41.4686C42.2937 24.7174 42.9626 24.0575 42.9626 23.2435V18.2732C42.9626 17.4592 42.2937 16.7993 41.4686 16.7993Z" fill="#48CBEF" stroke="#282828" stroke-width="2.5"/>
<path d="M41.4686 24.8157H38.2898C37.4648 24.8157 36.7959 25.4756 36.7959 26.2896V31.2599C36.7959 32.0739 37.4648 32.7338 38.2898 32.7338H41.4686C42.2937 32.7338 42.9626 32.0739 42.9626 31.2599V26.2896C42.9626 25.4756 42.2937 24.8157 41.4686 24.8157Z" fill="white" stroke="#282828" stroke-width="2.5" stroke-linecap="round" stroke-linejoin="round"/>
<path d="M36.796 6.02344H10.2785C9.04089 6.02344 8.0376 7.01327 8.0376 8.23429V41.7655C8.0376 42.9865 9.04089 43.9764 10.2785 43.9764H36.796C38.0336 43.9764 39.0369 42.9865 39.0369 41.7655V8.23429C39.0369 7.01327 38.0336 6.02344 36.796 6.02344Z" fill="#FFEC7B" stroke="#282828" stroke-width="2.5"/>
<path d="M29.6996 13.0247H17.5654V17.258H29.6996V13.0247Z" fill="white" stroke="#282828" stroke-width="2.5" stroke-linecap="round" stroke-linejoin="round"/>
</g>
<defs>
<clipPath id="clip0_1401_40739">
<rect width="37" height="40" fill="white" transform="translate(7 5)"/>
</clipPath>
</defs>
</svg>
