<svg width="51" height="50" viewBox="0 0 51 50" fill="none" xmlns="http://www.w3.org/2000/svg">
<g clip-path="url(#clip0_1401_40729)">
<path d="M35.862 43.3951L43.895 35.3622C44.6686 34.5886 44.6686 33.3375 43.895 32.5721C43.1213 31.7984 41.8703 31.7984 41.1048 32.5721L40.0596 33.6174L27.1378 20.6956L21.2036 26.6297L34.1254 39.5515L33.0802 40.5968C32.3065 41.3705 32.3065 42.6215 33.0802 43.3869C33.8538 44.1606 35.1048 44.1606 35.8703 43.3869L35.862 43.3951Z" fill="#C7EFED" stroke="#282828" stroke-width="2.5"/>
<path d="M27.6564 36.9342L37.4342 27.1564C38.496 26.0947 38.496 24.3746 37.4342 23.3128C36.3725 22.2511 34.6523 22.2511 33.5906 23.3128L33.2449 23.6585L22.7676 13.1811C22.1914 12.605 21.0556 12.0865 20.2408 12.0289L13.4178 11.5433C12.6029 11.4857 11.9857 12.1029 12.0433 12.9178L12.5289 19.7408C12.5865 20.5556 13.105 21.6914 13.6811 22.2676L24.1585 32.7449L23.8128 33.0906C22.7511 34.1523 22.7511 35.8725 23.8128 36.9342C24.8746 37.996 26.5947 37.996 27.6564 36.9342Z" fill="#48CBEF" stroke="#282828" stroke-width="2.5"/>
<path d="M12.2901 11.7901L6.52881 6.02881" stroke="#282828" stroke-width="2.5" stroke-linecap="round" stroke-linejoin="round"/>
<path d="M27.6234 29.2798L24.5781 32.3251" stroke="#282828" stroke-width="2.5" stroke-linecap="round" stroke-linejoin="round"/>
<path d="M26.6852 23.5185L20.0186 16.8518" stroke="#282828" stroke-width="2.5" stroke-linecap="round" stroke-linejoin="round"/>
</g>
<defs>
<clipPath id="clip0_1401_40729">
<rect width="40" height="40" fill="white" transform="translate(5.5 5)"/>
</clipPath>
</defs>
</svg>
