<svg width="58" height="65" viewBox="0 0 58 65" fill="none" xmlns="http://www.w3.org/2000/svg">
<g clip-path="url(#clip0_1401_40423)">
<path d="M41.6664 7.44791C36.4248 7.44791 31.801 10.0868 29.0043 14.1146C26.2077 10.0868 21.5838 7.44791 16.3423 7.44791C7.78943 7.44791 0.85791 14.4618 0.85791 23.1163C0.85791 26.7795 2.11039 30.1389 4.18641 32.8038C6.01366 61.7795 15.1585 64.1233 15.1585 64.1233C18.8816 64.4358 20.0225 59.566 20.0225 59.566C23.0079 52.8993 28.4467 52.3958 29.0043 52.3611C29.562 52.3958 35.0008 52.8993 37.9861 59.566C37.9861 59.566 39.1185 64.4358 42.8502 64.1233C42.8502 64.1233 51.9864 61.7882 53.8223 32.8038C55.9069 30.1389 57.1508 26.7795 57.1508 23.1163C57.1508 14.4618 50.2192 7.45659 41.6749 7.45659L41.6664 7.44791Z" fill="white"/>
<path d="M42.5072 65C38.664 65 37.3601 60.5642 37.1713 59.8524C34.4691 53.8802 29.7508 53.2813 29.0045 53.2292C28.2496 53.2899 23.5399 53.8889 20.8377 59.8524C20.6489 60.5903 19.2249 65.3212 15.09 64.9826C15.0471 64.9826 14.9956 64.974 14.9527 64.9566C14.5581 64.8524 5.24175 62.1441 3.35446 33.1163C1.15833 30.217 0.00879659 26.7622 0.00879659 23.1076C0.000217977 13.9931 7.32635 6.57986 16.3339 6.57986C21.258 6.57986 25.9076 8.83681 28.9959 12.6736C32.0928 8.83681 36.7424 6.57986 41.658 6.57986C50.6655 6.57986 57.9916 13.9931 57.9916 23.1076C57.9916 26.7622 56.8335 30.217 54.646 33.1163C52.7587 62.1354 43.4423 64.8524 43.0477 64.9566C43.0048 64.9653 42.9533 64.974 42.9104 64.9826C42.7732 64.9913 42.6359 65 42.4987 65H42.5072ZM29.0045 51.4844C29.0045 51.4844 29.0388 51.4844 29.056 51.4844C29.7165 51.5191 35.5843 52.0747 38.767 59.2014C38.7927 59.2535 38.8099 59.3056 38.8184 59.3576C38.8184 59.3924 39.7792 63.2552 42.5072 63.2552C42.5673 63.2552 42.6273 63.2552 42.6874 63.2552C43.3737 62.9861 51.2832 59.349 52.9646 32.7431C52.9732 32.5695 53.0418 32.3958 53.1447 32.2656C55.2036 29.6267 56.2931 26.467 56.2931 23.1163C56.2931 14.9566 49.7304 8.32466 41.6751 8.32466C36.9226 8.32466 32.4531 10.6771 29.708 14.6181C29.545 14.8524 29.2876 14.9826 29.0045 14.9826C28.7214 14.9826 28.4641 14.8438 28.3011 14.6181C25.5645 10.6771 21.0864 8.32466 16.3425 8.32466C8.27858 8.32466 1.72452 14.9653 1.72452 23.1163C1.72452 26.467 2.814 29.6267 4.87287 32.2656C4.97581 32.4045 5.04444 32.5694 5.05302 32.7517C6.72585 59.2535 14.6353 62.9948 15.3302 63.2639C18.2212 63.4288 19.182 59.4097 19.1992 59.3663C19.2077 59.3142 19.2335 59.2622 19.2506 59.2101C22.4333 52.092 28.3011 51.5365 28.9616 51.4931C28.9788 51.4931 28.9959 51.4931 29.0131 51.4931L29.0045 51.4844Z" fill="#100209"/>
<path d="M53.3676 9.2361C53.3676 9.2361 48.1518 8.9236 46.0072 0.868042C46.0072 0.868042 44.9949 7.08332 38.7153 9.25346C38.7153 9.25346 45.0892 10.6423 46.0072 19.1667C46.0072 19.1667 47.2339 10.6337 53.3676 9.2361Z" fill="#FFD03B"/>
<path d="M46.007 20.0347H45.9899C45.5609 20.0347 45.2006 19.6962 45.1578 19.2622C44.317 11.441 38.5951 10.1128 38.5351 10.1042C38.1576 10.026 37.8831 9.69618 37.8574 9.30555C37.8316 8.91493 38.0718 8.55903 38.4321 8.42882C44.1283 6.45833 45.1149 0.954859 45.1578 0.720484C45.2264 0.321179 45.5609 0.0173594 45.9641 -1.72562e-06C46.3759 -0.0260434 46.7276 0.243054 46.8306 0.642359C48.7951 8.02083 53.3675 8.36805 53.4104 8.37673C53.8393 8.40277 54.1825 8.74132 54.2168 9.17534C54.2511 9.60937 53.968 10 53.5476 10.0955C48.0745 11.3455 46.8563 19.2274 46.8477 19.3056C46.7877 19.7309 46.4274 20.0434 45.9985 20.0434L46.007 20.0347ZM40.9285 9.21875C42.5927 10.1302 44.8661 11.9705 46.1014 15.5556C46.9078 13.4028 48.3576 10.7812 50.854 9.31423C49.327 8.50694 47.4054 6.875 46.0242 3.58507C45.2264 5.36458 43.7165 7.67361 40.9285 9.21007V9.21875Z" fill="#100209"/>
</g>
<defs>
<clipPath id="clip0_1401_40423">
<rect width="58" height="65" fill="white"/>
</clipPath>
</defs>
</svg>
