<svg width="20" height="20" viewBox="0 0 20 20" fill="none" xmlns="http://www.w3.org/2000/svg">
<path d="M13.4816 11.7205C13.3458 11.5906 13.1628 11.511 12.9561 11.511C12.7495 11.511 12.5606 11.5906 12.4248 11.7264L11.9053 12.2487C11.5777 12.5734 11.0464 12.5734 10.7217 12.2487L9.23698 10.7643L7.75227 9.27993C7.42463 8.95236 7.42463 8.42116 7.75227 8.09359L8.27177 7.5742C8.40755 7.4355 8.48724 7.24663 8.48724 7.043C8.48724 6.83938 8.40755 6.65641 8.27767 6.52066L5.59456 3.2774C5.45288 3.10919 5.24035 3 5.00422 3C4.75332 3 4.53194 3.12099 4.39321 3.30691L4.34598 3.36889C3.7645 4.15683 3 5.41105 3 6.58853C3 8.20278 4.21611 10.2243 6.40923 12.4258L6.98187 12.9983C6.98187 12.9983 6.98777 13.0042 6.99072 13.0072L6.99958 13.019C9.20156 15.2116 11.7991 17 13.4107 17C14.5884 17 15.84 16.2357 16.631 15.6513L16.693 15.6071C16.879 15.4654 17 15.2471 17 14.9962C17 14.7601 16.8908 14.5476 16.7225 14.4089L13.4786 11.7234L13.4816 11.7205Z" fill="#104C9C"/>
</svg>
