<svg width="51" height="50" viewBox="0 0 51 50" fill="none" xmlns="http://www.w3.org/2000/svg">
<g clip-path="url(#clip0_1401_40788)">
<path d="M17.3671 41.6391C17.3671 42.9101 16.3257 43.9423 15.0434 43.9423C13.7611 43.9423 12.7197 42.9101 12.7197 41.6391V31.6582C12.7197 30.3872 13.7611 29.355 15.0434 29.355C16.3257 29.355 17.3671 30.3872 17.3671 31.6582V41.6391Z" fill="white" stroke="#282828" stroke-width="2.5" stroke-linecap="round" stroke-linejoin="round"/>
<path d="M38.2802 41.6391C38.2802 42.9101 37.2388 43.9423 35.9565 43.9423C34.6742 43.9423 33.6328 42.9101 33.6328 41.6391V31.6582C33.6328 30.3872 34.6742 29.355 35.9565 29.355C37.2388 29.355 38.2802 30.3872 38.2802 31.6582V41.6391Z" fill="white" stroke="#282828" stroke-width="2.5" stroke-linecap="round" stroke-linejoin="round"/>
<path d="M11.6267 6.06641H39.3817C42.4455 6.06641 44.9327 8.53175 44.9327 11.5686V31.4876C44.9327 34.5245 42.4455 36.9898 39.3817 36.9898H11.6267C8.56288 36.9898 6.07568 34.5245 6.07568 31.4876V11.5686C6.07568 8.53175 8.56288 6.06641 11.6267 6.06641Z" fill="#48CBEF" stroke="#282828" stroke-width="2.5"/>
<path d="M13.0898 24.7398H21.369L23.5206 18.6489L27.8409 27.6317L31.4383 20.9692H37.9102" stroke="#282828" stroke-width="2.5" stroke-linecap="round" stroke-linejoin="round"/>
</g>
<defs>
<clipPath id="clip0_1401_40788">
<rect width="41" height="40" fill="white" transform="translate(5 5)"/>
</clipPath>
</defs>
</svg>
