<svg width="51" height="50" viewBox="0 0 51 50" fill="none" xmlns="http://www.w3.org/2000/svg">
<g clip-path="url(#clip0_1401_40777)">
<path d="M8.98096 10.6431V10.8769C8.98096 10.799 8.99666 10.721 9.0045 10.6431H8.98096Z" fill="white" stroke="#282828" stroke-width="2.5" stroke-linecap="round" stroke-linejoin="round"/>
<path d="M38.7533 10.8769C38.7533 10.799 38.769 10.7211 38.7769 10.6431C38.8711 8.6244 40.1976 6.94085 42.0186 6.27834V5.97437H13.9182C11.273 5.97437 9.13009 8.04763 9.0045 10.6431C9.0045 10.7211 8.98096 10.7912 8.98096 10.8769C8.98096 13.5815 11.1945 15.7795 13.9182 15.7795H42.0186V15.4677C40.1191 14.7818 38.7533 12.997 38.7533 10.8769Z" fill="white" stroke="#282828" stroke-width="2.5" stroke-linecap="round" stroke-linejoin="round"/>
<path d="M13.9182 15.7795C11.1945 15.7795 8.98096 13.5816 8.98096 10.877V38.9674H8.99666C8.99666 39.0219 8.98096 39.0765 8.98096 39.131C8.98096 41.8356 11.1945 44.0336 13.9182 44.0336H42.0186V15.7795H13.9182Z" fill="#F8CE00" stroke="#282828" stroke-width="2.5" stroke-linecap="round" stroke-linejoin="round"/>
<path d="M25.1818 27.7747L20.8411 24.8363L16.5005 27.7747V21.7966V15.8262H20.8411H25.1818V21.7966V27.7747Z" fill="#6ABBEE" stroke="#282828" stroke-width="2.5" stroke-linecap="round" stroke-linejoin="round"/>
<path d="M38.3689 10.7678H25.292" stroke="#282828" stroke-width="2.5" stroke-linecap="round" stroke-linejoin="round"/>
</g>
<defs>
<clipPath id="clip0_1401_40777">
<rect width="35" height="40" fill="white" transform="translate(8 5)"/>
</clipPath>
</defs>
</svg>
