<svg width="14" height="16" viewBox="0 0 14 16" fill="none" xmlns="http://www.w3.org/2000/svg">
<g clip-path="url(#clip0_1401_40595)">
<path d="M13.0789 16H0.921053L0 15.0834V6.65995L0.921053 5.74335H2.75026V0.91659L3.67132 0H13.0789L14 0.91659V15.0834L13.0789 16ZM1.84211 14.1668H12.1579V1.83318H4.59237V6.65995L3.67132 7.57654H1.84211V14.1668Z" fill="#EFF6FD"/>
<path d="M10.2807 6.35925H6.44727V8.19243H10.2807V6.35925Z" fill="#EFF6FD"/>
<path d="M10.2807 3.27954H6.44727V5.11272H10.2807V3.27954Z" fill="#EFF6FD"/>
<path d="M9.91227 16H6.81754L5.89648 15.0834V10.3941L6.81754 9.47754H9.91227L10.8333 10.3941V15.0834L9.91227 16ZM7.73859 14.1668H8.99122V11.3107H7.73859V14.1668Z" fill="#EFF6FD"/>
</g>
<defs>
<clipPath id="clip0_1401_40595">
<rect width="14" height="16" fill="white"/>
</clipPath>
</defs>
</svg>
