<svg width="58" height="65" viewBox="0 0 58 65" fill="none" xmlns="http://www.w3.org/2000/svg">
<g clip-path="url(#clip0_1401_40403)">
<path d="M56.7608 4.66049H1.23926V64.2507H56.7608V4.66049Z" fill="#6EC1FF"/>
<path d="M56.7608 65H1.2392C0.832642 65 0.5 64.6628 0.5 64.2507V4.6605C0.5 4.2484 0.832642 3.91122 1.2392 3.91122H56.7608C57.1674 3.91122 57.5 4.2484 57.5 4.6605V64.2507C57.5 64.6628 57.1674 65 56.7608 65ZM1.97841 63.5014H56.0216V5.40978H1.97841V63.5014Z" fill="#100209"/>
<path d="M48.3562 60.1672H52.9762V8.29453H5.43066V60.1672H39.7075H48.3562Z" fill="white"/>
<path d="M52.9762 60.9164H5.43061C5.02405 60.9164 4.69141 60.5793 4.69141 60.1672V8.29454C4.69141 7.88243 5.02405 7.54526 5.43061 7.54526H52.9762C53.3828 7.54526 53.7154 7.88243 53.7154 8.29454V60.1672C53.7154 60.5793 53.3828 60.9164 52.9762 60.9164ZM6.16981 59.4179H52.237V9.04382H6.16981V59.4179Z" fill="#100209"/>
<path d="M47.1585 35.4109H10.9302V55.2968H47.1585V35.4109Z" fill="#FFD03B"/>
<path d="M37.5045 20.0807H33.1062V15.6225H26.993V20.0807H22.5947V26.2847H26.993V30.7429H33.1062V26.2847H37.5045V20.0807Z" fill="#5CB9FF"/>
<path d="M43.7066 40.2363H14.4268V40.9856H43.7066V40.2363Z" fill="#100209"/>
<path d="M43.7584 44.9568H14.4712V45.7061H43.7584V44.9568Z" fill="#100209"/>
<path d="M43.8097 49.8121H14.5225V50.5614H43.8097V49.8121Z" fill="#100209"/>
<path d="M37.3127 3.3118C37.3127 1.89567 36.1817 0.749268 34.7846 0.749268H23.8C22.403 0.749268 21.272 1.89567 21.272 3.3118V6.46627H37.3053V3.3118H37.3127Z" fill="#E8E8E8"/>
<path d="M37.3126 7.21556H21.2792C20.8727 7.21556 20.54 6.87839 20.54 6.46628V3.31182C20.54 1.48357 22.0037 0 23.8073 0H34.7919C36.5955 0 38.0592 1.48357 38.0592 3.31182V6.46628C38.0592 6.87839 37.7265 7.21556 37.32 7.21556H37.3126ZM22.0184 5.717H36.5734V3.31182C36.5734 2.31527 35.775 1.49856 34.7845 1.49856H23.7999C22.8168 1.49856 22.0111 2.30778 22.0111 3.31182V5.717H22.0184Z" fill="#100209"/>
<path d="M39.094 5.56714H19.0542V9.02881H39.094V5.56714Z" fill="#E8E8E8"/>
<path d="M39.094 9.77059H19.0541C18.6476 9.77059 18.3149 9.43342 18.3149 9.02132V5.55964C18.3149 5.14754 18.6476 4.81036 19.0541 4.81036H39.094C39.5005 4.81036 39.8332 5.14754 39.8332 5.55964V9.02132C39.8332 9.43342 39.5005 9.77059 39.094 9.77059ZM19.7933 8.27204H38.3548V6.30892H19.7933V8.27204Z" fill="#100209"/>
</g>
<defs>
<clipPath id="clip0_1401_40403">
<rect width="57" height="65" fill="white" transform="translate(0.5)"/>
</clipPath>
</defs>
</svg>
