<svg width="464" height="23" viewBox="0 0 464 23" fill="none" xmlns="http://www.w3.org/2000/svg">
<path d="M11.782 10.222C10.132 11.674 7.998 12.752 6.81 13.236C5.182 13.896 3.224 14.358 1.354 12.4C0.804 11.806 0.65 10.882 0.76 9.98C0.892 8.924 1.376 6.834 1.64 5.822H1.618C1.244 5.448 0.892 5.14 0.518 4.48C0.298 4.084 0.474 3.732 1.156 3.622C1.882 3.49 2.542 3.402 3.158 3.314C3.818 3.226 6.7 2.984 7.888 2.918C9.274 2.808 9.78 2.874 9.846 3.314C9.846 3.578 9.714 4.326 9.516 4.656C9.142 5.294 7.844 5.404 6.568 5.558C5.908 5.646 5.182 5.712 4.698 5.778C4.39 6.9 3.73 9.606 3.708 10.816C3.708 11.344 3.884 11.454 4.412 11.432C6.172 11.344 9.582 10.398 11.452 9.562C11.804 9.408 12.222 9.848 11.782 10.222ZM8.482 17.13C9.01 16.272 9.604 15.612 10.462 15.084C11.738 14.292 13.762 14.446 14.972 16.162C15.742 17.262 15.984 18.824 14.884 19.99C13.652 21.266 12.442 21.508 10.682 21.178C8.24 20.716 7.426 18.846 8.482 17.13ZM10.242 18.758C10.132 19.11 10.022 19.66 10.286 19.77C10.836 19.99 12.508 19.308 12.838 18.142C12.992 17.592 12.882 17.174 12.398 16.976C11.848 16.756 11.43 16.954 11.078 17.328C10.682 17.768 10.44 18.186 10.242 18.758ZM12.838 13.302C13.564 8.858 13.652 7.274 13.916 3.996C14.026 2.522 13.652 2.038 14.312 2.016C15.698 1.972 16.666 2.258 16.908 3.116C17.128 3.93 17.062 4.722 16.798 6.724C16.732 7.252 16.82 7.252 17.304 7.186C18.228 7.076 18.954 6.944 19.878 6.812C20.626 6.702 20.362 8.176 19.768 8.462C18.888 8.88 18.25 9.1 16.82 9.672C16.336 9.87 16.27 9.98 16.028 10.618C15.786 11.256 15.522 12.444 15.038 13.874C14.95 14.16 14.268 14.314 13.63 14.16C13.102 14.006 12.728 13.918 12.838 13.302ZM21.6811 15.414C21.1531 15.128 20.9551 14.754 21.2191 14.336C21.8351 13.324 22.1431 12.862 22.7151 11.982C23.6391 10.508 25.6631 7.12 26.3891 5.536C25.6631 5.668 23.7711 6.24 23.1771 6.438C22.6051 6.636 21.9231 6.328 21.1311 5.58C20.6911 5.14 20.3611 4.458 20.9331 4.15C22.5831 3.27 25.9711 2.368 27.7531 2.676C29.4911 3.006 30.3051 4.48 29.3151 6.35L29.1391 6.658C28.7431 8.066 28.6551 8.99 28.6111 9.936C28.5451 11.322 28.8971 11.63 29.9531 11.432C31.2511 11.168 32.7691 10.772 34.0011 10.31C34.2871 10.178 34.3531 10.332 34.1771 10.53C33.3411 11.454 32.3511 12.268 31.4491 12.862C29.2491 14.314 27.2691 13.896 25.9931 11.586C25.0251 12.884 24.0131 14.116 22.9131 15.348C22.6491 15.634 22.2971 15.722 21.6811 15.414ZM30.5471 17.988C30.3491 16.558 30.5031 15.304 30.7231 14.512C30.9211 13.764 31.4491 13.676 32.5271 14.072C33.4951 14.424 34.0891 14.666 33.8691 15.37C33.7371 15.788 33.4291 16.822 33.3851 17.13C33.1431 18.428 33.6491 18.714 35.0131 18.494C36.6191 18.23 37.4991 17.812 38.7751 17.196C38.9731 17.108 39.2371 17.372 38.9951 17.702C38.4451 18.45 37.1911 19.396 35.8711 19.968C33.4071 21.024 30.9211 20.474 30.5471 17.988ZM35.5851 14.424C35.3431 11.63 35.7171 7.956 36.4431 5.052C36.6631 4.172 36.8831 3.226 36.8171 2.302C36.7951 2.082 36.9491 2.016 37.0811 2.016C37.8291 2.016 38.9511 2.346 39.2591 3.16C39.7651 4.48 39.2151 6.02 38.8191 7.406C38.2911 9.298 37.7411 12.07 37.1471 13.918C37.0151 14.358 36.8831 15.04 36.2011 14.974C35.8051 14.93 35.6071 14.754 35.5851 14.424ZM42.9534 17.35C42.7114 17.746 42.3154 17.614 41.4134 17.152C40.7094 16.778 40.4234 16.382 40.6434 15.832C41.2814 14.27 44.2294 8.176 45.5494 5.404C45.7694 4.964 45.9014 4.59 46.1874 4.106C46.4734 3.534 46.6934 3.424 47.3754 3.864C48.6514 4.744 49.2894 5.272 48.4314 7.054C48.3874 7.142 48.3434 7.252 48.2554 7.406C47.9254 9.122 47.9474 10.706 48.1674 12.246C48.3654 13.412 48.7614 14.05 50.0154 13.852C51.3134 13.632 52.3034 13.368 53.6894 12.796C53.9974 12.686 54.0414 12.752 53.9314 12.972C53.3154 13.874 52.3034 14.688 51.3794 15.282C49.2894 16.668 46.4514 15.92 45.1974 13.236C44.3614 14.82 43.5254 16.338 42.9534 17.35ZM54.4154 19.55C54.4154 16.756 54.6574 14.38 55.6914 5.096C55.8014 4.194 55.9114 3.27 55.8454 2.346C55.8234 2.126 55.9774 2.06 56.1094 2.06C56.8574 2.06 58.2214 2.39 58.5294 3.204C59.0354 4.524 58.4414 9.54 57.8034 12.752C57.4294 14.644 56.7914 17.196 56.1974 19.044C56.0654 19.484 55.9334 20.144 55.2514 20.1C54.6354 20.056 54.4154 19.88 54.4154 19.55ZM67.97 19.176C67.53 19.242 66.782 19.418 66.496 18.934C65.638 17.504 65.484 16.888 66.43 16.712C67.838 16.47 70.39 16.228 73.074 16.052C73.074 15.216 73.162 14.38 73.338 13.544C72.59 13.39 71.842 13.082 71.292 12.62C70.698 13.258 69.664 13.676 69.114 13.566C68.74 13.5 68.63 13.17 68.674 12.598C68.872 10.684 69.598 4.854 69.774 3.556C69.818 3.138 71.072 3.204 71.776 3.248C72.326 3.292 72.612 3.292 72.546 3.776C72.458 4.502 72.436 5.118 72.326 6.02C73.096 5.998 77.32 5.866 78.046 5.646C78.134 5.052 78.244 4.326 78.266 3.996C78.332 3.49 78.464 3.314 78.838 3.292C79.3 3.27 80.18 3.27 80.598 3.292C80.928 3.314 81.148 3.292 81.126 3.644C81.082 5.008 81.016 6.504 80.774 8.132C80.444 10.178 80.202 11.366 78.596 12.51C77.98 12.95 76.968 13.302 75.956 13.478C75.78 14.094 75.582 14.886 75.428 15.92C78.002 15.788 80.444 15.722 81.918 15.788C83.15 15.832 83.524 16.118 83.568 16.734C83.59 17.284 83.26 17.35 82.996 17.372C78.926 17.658 72.546 18.362 67.97 19.176ZM71.732 10.75C71.974 11.234 73.47 11.344 74.46 11.344C75.736 11.344 77.034 10.97 77.386 9.936C77.65 9.144 77.76 8.594 77.848 7.956C76.924 8.198 72.964 8.33 72.414 8.352C72.15 8.352 72.084 8.396 72.04 8.616C71.974 9.166 71.82 10.068 71.732 10.75ZM88.6797 15.282C88.2177 15.304 87.8877 14.798 87.7997 14.204C87.6237 13.148 87.8877 11.85 88.9657 10.046C90.1097 8.132 91.0997 7.076 92.3757 5.162C91.8037 5.118 88.1957 5.756 87.2937 6.108C86.4357 6.416 86.2377 6.438 85.6437 5.888C85.2037 5.492 84.8957 5.184 84.8517 4.942C84.7857 4.568 85.4677 4.238 86.3697 3.952C87.5577 3.578 89.5377 3.094 91.0337 2.808C92.8597 2.456 93.6297 2.742 94.8397 3.798C95.1257 4.062 95.4997 4.48 95.5877 4.92C95.6757 5.294 95.5437 5.8 95.3677 6.152C94.9937 6.856 92.3537 9.606 90.1977 12.818C89.5377 13.808 88.7677 15.26 88.6797 15.282ZM94.1357 17.988C93.9377 16.558 94.2017 14.864 94.4217 14.072C94.6197 13.324 95.1477 13.236 96.2257 13.632C97.1937 13.984 97.7877 14.226 97.5677 14.93C97.4357 15.348 97.0177 16.822 96.9737 17.13C96.7317 18.428 97.2377 18.714 98.6017 18.494C100.208 18.23 101.088 17.812 102.364 17.196C102.562 17.108 102.826 17.372 102.584 17.702C102.034 18.45 100.78 19.396 99.4597 19.968C96.9957 21.024 94.5097 20.474 94.1357 17.988ZM94.3997 7.78C96.2257 7.23 98.7777 6.614 100.494 7.12C100.626 6.35 100.758 5.58 100.846 4.81C100.934 4.238 100.868 2.786 100.846 2.5C100.758 1.994 100.978 2.038 101.22 2.038C101.902 2.06 102.826 2.214 103.354 2.5C103.86 2.764 103.838 3.028 103.794 3.908C103.728 6.284 102.496 12.114 101.506 14.952C101.242 15.744 100.802 15.48 100.318 15.348C99.6137 15.194 99.2837 14.952 99.2397 14.6C99.1737 13.808 99.4597 12.158 99.6797 11.146C99.8337 10.442 99.9877 9.76 100.12 9.056C98.4037 9.32 97.5897 9.474 96.2697 9.914C95.2137 10.244 94.9937 9.782 94.6637 9.254C94.0477 8.264 94.1577 7.846 94.3997 7.78ZM107.714 13.126C106.724 12.532 106.35 11.982 106.988 11.278C108.396 9.672 110.266 7.582 111.52 6.262C112.422 5.294 113.61 3.952 114.38 3.138C115.326 2.104 115.722 2.324 116.844 3.666C117.174 4.062 117.218 4.282 116.712 4.854C116.162 5.448 115.26 6.482 114.402 7.428C117.064 8.55 122.608 9.738 122.586 10.222C122.586 10.42 121.552 10.728 121.178 10.816C120.012 11.102 119.264 11.388 117.68 11.454C116.404 11.52 114.644 10.112 113.236 8.748C113.148 8.858 113.082 8.946 112.994 9.034C112.048 10.046 110.222 12.114 109.21 13.126C108.704 13.61 108.506 13.61 107.714 13.126ZM106.262 16.712C107.67 16.47 110.156 16.228 112.796 16.074C112.774 14.754 112.884 13.456 113.192 12.51C113.39 11.938 113.808 11.916 114.49 12.092C115.634 12.4 115.854 12.598 115.634 13.434C115.458 14.094 115.26 14.952 115.128 15.92C117.746 15.788 120.254 15.722 121.75 15.788C122.982 15.832 123.356 16.118 123.4 16.734C123.422 17.284 123.092 17.35 122.828 17.372C118.758 17.658 112.378 18.362 107.802 19.176C107.362 19.242 106.614 19.418 106.328 18.934C105.47 17.504 105.316 16.888 106.262 16.712ZM128.05 11.498C126.862 10.794 126.554 9.452 126.708 8.418C126.994 6.35 128.49 4.81 130.404 3.512C131.042 3.072 132.23 3.248 133.176 3.974C134.496 4.986 135.2 6.438 135.2 7.538C135.2 9.32 134.606 10.156 132.978 11.124C131.372 12.07 129.546 12.4 128.05 11.498ZM124.486 16.25C124.354 15.964 124.442 15.744 124.75 15.7C125.828 15.524 128.204 15.26 129.194 15.128C131.24 14.864 135.596 14.402 138.148 13.984C138.324 11.96 138.632 9.21 139.094 5.096C139.204 4.194 139.314 3.27 139.248 2.346C139.226 2.126 139.38 2.06 139.512 2.06C140.26 2.06 141.624 2.39 141.932 3.204C142.438 4.524 141.844 9.54 141.206 12.752C140.832 14.644 140.194 17.196 139.6 19.044C139.468 19.484 139.336 20.144 138.654 20.1C138.038 20.056 137.818 19.88 137.818 19.55C137.818 18.34 137.862 17.218 137.994 15.59C136.894 16.052 135.046 16.756 134.232 16.91C133.66 16.998 132.758 17.196 132.164 17.284C130.36 17.57 128.314 17.768 126.444 17.9C125.564 17.966 124.86 17.064 124.486 16.25ZM128.798 9.188C128.512 9.782 128.886 10.332 129.37 10.332C130.162 10.332 130.822 10.024 131.526 9.364C132.34 8.594 132.692 7.01 131.9 6.02C131.746 5.844 131.636 5.844 131.46 5.954C130.096 6.966 129.436 7.868 128.798 9.188ZM251.414 8.792C250.468 8.792 249.808 8.726 249.302 8.374C248.554 7.824 248.444 6.812 248.818 5.822C248.29 5.382 248.07 5.008 247.96 4.7C247.894 4.524 247.96 4.37 248.114 4.326C248.488 4.238 249.038 4.15 249.522 4.106C252.58 3.82 254.23 3.776 255.858 3.666C256.122 3.644 256.364 3.622 256.386 3.512C256.408 3.38 256.408 3.16 256.43 3.006C254.648 2.984 252.096 3.182 250.908 3.314C250.512 3.38 250.182 3.336 249.94 2.918C249.742 2.566 249.61 2.324 249.478 1.972C249.412 1.84 249.5 1.664 249.808 1.576C250.402 1.466 251.37 1.334 252.272 1.246C255.066 0.981999 256.078 0.981999 257.266 1.114C258.388 1.246 259.576 1.62 259.576 2.632C259.576 3.138 259.29 3.622 258.784 3.93C259.092 4.172 259.378 4.436 259.554 4.854C259.664 5.14 259.664 5.25 259.246 5.316C258.432 5.448 257.024 5.558 256.826 5.58C254.758 5.712 252.822 5.91 251.436 6.02C251.238 6.042 251.194 6.592 251.238 6.746C252.668 6.702 254.12 6.592 255.902 6.46C256.87 6.394 258.08 6.284 258.762 6.284C259.312 6.284 259.906 6.878 260.148 7.296C260.368 7.648 260.39 7.956 260.016 8.022C258.85 8.242 257.772 8.352 256.452 8.484C254.45 8.66 252.756 8.792 251.414 8.792ZM245.782 10.244C246.42 10.156 247.014 10.112 247.718 10.046C249.478 9.892 258.696 9.32 261.182 9.364C262.282 9.386 262.898 9.518 262.92 10.068C262.942 10.574 262.7 10.684 262.26 10.75C261.028 10.926 251.898 12.07 247.278 12.51C246.838 12.576 246.112 12.708 245.826 12.246C245.012 10.926 244.836 10.376 245.782 10.244ZM248.532 18.45C248.268 17.504 247.96 17.306 249.214 17.02C251.326 16.536 254.758 15.7 255 14.732C254.626 14.842 249.588 15.744 249.39 15.502C249.148 15.172 248.862 14.314 248.752 13.918C248.664 13.61 248.818 13.588 249.104 13.522C250.754 13.236 255.352 12.73 256.034 12.708C256.98 12.686 257.816 12.994 258.608 13.588C259.4 14.204 258.454 14.864 257.97 15.194C257.2 15.722 255.418 16.536 253.922 17.02C255.462 16.91 256.452 16.888 257.75 16.998C258.586 17.064 259.048 17.944 257.904 18.626C256.562 19.396 254.67 19.836 253.614 20.606C253.218 20.892 253.24 21.222 254.142 21.222C255.44 21.222 257.244 20.826 258.872 20.232C259.202 20.1 259.4 20.562 259.07 20.782C257.816 21.574 256.21 22.124 254.868 22.366C253.218 22.652 251.018 22.608 250.424 21.772C249.94 21.09 250.138 20.276 251.282 19.682C252.008 19.308 253.218 18.736 254.384 18.23C252.8 18.428 250.952 18.758 250.006 18.956C248.928 19.176 248.664 19.022 248.532 18.45ZM271.578 14.16C270.544 14.336 269.994 14.468 269.708 13.83C269.554 13.522 269.378 13.126 269.268 12.774C269.158 12.422 269.334 12.268 269.664 12.202C270.346 12.092 271.27 11.938 272.106 11.784C271.842 11.344 271.468 10.596 271.204 9.826C270.83 8.726 271.094 7.934 271.82 6.526C272.128 5.91 272.766 6.13 273.624 6.548C274.218 6.834 274.394 6.988 274.108 7.714C273.602 8.968 273.448 10.354 273.58 11.498C275.186 11.168 275.274 10.882 275.758 10.178C276.286 9.386 276.924 7.406 277.188 5.756C277.21 5.58 277.298 5.514 277.496 5.514C278.068 5.558 278.684 5.844 279.058 6.218C279.652 6.834 279.608 7.604 279.322 8.308C278.97 9.188 278.596 10.002 278.046 10.552C278.75 10.464 279.542 10.354 279.96 10.332C280.664 10.266 280.796 10.574 280.884 11.344C280.994 12.224 280.356 12.4 278.992 12.686C277.958 12.928 273.14 13.896 271.578 14.16ZM269.818 4.876C269.686 4.062 269.73 3.754 269.972 3.688C271.468 3.226 274.614 2.896 276.132 2.72C277.122 2.61 278.398 2.522 279.388 2.522C280.422 2.522 280.84 2.522 280.818 3.644C280.796 4.414 280.576 4.568 279.806 4.656C278.244 4.854 275.45 5.14 274.57 5.25C272.942 5.47 272.458 5.536 270.654 5.756C270.236 5.822 269.95 5.69 269.818 4.876ZM278.772 17.988C278.574 16.558 278.794 15.304 279.014 14.556C279.234 13.808 279.74 13.786 280.84 14.072C281.808 14.314 282.424 14.6 282.182 15.304C282.006 15.832 281.654 16.822 281.61 17.13C281.368 18.428 281.874 18.714 283.238 18.494C284.844 18.23 285.724 17.812 287 17.196C287.198 17.108 287.462 17.372 287.22 17.702C286.67 18.45 285.416 19.396 284.096 19.968C281.632 21.024 279.146 20.474 278.772 17.988ZM280.928 5.954C280.62 4.854 280.642 4.546 280.994 4.458C282.798 4.018 284.316 3.798 285.68 4.942C285.68 4.898 285.702 4.854 285.702 4.81C285.79 4.238 285.724 2.786 285.702 2.5C285.614 1.994 285.834 2.038 286.076 2.038C286.758 2.06 287.682 2.214 288.21 2.5C288.716 2.764 288.694 3.028 288.65 3.908C288.584 6.284 287.352 12.114 286.362 14.952C286.098 15.744 285.658 15.48 285.174 15.348C284.47 15.194 284.14 14.952 284.096 14.6C284.03 13.808 284.316 12.158 284.536 11.146C284.624 10.794 284.69 10.442 284.756 10.09C284.096 10.596 282.798 10.794 281.808 10.838C281.368 10.86 281.06 10.772 280.972 9.848C280.862 8.638 281.06 8.44 281.412 8.418C282.974 8.352 284.58 8.154 285.262 7.67C285.328 7.208 285.416 6.724 285.504 6.262C284.404 6.284 283.282 6.482 282.138 6.724C281.236 6.922 281.148 6.724 280.928 5.954ZM302.801 13.676C300.931 14.996 298.555 16.25 295.849 16.822C294.485 17.13 292.769 17.108 292.043 15.546C291.757 14.93 291.625 13.874 291.603 13.148C291.603 12.84 291.581 12.356 291.537 12.07C291.383 11.894 291.229 11.74 291.053 11.498C290.569 10.838 290.459 10.288 291.427 10.046C293.649 9.496 295.541 9.21 296.465 8.924C297.015 8.748 297.301 8.55 297.499 7.978C297.697 7.428 297.851 6.636 297.939 5.976C296.751 5.998 294.463 6.526 293.341 6.812C292.549 7.032 292.065 6.108 291.801 5.536C291.647 5.206 291.625 5.008 291.801 4.898C292.285 4.59 292.813 4.326 293.407 4.15C294.551 3.798 296.267 3.556 297.455 3.666C298.445 3.732 299.303 4.084 299.941 4.876C300.447 5.492 300.381 6.218 300.271 6.702C300.051 7.604 299.787 8.308 299.369 9.144C299.897 9.43 300.381 10.222 299.853 10.442C299.193 10.728 296.971 11.19 295.607 11.542C294.991 11.696 294.573 11.872 294.441 12.29C294.265 12.818 294.397 13.676 294.617 14.6C296.553 14.424 300.711 13.412 302.427 12.796C302.867 12.642 303.263 13.346 302.801 13.676ZM303.527 19.55C303.527 16.756 303.769 14.38 304.803 5.096C304.913 4.194 305.023 3.27 304.957 2.346C304.935 2.126 305.089 2.06 305.221 2.06C305.969 2.06 307.333 2.39 307.641 3.204C308.147 4.524 307.553 9.54 306.915 12.752C306.541 14.644 305.903 17.196 305.309 19.044C305.177 19.484 305.045 20.144 304.363 20.1C303.747 20.056 303.527 19.88 303.527 19.55ZM320.596 6.306C321.41 6.746 321.454 7.01 320.64 7.582C318.726 8.946 317.23 10.112 316.064 11.542C317.626 11.652 319.034 12.664 318.924 14.182C318.836 15.304 318.242 16.25 316.9 16.822C315.36 17.482 313.468 17.416 312.588 16.25C311.994 15.458 312.082 14.248 312.39 13.28C312.83 11.916 314.502 9.87 315.624 9.056C314.634 9.276 313.006 9.562 311.466 9.738C310.388 9.848 309.838 9.188 309.552 8.176C309.508 7.978 309.464 7.758 309.948 7.648C311.246 7.34 311.422 7.296 312.544 7.054C312.918 6.966 313.094 6.79 313.138 6.394C313.38 4.502 314.062 3.072 314.986 1.708C315.294 1.268 316.064 1.488 316.526 1.708C317.01 1.928 317.736 2.214 317.472 2.962C317.032 4.128 316.372 5.184 315.294 6.504C316.262 6.328 317.23 6.152 318 6.042C318.946 5.91 319.738 5.866 320.596 6.306ZM314.326 15.238C314.326 15.788 314.59 15.876 314.92 15.832C315.558 15.766 316.372 15.062 316.372 14.402C316.372 13.632 315.558 13.214 315.206 13.258C314.876 13.302 314.326 14.512 314.326 15.238ZM321.388 18.89C321.74 16.36 322.048 14.094 322.356 11.256C322.62 8.858 322.818 6.878 323.016 4.656C323.192 2.94 322.356 2.544 323.148 2.346C324.49 1.95 325.524 2.632 325.986 3.622C326.404 4.48 326.272 6.328 326.074 7.538C326.03 7.824 325.986 8.154 325.898 8.528C325.832 8.836 326.008 8.902 326.426 8.836C327.35 8.726 328.34 8.572 329.264 8.44C330.012 8.33 329.748 9.804 329.154 10.09C328.274 10.508 327.372 10.794 325.942 11.322C325.524 11.476 325.326 11.564 325.238 12.026L324.974 13.324C324.666 14.864 324.028 18.032 323.522 19.55C323.412 19.88 322.994 20.1 322.268 19.88C321.608 19.704 321.3 19.594 321.388 18.89ZM333.916 16.844C333.652 16.668 333.476 16.25 333.41 15.81C333.234 14.754 333.542 13.39 334.356 11.586C335.28 9.54 335.896 8.66 336.886 6.966C336.314 6.922 334.444 7.23 332.882 7.78C331.826 8.154 331.54 8.044 331.012 7.428C330.572 6.9 330.352 6.548 330.396 6.35C330.462 6.042 330.836 5.822 331.958 5.404C333.168 4.964 334.158 4.744 335.522 4.568C337.348 4.326 338.118 4.502 339.328 5.558C339.614 5.822 339.988 6.24 340.076 6.68C340.164 7.054 340.054 7.582 339.856 7.912C339.702 8.176 339.328 8.638 338.866 9.276C340.098 9.166 340.604 9.078 341.594 8.836C341.88 8.77 342.056 8.682 342.188 8.506C342.254 8.11 342.342 7.736 342.408 7.384C342.628 6.24 342.848 5.096 343.134 4.018C344.08 3.754 345.18 4.194 345.664 4.81C345.818 4.964 345.884 5.316 345.818 5.558C345.598 6.636 344.894 9.584 344.674 10.794C344.344 12.774 343.86 15.634 343.574 17.152C343.772 17.152 344.102 16.888 343.882 17.196C343.354 17.878 342.276 17.988 341.594 17.152C341.33 16.844 341.11 16.404 341.132 16.008C341.22 14.974 341.462 13.082 341.748 11.146C340.912 11.608 339.658 11.784 338.8 11.85C338.338 11.894 338.052 11.674 337.942 10.574V10.552C337.634 10.97 337.326 11.432 337.018 11.916C336.05 13.434 335.324 14.798 334.642 16.338C334.444 16.778 334.18 17.02 333.916 16.844ZM345.576 18.23C345.576 17.328 346.126 12.73 346.632 9.826C346.984 7.648 347.468 5.514 347.886 3.358C347.974 3.006 347.974 2.676 348.018 2.302C348.612 1.928 349.096 2.016 349.624 2.324C350.196 2.654 350.416 3.116 350.482 3.71C350.548 4.59 350.438 5.58 350.306 6.394C350.086 7.956 349.822 9.54 349.558 11.058C349.206 13.17 348.304 18.186 347.798 19.704C347.732 19.88 347.732 20.1 347.688 20.276C346.918 20.826 346.104 20.628 345.752 19.704C345.598 19.286 345.554 18.736 345.576 18.23ZM359.595 13.852C358.275 13.06 357.923 11.564 358.099 10.398C358.429 8.088 360.101 6.35 362.257 4.898C362.961 4.392 364.281 4.59 365.359 5.404C366.833 6.548 367.625 8.154 367.625 9.408C367.625 11.41 366.965 12.334 365.139 13.412C363.313 14.49 361.267 14.864 359.595 13.852ZM360.365 11.256C360.057 11.938 360.497 12.62 361.069 12.62C361.971 12.62 362.741 12.268 363.533 11.498C364.479 10.618 364.875 8.814 363.973 7.67C363.775 7.45 363.643 7.45 363.401 7.56C361.861 8.726 361.091 9.76 360.365 11.256ZM370.859 19.55C370.859 16.756 371.101 14.38 372.135 5.096C372.245 4.194 372.355 3.27 372.289 2.346C372.267 2.126 372.421 2.06 372.553 2.06C373.301 2.06 374.665 2.39 374.973 3.204C375.479 4.524 374.885 9.54 374.247 12.752C373.873 14.644 373.235 17.196 372.641 19.044C372.509 19.484 372.377 20.144 371.695 20.1C371.079 20.056 370.859 19.88 370.859 19.55ZM384.474 7.274C385.156 7.274 386.168 6.966 386.96 6.438C387.928 5.8 388.39 4.458 387.4 3.71C387.136 3.512 386.74 3.49 386.388 3.644C385.024 4.282 384.034 5.404 383.726 6.284C383.528 6.856 383.748 7.274 384.474 7.274ZM377.588 11.52C378.226 11.432 378.82 11.432 379.524 11.322L381.79 11.168C381.24 10.486 381.24 9.914 381.768 8.638C381.834 8.44 381.9 8.286 381.966 8.154C381.152 7.582 380.954 6.79 381.086 6.02C381.35 4.37 383.066 2.632 385.244 1.664C386.278 1.202 387.62 1.4 388.786 2.038C390.282 2.852 391.074 4.106 391.074 5.03C391.074 6.13 390.59 7.098 389.314 7.802C389.886 7.89 390.304 8.022 390.216 8.462C390.15 8.858 389.952 9.584 389.644 10.2C389.534 10.442 389.38 10.596 389.248 10.706C390.854 10.64 392.24 10.596 392.988 10.64C393.868 10.684 394.726 10.706 394.726 11.366C394.77 12.004 394.33 12.114 394.066 12.158C392.834 12.29 383.704 13.456 379.084 13.896C378.644 13.962 377.918 14.094 377.632 13.632C376.818 12.312 376.642 11.652 377.588 11.52ZM381.218 17.856C381.988 16.338 383.198 15.194 384.518 14.38C385.046 14.072 385.486 14.05 386.124 14.226C387.312 14.556 389.248 15.678 389.556 16.756C389.886 17.966 389.468 18.934 388.038 19.946C387.202 20.54 386.388 20.914 385.53 21.178C384.342 21.552 382.098 21.288 381.24 20.276C380.712 19.638 380.822 18.67 381.218 17.856ZM383.264 19.374C383.176 19.792 383.616 20.078 384.408 19.726C385.112 19.418 385.596 19.066 386.08 18.648C386.674 18.12 386.982 17.702 386.894 17.306C386.806 16.866 386.014 16.382 385.684 16.426C385.178 16.492 384.694 16.91 384.254 17.504C383.726 18.208 383.352 18.934 383.264 19.374ZM383.704 11.036C384.694 10.97 385.794 10.882 386.872 10.838C387.026 10.706 387.092 10.552 387.158 10.332C387.246 10.024 387.4 9.342 387.576 8.484C386.498 8.77 385.31 8.924 384.254 8.858C384.21 8.968 384.166 9.1 384.122 9.254C383.88 10.002 383.77 10.442 383.704 11.036ZM406.856 6.306C407.67 6.746 407.714 7.01 406.9 7.582C404.986 8.946 403.49 10.112 402.324 11.542C403.886 11.652 405.294 12.664 405.184 14.182C405.096 15.304 404.502 16.25 403.16 16.822C401.62 17.482 399.728 17.416 398.848 16.25C398.254 15.458 398.342 14.248 398.65 13.28C399.09 11.916 400.762 9.87 401.884 9.056C400.894 9.276 399.266 9.562 397.726 9.738C396.648 9.848 396.098 9.188 395.812 8.176C395.768 7.978 395.724 7.758 396.208 7.648C397.506 7.34 397.682 7.296 398.804 7.054C399.178 6.966 399.354 6.79 399.398 6.394C399.64 4.502 400.322 3.072 401.246 1.708C401.554 1.268 402.324 1.488 402.786 1.708C403.27 1.928 403.996 2.214 403.732 2.962C403.292 4.128 402.632 5.184 401.554 6.504C402.522 6.328 403.49 6.152 404.26 6.042C405.206 5.91 405.998 5.866 406.856 6.306ZM400.586 15.238C400.586 15.788 400.85 15.876 401.18 15.832C401.818 15.766 402.632 15.062 402.632 14.402C402.632 13.632 401.818 13.214 401.466 13.258C401.136 13.302 400.586 14.512 400.586 15.238ZM407.648 18.89C408 16.36 408.308 14.094 408.616 11.256C408.88 8.858 409.078 6.878 409.276 4.656C409.452 2.94 408.616 2.544 409.408 2.346C410.75 1.95 411.784 2.632 412.246 3.622C412.664 4.48 412.532 6.328 412.334 7.538C412.29 7.824 412.246 8.154 412.158 8.528C412.092 8.836 412.268 8.902 412.686 8.836C413.61 8.726 414.6 8.572 415.524 8.44C416.272 8.33 416.008 9.804 415.414 10.09C414.534 10.508 413.632 10.794 412.202 11.322C411.784 11.476 411.586 11.564 411.498 12.026L411.234 13.324C410.926 14.864 410.288 18.032 409.782 19.55C409.672 19.88 409.254 20.1 408.528 19.88C407.868 19.704 407.56 19.594 407.648 18.89ZM418.459 16.668C418.195 17.13 417.601 16.998 416.765 16.602C416.083 16.294 415.885 15.964 416.061 15.37C416.215 14.644 416.391 14.204 416.611 13.61C417.777 10.64 419.075 7.626 420.329 4.722C420.527 4.26 420.681 3.864 420.923 3.358C421.209 2.742 421.429 2.654 422.067 3.05C423.277 3.798 424.157 3.798 423.409 5.602L423.145 6.262C422.705 8.044 422.573 9.826 422.771 11.762C422.925 13.148 423.343 13.456 424.509 13.126C425.521 12.84 426.049 12.598 427.193 12.048C427.479 11.916 427.545 11.982 427.391 12.202C426.753 13.148 426.137 13.918 425.323 14.644C423.497 16.294 421.143 15.898 420.131 13.324C419.691 14.27 419.075 15.568 418.459 16.668ZM424.465 8.33C426.467 7.604 427.655 7.736 428.491 8.22C428.557 7.934 428.623 7.648 428.667 7.384C428.887 6.24 429.107 5.096 429.393 4.018C430.339 3.754 431.439 4.194 431.923 4.81C432.077 4.964 432.143 5.316 432.077 5.558C431.857 6.636 431.153 9.584 430.933 10.794C430.603 12.774 430.119 15.634 429.833 17.152C430.031 17.152 430.361 16.888 430.141 17.196C429.613 17.878 428.535 17.988 427.853 17.152C427.589 16.844 427.369 16.404 427.391 16.008C427.501 14.732 427.831 12.114 428.227 9.782C426.995 9.848 426.181 10.112 425.609 10.31C424.949 10.508 424.729 10.442 424.509 9.892C424.025 8.66 424.157 8.44 424.465 8.33ZM431.835 18.23C431.835 17.328 432.385 12.73 432.891 9.826C433.243 7.648 433.727 5.514 434.145 3.358C434.233 3.006 434.233 2.676 434.277 2.302C434.871 1.928 435.355 2.016 435.883 2.324C436.455 2.654 436.675 3.116 436.741 3.71C436.807 4.59 436.697 5.58 436.565 6.394C436.345 7.956 436.081 9.54 435.817 11.058C435.465 13.17 434.563 18.186 434.057 19.704C433.991 19.88 433.991 20.1 433.947 20.276C433.177 20.826 432.363 20.628 432.011 19.704C431.857 19.286 431.813 18.736 431.835 18.23ZM443.963 10.948C442.665 10.266 442.335 9.166 442.489 8.044C442.753 6.02 444.469 4.04 446.647 2.874C447.681 2.302 449.023 2.544 450.189 3.314C451.685 4.304 452.477 5.844 452.477 6.966C452.477 8.55 451.795 9.738 449.969 10.64C448.143 11.52 445.569 11.784 443.963 10.948ZM438.991 16.712C439.827 16.558 441.081 16.426 442.511 16.294C442.203 15.216 442.203 13.984 442.599 12.356C442.775 11.608 443.105 11.542 443.523 11.63C443.809 11.696 444.249 11.828 444.513 11.916C445.217 12.18 445.217 12.466 444.953 13.17C444.623 14.05 444.403 14.886 444.183 16.162C445.393 16.074 446.713 15.986 447.967 15.92C447.857 14.468 448.033 13.434 448.495 11.982C448.693 11.366 449.155 11.432 449.683 11.564C451.223 11.982 451.135 12.158 450.717 13.456C450.497 14.116 450.321 14.952 450.145 15.832C451.883 15.766 453.445 15.744 454.479 15.788C455.711 15.832 456.085 16.118 456.129 16.734C456.151 17.284 455.821 17.35 455.557 17.372C451.487 17.658 445.107 18.362 440.531 19.176C440.091 19.242 439.343 19.418 439.057 18.934C438.199 17.504 438.045 16.888 438.991 16.712ZM444.799 8.616C444.535 9.298 444.755 9.826 445.547 9.826C446.449 9.826 447.571 9.54 448.363 8.836C449.309 8.044 449.793 6.35 448.803 5.36C448.561 5.14 448.143 5.096 447.791 5.272C446.427 6.042 445.327 7.274 444.799 8.616ZM459.942 14.226C459.48 14.314 459.216 14.116 459.062 13.742C458.864 13.236 458.732 12.62 458.688 11.85C458.622 10.838 458.754 10.024 459.106 8.396C459.392 6.988 460.03 4.92 460.492 3.534C460.69 2.94 460.976 2.896 461.548 3.05C461.856 3.138 462.23 3.27 462.494 3.38C463.242 3.688 463.352 4.084 463.176 4.854C463 5.536 462.516 6.856 462.296 7.538C462.12 8.044 461.196 10.882 460.778 12.466C460.712 12.774 460.69 13.17 460.69 13.522C460.69 13.962 460.36 14.16 459.942 14.226ZM457.632 18.824C457.742 18.054 457.874 17.306 458.094 16.668C458.138 16.47 458.468 16.25 458.732 16.184C459.546 16.008 460.162 16.052 460.822 16.602C460.91 16.69 460.932 16.8 460.888 16.91C460.404 18.032 460.272 18.362 459.766 19.572C459.612 19.968 459.26 20.034 458.842 20.056C458.38 20.078 458.072 20.078 457.83 19.748C457.632 19.506 457.588 19.132 457.632 18.824Z" fill="#444444"/>
<path d="M151.614 12.18C150.734 11.63 150.47 10.948 151.02 10.596C152.384 9.782 153.99 8.858 155.046 8.22C157.07 7.054 158.742 5.866 159.798 5.008C159.138 4.92 157.884 4.986 157.048 5.096C155.948 5.228 154.672 5.382 153.594 5.624C153.11 5.734 152.714 5.646 152.406 5.228C152.186 4.964 151.856 4.458 151.68 4.172C151.35 3.688 151.438 3.248 152.01 3.116C153.55 2.72 158.302 2.126 160.546 2.588C162.174 2.918 162.878 3.336 163.01 4.326C163.142 5.25 162.196 6.394 161.228 7.252C160.744 7.67 160.04 8.264 159.424 8.682C161.8 9.188 166.442 9.408 166.442 9.694C166.442 9.892 165.87 10.266 165.518 10.398C164.396 10.904 163.45 11.278 161.492 11.652C160.172 11.916 158.632 10.926 157.73 9.584C156.85 10.222 154.276 11.674 153.594 12.026C152.648 12.51 152.098 12.51 151.614 12.18ZM149.81 14.292C153 13.742 161.932 13.236 165.364 13.368C166.596 13.412 166.948 13.566 166.97 14.292C166.992 14.754 166.772 14.908 166.398 14.952C164.528 15.128 162.13 15.348 159.644 15.59C159.094 18.516 158.918 19.022 158.544 20.298C158.456 20.584 158.082 20.782 157.378 20.76C156.784 20.716 156.388 20.716 156.41 20.188C156.498 18.582 156.586 17.328 156.696 15.92C154.782 16.14 152.912 16.382 151.284 16.69C150.712 16.8 150.14 16.888 149.876 16.404C149.084 14.93 148.864 14.468 149.81 14.292ZM173.732 10.948C172.434 10.266 172.104 9.166 172.258 8.044C172.522 6.02 174.238 4.04 176.416 2.874C177.45 2.302 178.792 2.544 179.958 3.314C181.454 4.304 182.246 5.844 182.246 6.966C182.246 8.55 181.564 9.738 179.738 10.64C177.912 11.52 175.338 11.784 173.732 10.948ZM168.76 16.712C169.596 16.558 170.85 16.426 172.28 16.294C171.972 15.216 171.972 13.984 172.368 12.356C172.544 11.608 172.874 11.542 173.292 11.63C173.578 11.696 174.018 11.828 174.282 11.916C174.986 12.18 174.986 12.466 174.722 13.17C174.392 14.05 174.172 14.886 173.952 16.162C175.162 16.074 176.482 15.986 177.736 15.92C177.626 14.468 177.802 13.434 178.264 11.982C178.462 11.366 178.924 11.432 179.452 11.564C180.992 11.982 180.904 12.158 180.486 13.456C180.266 14.116 180.09 14.952 179.914 15.832C181.652 15.766 183.214 15.744 184.248 15.788C185.48 15.832 185.854 16.118 185.898 16.734C185.92 17.284 185.59 17.35 185.326 17.372C181.256 17.658 174.876 18.362 170.3 19.176C169.86 19.242 169.112 19.418 168.826 18.934C167.968 17.504 167.814 16.888 168.76 16.712ZM174.568 8.616C174.304 9.298 174.524 9.826 175.316 9.826C176.218 9.826 177.34 9.54 178.132 8.836C179.078 8.044 179.562 6.35 178.572 5.36C178.33 5.14 177.912 5.096 177.56 5.272C176.196 6.042 175.096 7.274 174.568 8.616ZM188.854 17.35C188.634 17.746 188.106 17.614 187.248 17.152C186.588 16.778 186.324 16.382 186.522 15.832C187.138 14.27 189.91 8.176 191.164 5.404C191.362 4.964 191.494 4.59 191.758 4.106C192.022 3.534 192.242 3.424 192.88 3.864C194.09 4.744 194.838 5.272 194.024 7.054L193.848 7.428C193.518 9.122 193.43 10.706 193.628 12.246C193.804 13.412 194.178 14.05 195.366 13.852C196.598 13.632 197.522 13.368 198.842 12.796C199.128 12.686 199.172 12.752 199.062 12.972C198.49 13.874 197.522 14.688 196.664 15.282C194.684 16.668 192.132 15.92 190.966 13.236C190.174 14.82 189.382 16.36 188.854 17.35ZM195.828 8.528C198.006 7.582 200.492 7.274 201.702 8.154C201.878 6.438 202.142 3.468 202.164 2.5C202.186 1.994 202.318 2.038 202.56 2.038C203.242 2.104 204.056 2.302 204.562 2.588C205.068 2.896 205.024 3.138 204.958 4.018C204.804 6.394 203.594 16.58 202.604 19.352C202.318 20.144 201.856 19.88 201.394 19.726C200.69 19.528 200.36 19.286 200.338 18.934C200.316 18.164 200.976 14.226 201.526 9.584C199.964 9.694 198.622 10.024 197.412 10.464C196.51 10.794 196.29 10.618 196.004 9.98C195.542 8.946 195.52 8.66 195.828 8.528ZM220.96 20.1C220.344 20.056 220.124 19.88 220.124 19.55C220.124 16.756 220.366 14.38 221.4 5.096C221.51 4.194 221.62 3.27 221.554 2.346C221.532 2.126 221.686 2.06 221.818 2.06C222.566 2.06 223.93 2.39 224.238 3.204C224.744 4.524 224.15 9.54 223.512 12.752C223.138 14.644 222.5 17.196 221.906 19.044C221.774 19.484 221.642 20.144 220.96 20.1ZM207.298 15.26C207.65 12.554 208.156 7.428 208.332 5.382C208.354 5.118 208.376 4.678 208.42 4.414C208.442 3.996 209.938 3.864 210.422 3.842C210.972 3.82 211.082 3.864 211.104 4.37C211.104 5.624 211.016 7.142 210.906 8.396C211.676 8.374 213.59 8.176 214.316 7.89C214.47 6.856 214.58 4.832 214.58 4.502C214.602 4.062 214.668 3.908 215.042 3.798C215.526 3.666 216.538 3.622 216.956 3.6C217.286 3.578 217.506 3.6 217.484 3.952C217.44 5.756 217.374 7.67 217.066 10.266C216.78 12.708 216.34 14.974 214.646 16.404C213.678 17.218 212.116 17.328 211.236 17.13C210.51 16.954 209.608 16.184 209.432 15.7C208.442 16.448 207.122 16.734 207.298 15.26ZM210.312 13.984C210.246 14.732 210.642 14.908 211.61 14.864C212.578 14.82 213.216 14.556 213.546 13.544C213.876 12.51 213.986 11.432 214.052 10.266C213.15 10.508 211.566 10.64 211.016 10.662C210.752 10.662 210.642 10.75 210.62 10.97C210.532 11.674 210.378 13.324 210.312 13.984ZM228.306 13.126C227.316 12.532 226.942 11.982 227.58 11.278C228.988 9.672 230.858 7.582 232.112 6.262C233.014 5.294 234.202 3.952 234.972 3.138C235.918 2.104 236.314 2.324 237.436 3.666C237.766 4.062 237.81 4.282 237.304 4.854C236.754 5.448 235.852 6.482 234.994 7.428C237.656 8.55 243.2 9.738 243.178 10.222C243.178 10.42 242.144 10.728 241.77 10.816C240.604 11.102 239.856 11.388 238.272 11.454C236.996 11.52 235.236 10.112 233.828 8.748C233.74 8.858 233.674 8.946 233.586 9.034C232.64 10.046 230.814 12.114 229.802 13.126C229.296 13.61 229.098 13.61 228.306 13.126ZM226.854 16.712C230.044 16.162 238.91 15.656 242.342 15.788C243.574 15.832 243.948 16.118 243.992 16.734C244.014 17.284 243.684 17.35 243.42 17.372C239.35 17.658 232.97 18.362 228.394 19.176C227.954 19.242 227.206 19.418 226.92 18.934C226.062 17.504 225.908 16.888 226.854 16.712Z" fill="#104C9C"/>
</svg>
