<svg width="344" height="24" viewBox="0 0 344 24" fill="none" xmlns="http://www.w3.org/2000/svg">
<path d="M6.984 10.736C5.568 9.992 5.208 8.792 5.376 7.568C5.664 5.36 7.536 3.2 9.912 1.928C11.04 1.304 12.504 1.568 13.776 2.408C15.408 3.488 16.272 5.168 16.272 6.392C16.272 8.12 15.528 9.416 13.536 10.4C11.544 11.36 8.736 11.648 6.984 10.736ZM1.536 14.144C5.016 13.544 14.736 12.992 18.48 13.136C19.824 13.184 20.208 13.352 20.232 14.144C20.256 14.648 20.016 14.816 19.608 14.864C17.616 15.056 15.096 15.272 12.456 15.536C11.688 19.616 11.52 20.384 11.064 21.896C10.968 22.208 10.56 22.424 9.792 22.4C9.144 22.352 8.712 22.352 8.736 21.776C8.856 19.712 8.976 17.84 9.12 15.896C6.984 16.16 4.92 16.424 3.144 16.76C2.52 16.88 1.896 16.976 1.608 16.448C0.744 14.84 0.504 14.336 1.536 14.144ZM7.896 8.192C7.608 8.936 7.848 9.512 8.712 9.512C9.696 9.512 10.92 9.2 11.784 8.432C12.816 7.568 13.344 5.72 12.264 4.64C12 4.4 11.544 4.352 11.16 4.544C9.672 5.384 8.472 6.728 7.896 8.192ZM35.169 14.192C33.129 15.632 30.537 17 27.585 17.624C26.097 17.96 24.225 17.936 23.433 16.232C23.121 15.56 22.977 14.408 22.953 13.616C22.953 13.28 22.929 12.752 22.881 12.44C22.713 12.248 22.545 12.08 22.353 11.816C21.825 11.096 21.705 10.496 22.761 10.232C25.185 9.632 27.249 9.32 28.257 9.008C28.857 8.816 29.169 8.6 29.385 7.976C29.601 7.376 29.769 6.512 29.865 5.792C28.569 5.816 26.073 6.392 24.849 6.704C23.985 6.944 23.457 5.936 23.169 5.312C23.001 4.952 22.977 4.736 23.169 4.616C23.697 4.28 24.273 3.992 24.921 3.8C26.169 3.416 28.041 3.152 29.337 3.272C30.417 3.344 31.353 3.728 32.049 4.592C32.601 5.264 32.529 6.056 32.409 6.584C32.169 7.568 31.881 8.336 31.425 9.248C32.001 9.56 32.529 10.424 31.953 10.664C31.233 10.976 28.809 11.48 27.321 11.864C26.649 12.032 26.193 12.224 26.049 12.68C25.857 13.256 26.001 14.192 26.241 15.2C28.353 15.008 32.889 13.904 34.761 13.232C35.241 13.064 35.673 13.832 35.169 14.192ZM35.961 20.6C35.961 17.552 36.225 14.96 37.353 4.832C37.473 3.848 37.593 2.84 37.521 1.832C37.497 1.592 37.665 1.52 37.809 1.52C38.625 1.52 40.113 1.88 40.449 2.768C41.001 4.208 40.353 9.68 39.657 13.184C39.249 15.248 38.553 18.032 37.905 20.048C37.761 20.528 37.617 21.248 36.873 21.2C36.201 21.152 35.961 20.96 35.961 20.6ZM64.7158 6.608C63.3718 7.376 61.5478 8.048 59.8678 8.504C59.7478 8.96 59.5798 9.608 59.3878 10.544C59.3398 10.832 59.3398 10.904 59.5558 10.952C62.3158 10.784 64.8118 10.712 65.8678 10.76C66.8278 10.808 67.7638 10.832 67.7638 11.552C67.8118 12.248 67.3318 12.368 67.0438 12.416C65.6998 12.56 55.7398 13.592 50.6998 14.312C50.2198 14.384 49.4278 14.528 49.1158 14.024C48.2278 12.584 48.0358 11.864 49.0678 11.72C50.0278 11.6 52.9078 11.36 56.0518 11.144C56.4838 11 56.5558 10.88 56.6278 10.496C56.6758 10.28 56.7478 9.776 56.8438 9.176C55.4998 9.392 54.1078 9.416 52.8358 8.552C51.9238 7.928 51.5158 7.352 51.5158 6.68C51.5158 5.936 51.8518 5.168 52.2598 4.568C51.3958 4.28 51.0598 3.848 50.8678 2.888C50.7238 2.144 50.8678 1.952 51.4918 1.904C52.0918 1.856 52.7158 1.808 53.3398 1.784C56.3158 1.568 59.7478 1.4 61.5718 1.376C63.1318 1.4 63.9478 1.136 64.6918 2.864C64.9558 3.512 64.6918 3.752 63.7078 3.776C61.2838 3.848 58.2598 3.992 55.9078 4.232H55.7878C55.2358 5.048 55.0918 5.696 54.9958 6.128C54.8758 6.704 55.2118 6.776 55.7878 6.776C57.7078 6.8 62.3638 6.272 64.3558 5.912C65.0518 5.792 65.2678 6.296 64.7158 6.608ZM53.0278 18.752C53.8678 17.096 55.1878 15.848 56.6278 14.96C57.2038 14.624 57.6838 14.6 58.3798 14.792C59.6758 15.152 61.7878 16.376 62.1238 17.552C62.4838 18.872 62.0278 19.928 60.4678 21.032C59.5558 21.68 58.6678 22.088 57.7318 22.376C56.4358 22.784 53.9878 22.496 53.0518 21.392C52.4758 20.696 52.5958 19.64 53.0278 18.752ZM55.2598 20.408C55.1638 20.864 55.6438 21.176 56.5078 20.792C57.2758 20.456 57.8038 20.072 58.3318 19.616C58.9798 19.04 59.3158 18.584 59.2198 18.152C59.1238 17.672 58.2598 17.144 57.8998 17.192C57.3478 17.264 56.8198 17.72 56.3398 18.368C55.7638 19.136 55.3558 19.928 55.2598 20.408ZM75.2122 16.232C72.0683 17.288 70.3403 16.448 70.0523 13.76C69.7643 11.24 70.9163 5.792 71.2283 4.688C71.4683 3.872 71.8523 3.92 73.0043 4.16C74.0363 4.376 74.4922 4.616 74.2523 5.408C74.0363 6.248 73.3163 10.496 73.2443 12.272C73.1963 13.712 73.4363 13.928 74.6843 13.904C76.1963 13.88 78.0203 13.544 79.1963 13.28C79.5323 13.208 79.7963 13.16 79.8923 13.304C79.9883 13.448 79.9403 13.664 79.6043 13.928C78.4763 14.792 77.0123 15.632 75.2122 16.232ZM76.6283 9.584C76.5323 8.552 76.6283 8.264 77.0123 8.24C78.6203 8.096 79.8923 8 81.1163 7.688C81.6203 7.568 81.9563 7.4 82.1003 6.92C82.2923 5.816 82.5083 4.616 82.7003 3.656C83.7323 3.416 85.0523 3.728 85.3403 4.472C85.5083 4.904 85.5803 5.264 85.5083 5.528C85.2683 6.704 84.6923 9.488 84.4043 11.048C84.0203 13.112 83.5643 15.848 83.3243 17.576C83.3003 17.696 83.2283 17.84 83.5883 17.72C83.6843 17.672 83.6843 17.888 83.5643 18.032C82.9643 18.752 81.8363 18.896 81.0923 17.984C80.8043 17.648 80.5403 17.168 80.5883 16.736C80.7323 15.272 81.1883 12.44 81.5963 9.872C80.7323 10.592 78.6683 10.88 77.5163 10.976C77.0123 11.024 76.7483 10.784 76.6283 9.584ZM85.6763 19.4C85.6763 18.416 86.3483 13.4 86.9003 10.232C87.2843 7.856 87.6923 5.528 88.1483 3.176C88.2443 2.792 88.2443 2.432 88.2923 2.024C88.9403 1.616 89.3963 1.712 89.9723 2.048C90.5963 2.408 90.8363 2.912 90.9083 3.56C90.9803 4.52 90.8603 5.6 90.7163 6.488C90.4763 8.192 90.1883 9.92 89.9003 11.576C89.5163 13.88 88.5323 19.352 87.9803 21.008C87.9083 21.2 87.9083 21.44 87.8603 21.632C87.0203 22.232 86.2523 22.016 85.8683 21.008C85.7003 20.552 85.6523 19.952 85.6763 19.4ZM101.162 20.192C100.682 20.264 99.8659 20.456 99.5539 19.928C98.6179 18.368 98.4499 17.696 99.4819 17.504C101.018 17.24 103.802 16.976 106.73 16.784C106.73 15.872 106.826 14.96 107.018 14.048C106.202 13.88 105.386 13.544 104.786 13.04C104.138 13.736 103.01 14.192 102.41 14.072C102.002 14 101.882 13.64 101.93 13.016C102.146 10.928 102.938 4.568 103.13 3.152C103.178 2.696 104.546 2.768 105.314 2.816C105.914 2.864 106.226 2.864 106.154 3.392C106.058 4.184 106.034 4.856 105.914 5.84C106.754 5.816 111.362 5.672 112.154 5.432C112.25 4.784 112.37 3.992 112.394 3.632C112.466 3.08 112.61 2.888 113.018 2.864C113.522 2.84 114.482 2.84 114.938 2.864C115.298 2.888 115.538 2.864 115.514 3.248C115.466 4.736 115.394 6.368 115.13 8.144C114.77 10.376 114.506 11.672 112.754 12.92C112.082 13.4 110.978 13.784 109.874 13.976C109.682 14.648 109.466 15.512 109.298 16.64C112.106 16.496 114.77 16.424 116.378 16.496C117.722 16.544 118.13 16.856 118.178 17.528C118.202 18.128 117.842 18.2 117.554 18.224C113.114 18.536 106.154 19.304 101.162 20.192ZM105.266 11C105.53 11.528 107.162 11.648 108.242 11.648C109.634 11.648 111.05 11.24 111.434 10.112C111.722 9.248 111.842 8.648 111.938 7.952C110.93 8.216 106.61 8.36 106.01 8.384C105.722 8.384 105.65 8.432 105.602 8.672C105.53 9.272 105.362 10.256 105.266 11ZM123.754 15.944C123.25 15.968 122.89 15.416 122.794 14.768C122.602 13.616 122.89 12.2 124.066 10.232C125.314 8.144 126.394 6.992 127.786 4.904C127.162 4.856 123.226 5.552 122.242 5.936C121.306 6.272 121.09 6.296 120.442 5.696C119.962 5.264 119.626 4.928 119.578 4.664C119.506 4.256 120.25 3.896 121.234 3.584C122.53 3.176 124.69 2.648 126.322 2.336C128.314 1.952 129.154 2.264 130.474 3.416C130.786 3.704 131.194 4.16 131.29 4.64C131.386 5.048 131.242 5.6 131.05 5.984C130.642 6.752 127.762 9.752 125.41 13.256C124.69 14.336 123.85 15.92 123.754 15.944ZM129.706 18.896C129.49 17.336 129.778 15.488 130.018 14.624C130.234 13.808 130.81 13.712 131.986 14.144C133.042 14.528 133.69 14.792 133.45 15.56C133.306 16.016 132.85 17.624 132.802 17.96C132.538 19.376 133.09 19.688 134.578 19.448C136.33 19.16 137.29 18.704 138.682 18.032C138.898 17.936 139.186 18.224 138.922 18.584C138.322 19.4 136.954 20.432 135.514 21.056C132.826 22.208 130.114 21.608 129.706 18.896ZM129.994 7.76C131.986 7.16 134.77 6.488 136.642 7.04C136.786 6.2 136.93 5.36 137.026 4.52C137.122 3.896 137.05 2.312 137.026 2C136.93 1.448 137.17 1.496 137.434 1.496C138.178 1.52 139.186 1.688 139.762 2C140.314 2.288 140.29 2.576 140.242 3.536C140.17 6.128 138.826 12.488 137.746 15.584C137.458 16.448 136.978 16.16 136.45 16.016C135.682 15.848 135.322 15.584 135.274 15.2C135.202 14.336 135.514 12.536 135.754 11.432C135.922 10.664 136.09 9.92 136.234 9.152C134.362 9.44 133.474 9.608 132.034 10.088C130.882 10.448 130.642 9.944 130.282 9.368C129.61 8.288 129.73 7.832 129.994 7.76ZM144.519 13.592C143.439 12.944 143.031 12.344 143.727 11.576C145.263 9.824 147.303 7.544 148.671 6.104C149.655 5.048 150.951 3.584 151.791 2.696C152.823 1.568 153.255 1.808 154.479 3.272C154.839 3.704 154.887 3.944 154.335 4.568C153.735 5.216 152.751 6.344 151.815 7.376C154.719 8.6 160.767 9.896 160.743 10.424C160.743 10.64 159.615 10.976 159.207 11.072C157.935 11.384 157.119 11.696 155.391 11.768C153.999 11.84 152.079 10.304 150.543 8.816C150.447 8.936 150.375 9.032 150.279 9.128C149.247 10.232 147.255 12.488 146.151 13.592C145.599 14.12 145.383 14.12 144.519 13.592ZM142.935 17.504C144.471 17.24 147.183 16.976 150.063 16.808C150.039 15.368 150.159 13.952 150.495 12.92C150.711 12.296 151.167 12.272 151.911 12.464C153.159 12.8 153.399 13.016 153.159 13.928C152.967 14.648 152.751 15.584 152.607 16.64C155.463 16.496 158.199 16.424 159.831 16.496C161.175 16.544 161.583 16.856 161.631 17.528C161.655 18.128 161.295 18.2 161.007 18.224C156.567 18.536 149.607 19.304 144.615 20.192C144.135 20.264 143.319 20.456 143.007 19.928C142.071 18.368 141.903 17.696 142.935 17.504ZM164.111 23.216C163.295 23 163.319 22.664 163.391 22.184C163.631 20.744 164.207 17.408 164.447 16.784C164.519 16.568 164.759 16.424 164.999 16.448C165.743 16.52 166.487 16.664 167.183 17C167.711 17.264 167.855 17.552 167.711 17.912C167.399 18.752 166.175 21.32 165.743 22.136L165.359 22.856C165.167 23.24 165.047 23.456 164.111 23.216ZM254.111 14.384C252.671 13.52 252.287 11.888 252.479 10.616C252.839 8.096 254.663 6.2 257.015 4.616C257.783 4.064 259.223 4.28 260.399 5.168C262.007 6.416 262.871 8.168 262.871 9.536C262.871 11.72 262.151 12.728 260.159 13.904C258.167 15.08 255.935 15.488 254.111 14.384ZM254.951 11.552C254.615 12.296 255.095 13.04 255.719 13.04C256.703 13.04 257.543 12.656 258.407 11.816C259.439 10.856 259.871 8.888 258.887 7.64C258.671 7.4 258.527 7.4 258.263 7.52C256.583 8.792 255.743 9.92 254.951 11.552ZM266.399 20.6C266.399 17.552 266.663 14.96 267.791 4.832C267.911 3.848 268.031 2.84 267.959 1.832C267.935 1.592 268.103 1.52 268.247 1.52C269.063 1.52 270.551 1.88 270.887 2.768C271.439 4.208 270.791 9.68 270.095 13.184C269.687 15.248 268.991 18.032 268.343 20.048C268.199 20.528 268.055 21.248 267.311 21.2C266.639 21.152 266.399 20.96 266.399 20.6ZM281.252 7.208C281.996 7.208 283.1 6.872 283.964 6.296C285.02 5.6 285.524 4.136 284.444 3.32C284.156 3.104 283.724 3.08 283.34 3.248C281.852 3.944 280.772 5.168 280.436 6.128C280.22 6.752 280.46 7.208 281.252 7.208ZM273.74 11.84C274.436 11.744 275.084 11.744 275.852 11.624L278.324 11.456C277.724 10.712 277.724 10.088 278.3 8.696C278.372 8.48 278.444 8.312 278.516 8.168C277.628 7.544 277.412 6.68 277.556 5.84C277.844 4.04 279.716 2.144 282.092 1.088C283.22 0.584 284.684 0.8 285.956 1.496C287.588 2.384 288.452 3.752 288.452 4.76C288.452 5.96 287.924 7.016 286.532 7.784C287.156 7.88 287.612 8.024 287.516 8.504C287.444 8.936 287.228 9.728 286.892 10.4C286.772 10.664 286.604 10.832 286.46 10.952C288.212 10.88 289.724 10.832 290.54 10.88C291.5 10.928 292.436 10.952 292.436 11.672C292.484 12.368 292.004 12.488 291.716 12.536C290.372 12.68 280.412 13.952 275.372 14.432C274.892 14.504 274.1 14.648 273.788 14.144C272.9 12.704 272.708 11.984 273.74 11.84ZM277.7 18.752C278.54 17.096 279.86 15.848 281.3 14.96C281.876 14.624 282.356 14.6 283.052 14.792C284.348 15.152 286.46 16.376 286.796 17.552C287.156 18.872 286.7 19.928 285.14 21.032C284.228 21.68 283.34 22.088 282.404 22.376C281.108 22.784 278.66 22.496 277.724 21.392C277.148 20.696 277.268 19.64 277.7 18.752ZM279.932 20.408C279.836 20.864 280.316 21.176 281.18 20.792C281.948 20.456 282.476 20.072 283.004 19.616C283.652 19.04 283.988 18.584 283.892 18.152C283.796 17.672 282.932 17.144 282.572 17.192C282.02 17.264 281.492 17.72 281.012 18.368C280.436 19.136 280.028 19.928 279.932 20.408ZM280.412 11.312C281.492 11.24 282.692 11.144 283.868 11.096C284.036 10.952 284.108 10.784 284.18 10.544C284.276 10.208 284.444 9.464 284.636 8.528C283.46 8.84 282.164 9.008 281.012 8.936C280.964 9.056 280.916 9.2 280.868 9.368C280.604 10.184 280.484 10.664 280.412 11.312ZM305.668 6.152C306.556 6.632 306.604 6.92 305.716 7.544C303.628 9.032 301.996 10.304 300.724 11.864C302.428 11.984 303.964 13.088 303.844 14.744C303.748 15.968 303.1 17 301.636 17.624C299.956 18.344 297.892 18.272 296.932 17C296.284 16.136 296.38 14.816 296.716 13.76C297.196 12.272 299.02 10.04 300.244 9.152C299.164 9.392 297.388 9.704 295.708 9.896C294.532 10.016 293.932 9.296 293.62 8.192C293.572 7.976 293.524 7.736 294.052 7.616C295.468 7.28 295.66 7.232 296.884 6.968C297.292 6.872 297.484 6.68 297.532 6.248C297.796 4.184 298.54 2.624 299.548 1.136C299.884 0.655999 300.724 0.895998 301.228 1.136C301.756 1.376 302.548 1.688 302.26 2.504C301.78 3.776 301.06 4.928 299.884 6.368C300.94 6.176 301.996 5.984 302.836 5.864C303.868 5.72 304.732 5.672 305.668 6.152ZM298.828 15.896C298.828 16.496 299.116 16.592 299.476 16.544C300.172 16.472 301.06 15.704 301.06 14.984C301.06 14.144 300.172 13.688 299.788 13.736C299.428 13.784 298.828 15.104 298.828 15.896ZM306.532 19.88C306.916 17.12 307.252 14.648 307.588 11.552C307.876 8.936 308.092 6.776 308.308 4.352C308.5 2.48 307.588 2.048 308.452 1.832C309.916 1.4 311.044 2.144 311.548 3.224C312.004 4.16 311.86 6.176 311.644 7.496C311.596 7.808 311.548 8.168 311.452 8.576C311.38 8.912 311.572 8.984 312.028 8.912C313.036 8.792 314.116 8.624 315.124 8.48C315.94 8.36 315.652 9.968 315.004 10.28C314.044 10.736 313.06 11.048 311.5 11.624C311.044 11.792 310.828 11.888 310.732 12.392L310.444 13.808C310.108 15.488 309.412 18.944 308.86 20.6C308.74 20.96 308.284 21.2 307.492 20.96C306.772 20.768 306.436 20.648 306.532 19.88ZM321.062 17.624C320.558 17.648 320.198 17.096 320.102 16.448C319.91 15.296 320.27 13.88 321.374 11.912C322.55 9.824 323.438 8.528 324.878 6.44C323.534 6.464 320.054 7.52 319.07 7.88C318.134 8.216 317.918 7.976 317.27 7.376C316.79 6.944 316.43 6.656 316.382 6.344C316.334 5.936 317.078 5.696 318.062 5.336C319.358 4.856 321.974 4.256 323.462 4.016C325.454 3.704 326.294 3.944 327.614 5.096C327.926 5.384 328.334 5.84 328.43 6.32C328.526 6.728 328.382 7.28 328.19 7.664C327.782 8.432 324.974 11.432 322.718 14.936C322.022 16.016 321.158 17.6 321.062 17.624ZM330.734 20.6C330.734 17.552 330.998 14.96 332.126 4.832C332.246 3.848 332.366 2.84 332.294 1.832C332.27 1.592 332.438 1.52 332.582 1.52C333.398 1.52 334.886 1.88 335.222 2.768C335.774 4.208 335.126 9.68 334.43 13.184C334.022 15.248 333.326 18.032 332.678 20.048C332.534 20.528 332.39 21.248 331.646 21.2C330.974 21.152 330.734 20.96 330.734 20.6ZM340.284 14.792C339.78 14.888 339.492 14.672 339.324 14.264C339.108 13.712 338.964 13.04 338.916 12.2C338.844 11.096 338.988 10.208 339.372 8.432C339.684 6.896 340.38 4.64 340.884 3.128C341.1 2.48 341.412 2.432 342.036 2.6C342.372 2.696 342.78 2.84 343.068 2.96C343.884 3.296 344.004 3.728 343.812 4.568C343.62 5.312 343.092 6.752 342.852 7.496C342.66 8.048 341.652 11.144 341.196 12.872C341.124 13.208 341.1 13.64 341.1 14.024C341.1 14.504 340.74 14.72 340.284 14.792ZM337.764 19.808C337.884 18.968 338.028 18.152 338.268 17.456C338.316 17.24 338.676 17 338.964 16.928C339.852 16.736 340.524 16.784 341.244 17.384C341.34 17.48 341.364 17.6 341.316 17.72C340.788 18.944 340.644 19.304 340.092 20.624C339.924 21.056 339.54 21.128 339.084 21.152C338.58 21.176 338.244 21.176 337.98 20.816C337.764 20.552 337.716 20.144 337.764 19.808Z" fill="#444444"/>
<path d="M191.576 23.144C190.352 23.432 188.792 23.408 188.12 22.592C187.472 21.8 187.904 20.84 188.672 19.928C189.032 19.496 189.344 19.184 189.896 18.608L187.64 19.208C186.824 19.424 186.632 19.352 186.464 18.752C186.248 17.936 186.008 17.456 186.944 16.976C188.216 16.328 189.368 15.488 190.16 14.312C189.872 14.456 187.184 15.176 187.016 14.936C186.8 14.576 186.608 13.664 186.44 13.232C186.32 12.92 186.488 12.872 186.704 12.8C187.856 12.416 190.88 11.864 191.72 11.72C191.36 11.6 191.144 11.432 191.216 10.904C191.696 7.736 191.816 5.528 191.96 3.632C192.08 2.024 191.672 1.496 192.392 1.472C193.904 1.424 194.912 1.736 195.224 2.48C195.488 3.128 195.344 4.184 195.2 5.168C195.104 5.744 195.224 5.744 195.752 5.672L198.56 5.264C199.376 5.144 199.088 6.752 198.44 7.064C197.48 7.52 196.784 7.736 195.224 8.384C194.696 8.6 194.624 8.72 194.36 9.416C194.096 10.112 193.976 10.616 193.592 11.72C193.568 11.792 193.52 11.84 193.472 11.864C193.688 11.96 193.904 12.104 194.096 12.296C194.768 12.92 193.976 13.568 193.64 13.952C192.56 15.104 191.744 15.872 190.616 16.712C191.816 16.592 192.752 16.424 193.76 16.448C194.408 16.472 194.864 17.336 193.952 18.08C193.208 18.704 192.008 19.616 191.264 20.336C190.976 20.6 190.328 21.176 190.496 21.536C190.64 21.848 191.288 21.776 191.624 21.752C192.56 21.656 193.856 21.44 194.84 21.128C195.224 21.008 195.248 21.512 194.792 21.776C193.88 22.304 192.632 22.904 191.576 23.144ZM177.848 7.952C178.16 5.624 179.672 3.752 181.904 2.36C182.624 1.928 184.208 2.072 185.264 2.888C186.752 4.016 187.64 5.72 187.64 6.968C187.64 8.96 186.968 9.896 185.144 11C183.344 12.056 181.04 12.44 179.36 11.408C178.016 10.616 177.68 9.104 177.848 7.952ZM180.2 8.816C179.936 9.776 180.536 10.112 181.088 10.112C181.976 10.112 182.72 9.752 183.512 9.008C184.424 8.144 184.616 6.344 183.728 5.192C183.56 4.976 183.2 4.976 183.008 5.12C181.544 6.104 180.584 7.424 180.2 8.816ZM201.631 17.888C201.295 18.296 200.959 18.464 200.503 18.128C200.071 17.816 199.951 17.456 200.191 17.024C201.151 15.32 204.247 10.304 205.183 8.312C204.751 8.384 203.551 8.624 202.759 8.816C201.055 9.224 200.815 8.168 200.383 7.28C200.191 6.872 200.047 6.44 200.551 6.272C201.799 5.84 202.879 5.624 204.031 5.432C204.295 5.288 204.319 5.096 204.415 4.688C204.655 3.656 204.895 2.768 205.231 1.784C205.639 0.559999 205.951 0.631999 206.575 0.775999C208.471 1.184 209.023 1.952 208.447 3.128C208.327 3.392 208.135 3.824 207.967 4.088C207.583 4.688 207.463 4.904 207.727 5.096C208.327 5.12 208.831 5.216 209.167 5.384C210.055 5.84 209.863 6.968 209.383 7.688C209.311 7.808 209.239 7.928 209.143 8.024C208.591 9.584 208.327 10.64 207.991 12.416C207.943 12.704 207.919 13.064 207.919 13.376C207.895 14.12 208.303 14.408 209.095 14.432C210.271 14.456 211.639 13.976 212.359 13.736C212.647 13.64 212.743 13.856 212.479 14.12C211.903 14.744 210.463 16.232 208.543 16.448C206.479 16.688 205.279 15.8 204.799 14.072C203.239 16.064 202.183 17.24 201.631 17.888ZM212.431 19.88C212.815 17.12 213.151 14.648 213.487 11.552C213.775 8.936 213.991 6.776 214.207 4.352C214.399 2.48 213.487 2.048 214.351 1.832C215.815 1.4 216.943 2.144 217.447 3.224C217.903 4.16 217.759 6.176 217.543 7.496C217.495 7.808 217.447 8.168 217.351 8.576C217.279 8.912 217.471 8.984 217.927 8.912C218.935 8.792 220.015 8.624 221.023 8.48C221.839 8.36 221.551 9.968 220.903 10.28C219.943 10.736 218.959 11.048 217.399 11.624C216.943 11.792 216.727 11.888 216.631 12.392L216.343 13.808C216.007 15.488 215.311 18.944 214.759 20.6C214.639 20.96 214.183 21.2 213.391 20.96C212.671 20.768 212.335 20.648 212.431 19.88ZM226.097 17.648C225.809 17.456 225.617 17 225.545 16.52C225.353 15.368 225.689 13.88 226.577 11.912C227.585 9.68 228.257 8.72 229.337 6.872C228.713 6.824 226.673 7.16 224.969 7.76C223.817 8.168 223.505 8.048 222.929 7.376C222.449 6.8 222.209 6.416 222.257 6.2C222.329 5.864 222.737 5.624 223.961 5.168C225.281 4.688 226.361 4.448 227.849 4.256C229.841 3.992 230.681 4.184 232.001 5.336C232.313 5.624 232.721 6.08 232.817 6.56C232.913 6.968 232.793 7.544 232.577 7.904C232.409 8.192 232.001 8.696 231.497 9.392C232.841 9.272 233.393 9.176 234.473 8.912C234.785 8.84 234.977 8.744 235.121 8.552C235.193 8.12 235.289 7.712 235.361 7.328C235.601 6.08 235.841 4.832 236.153 3.656C237.185 3.368 238.385 3.848 238.913 4.52C239.081 4.688 239.153 5.072 239.081 5.336C238.841 6.512 238.073 9.728 237.833 11.048C237.473 13.208 236.945 16.328 236.633 17.984C236.849 17.984 237.209 17.696 236.969 18.032C236.393 18.776 235.217 18.896 234.473 17.984C234.185 17.648 233.945 17.168 233.969 16.736C234.065 15.608 234.329 13.544 234.641 11.432C233.729 11.936 232.361 12.128 231.425 12.2C230.921 12.248 230.609 12.008 230.489 10.808V10.784C230.153 11.24 229.817 11.744 229.481 12.272C228.425 13.928 227.633 15.416 226.889 17.096C226.673 17.576 226.385 17.84 226.097 17.648ZM238.817 19.16C238.817 18.176 239.417 13.16 239.969 9.992C240.353 7.616 240.881 5.288 241.337 2.936C241.433 2.552 241.433 2.192 241.481 1.784C242.129 1.376 242.657 1.472 243.233 1.808C243.857 2.168 244.097 2.672 244.169 3.32C244.241 4.28 244.121 5.36 243.977 6.248C243.737 7.952 243.449 9.68 243.161 11.336C242.777 13.64 241.793 19.112 241.241 20.768C241.169 20.96 241.169 21.2 241.121 21.392C240.281 21.992 239.393 21.776 239.009 20.768C238.841 20.312 238.793 19.712 238.817 19.16Z" fill="#31A6E8"/>
</svg>
