<svg width="1921" height="108" viewBox="0 0 1921 108" fill="none" xmlns="http://www.w3.org/2000/svg">
<g style="mix-blend-mode:darken" opacity="0.3">
<mask id="path-1-outside-1_2206_2153" maskUnits="userSpaceOnUse" x="-0.169922" y="-1" width="1923" height="110" fill="black">
<rect fill="white" x="-0.169922" y="-1" width="1923" height="110"/>
<path d="M0.830079 105.25V3.375H40.3301C74.0801 3.375 94.9551 24.25 94.9551 54.375C94.9551 84.5 74.0801 105.25 40.3301 105.25H0.830079ZM23.5801 85.125H40.7051C60.2051 85.125 72.2051 74 72.2051 54.375C72.2051 34.75 60.2051 23.5 40.7051 23.5H23.5801V85.125ZM173.113 105.25L165.988 85.5H126.488L119.363 105.25H95.8633L135.363 3.375H158.988L198.488 105.25H173.113ZM133.488 65.75H158.988L146.238 30.25L133.488 65.75ZM208.716 105.25V3.375H227.716L278.591 64.625V2.125H301.341V104H282.341L231.466 42.75V105.25H208.716ZM369.312 0.749994C395.937 0.749994 415.187 15.75 421.062 34.875H396.062C391.812 27.375 382.187 21.625 369.812 21.625C351.312 21.625 337.562 35.25 337.562 54.25C337.562 73.375 351.312 87.25 369.812 87.25C385.687 87.25 396.687 77.5 399.062 67.5H367.937V48.25H423.312V54.25C423.312 85.125 400.187 107.75 369.312 107.75C337.937 107.75 314.812 85.125 314.812 54.25C314.812 23.375 337.937 0.749994 369.312 0.749994ZM429.365 71.375H452.115C452.115 78.875 458.115 87.25 469.365 87.25C480.615 87.25 487.365 79.375 487.365 67.625V3.375H510.115V67.625C510.115 92 493.865 107.75 469.365 107.75C444.865 107.75 429.615 91.625 429.365 71.375ZM526.587 3.375H549.337V105.25H526.587V3.375ZM567.358 105.25V3.375H586.358L637.233 64.625V2.125H659.983V104H640.983L590.108 42.75V105.25H567.358ZM780.738 3.375H803.488V105.25H780.738V63.875H735.738V105.25H712.988V3.375H735.738V43.75H780.738V3.375ZM821.509 105.25V3.375H897.259V23.125H844.259V43.875H892.884V63.625H844.259V85.5H898.384V105.25H821.509ZM983.172 105.25L976.047 85.5H936.547L929.422 105.25H905.922L945.422 3.375H969.047L1008.55 105.25H983.172ZM943.547 65.75H969.047L956.297 30.25L943.547 65.75ZM1018.77 3.375H1041.52V85.125H1092.4V105.25H1018.77V3.375ZM1172.7 3.375V23.5H1139.58V105.25H1116.83V23.5H1083.7V3.375H1172.7ZM1252.66 3.375H1275.41V105.25H1252.66V63.875H1207.66V105.25H1184.91V3.375H1207.66V43.75H1252.66V3.375ZM1378.47 107.75C1347.09 107.75 1323.97 85.125 1323.97 54.25C1323.97 23.375 1347.09 0.749994 1378.47 0.749994C1406.47 0.749994 1425.22 17.625 1429.34 39.125H1406.34C1403.97 29.375 1393.59 21.625 1378.97 21.625C1360.47 21.625 1346.72 35.25 1346.72 54.25C1346.72 73.125 1360.47 86.875 1378.97 86.875C1393.59 86.875 1405.59 77.25 1407.34 68H1430.34C1427.22 88.5 1406.72 107.75 1378.47 107.75ZM1443.46 105.25V3.375H1519.21V23.125H1466.21V43.875H1514.83V63.625H1466.21V85.5H1520.33V105.25H1443.46ZM1535.62 105.25V3.375H1554.62L1605.5 64.625V2.125H1628.25V104H1609.25L1558.37 42.75V105.25H1535.62ZM1729.47 3.375V23.5H1696.34V105.25H1673.59V23.5H1640.47V3.375H1729.47ZM1741.67 105.25V3.375H1817.42V23.125H1764.42V43.875H1813.05V63.625H1764.42V85.5H1818.55V105.25H1741.67ZM1920.84 105.25H1894.46L1874.71 73.125H1856.59V105.25H1833.84V3.375H1874.84C1900.71 3.375 1915.84 17.125 1915.84 38.25C1915.84 52.25 1909.21 63 1897.21 68.625L1920.84 105.25ZM1856.59 23.5V53H1873.84C1885.84 53 1893.09 47.875 1893.09 38.25C1893.09 28.625 1885.84 23.5 1873.84 23.5H1856.59Z"/>
</mask>
<path d="M0.830079 105.25H-0.169921V106.25H0.830079V105.25ZM0.830079 3.375V2.375H-0.169921V3.375H0.830079ZM23.5801 85.125H22.5801V86.125H23.5801V85.125ZM23.5801 23.5V22.5H22.5801V23.5H23.5801ZM1.83008 105.25V3.375H-0.169921V105.25H1.83008ZM0.830079 4.375H40.3301V2.375H0.830079V4.375ZM40.3301 4.375C56.9976 4.375 70.3906 9.52627 79.6093 18.3024C88.8245 27.0752 93.9551 39.5512 93.9551 54.375H95.9551C95.9551 39.0738 90.6481 26.0498 80.9883 16.8538C71.3321 7.66122 57.4126 2.375 40.3301 2.375V4.375ZM93.9551 54.375C93.9551 69.1985 88.8248 81.6426 79.6106 90.3839C70.3924 99.129 56.9992 104.25 40.3301 104.25V106.25C57.4109 106.25 71.3303 100.996 80.9871 91.8349C90.6479 82.6699 95.9551 69.6765 95.9551 54.375H93.9551ZM40.3301 104.25H0.830079V106.25H40.3301V104.25ZM23.5801 86.125H40.7051V84.125H23.5801V86.125ZM40.7051 86.125C50.6416 86.125 58.7911 83.288 64.4611 77.8298C70.1367 72.3663 73.2051 64.3945 73.2051 54.375H71.2051C71.2051 63.9805 68.2735 71.3837 63.0741 76.3889C57.8691 81.3995 50.2686 84.125 40.7051 84.125V86.125ZM73.2051 54.375C73.2051 44.3557 70.1369 36.3541 64.4632 30.8598C58.7942 25.3699 50.6445 22.5 40.7051 22.5V24.5C50.2656 24.5 57.8659 27.2551 63.0719 32.2965C68.2733 37.3334 71.2051 44.7693 71.2051 54.375H73.2051ZM40.7051 22.5H23.5801V24.5H40.7051V22.5ZM22.5801 23.5V85.125H24.5801V23.5H22.5801ZM173.113 105.25L172.173 105.589L172.411 106.25H173.113V105.25ZM165.988 85.5L166.929 85.1606L166.691 84.5H165.988V85.5ZM126.488 85.5V84.5H125.786L125.548 85.1606L126.488 85.5ZM119.363 105.25V106.25H120.066L120.304 105.589L119.363 105.25ZM95.8633 105.25L94.9309 104.888L94.403 106.25H95.8633V105.25ZM135.363 3.375V2.375H134.678L134.431 3.01349L135.363 3.375ZM158.988 3.375L159.921 3.01349L159.673 2.375H158.988V3.375ZM198.488 105.25V106.25H199.949L199.421 104.888L198.488 105.25ZM133.488 65.75L132.547 65.412L132.067 66.75H133.488V65.75ZM158.988 65.75V66.75H160.41L159.929 65.412L158.988 65.75ZM146.238 30.25L147.179 29.912L146.238 27.2915L145.297 29.912L146.238 30.25ZM174.054 104.911L166.929 85.1606L165.048 85.8394L172.173 105.589L174.054 104.911ZM165.988 84.5H126.488V86.5H165.988V84.5ZM125.548 85.1606L118.423 104.911L120.304 105.589L127.429 85.8394L125.548 85.1606ZM119.363 104.25H95.8633V106.25H119.363V104.25ZM96.7957 105.612L136.296 3.7365L134.431 3.01349L94.9309 104.888L96.7957 105.612ZM135.363 4.375H158.988V2.375H135.363V4.375ZM158.056 3.7365L197.556 105.612L199.421 104.888L159.921 3.01349L158.056 3.7365ZM198.488 104.25H173.113V106.25H198.488V104.25ZM133.488 66.75H158.988V64.75H133.488V66.75ZM159.929 65.412L147.179 29.912L145.297 30.588L158.047 66.088L159.929 65.412ZM145.297 29.912L132.547 65.412L134.429 66.088L147.179 30.588L145.297 29.912ZM208.716 105.25H207.716V106.25H208.716V105.25ZM208.716 3.375V2.375H207.716V3.375H208.716ZM227.716 3.375L228.485 2.73605L228.185 2.375H227.716V3.375ZM278.591 64.625L277.822 65.2639L279.591 67.394V64.625H278.591ZM278.591 2.125V1.125H277.591V2.125H278.591ZM301.341 2.125H302.341V1.125H301.341V2.125ZM301.341 104V105H302.341V104H301.341ZM282.341 104L281.572 104.639L281.871 105H282.341V104ZM231.466 42.75L232.235 42.111L230.466 39.981V42.75H231.466ZM231.466 105.25V106.25H232.466V105.25H231.466ZM209.716 105.25V3.375H207.716V105.25H209.716ZM208.716 4.375H227.716V2.375H208.716V4.375ZM226.947 4.01395L277.822 65.2639L279.36 63.986L228.485 2.73605L226.947 4.01395ZM279.591 64.625V2.125H277.591V64.625H279.591ZM278.591 3.125H301.341V1.125H278.591V3.125ZM300.341 2.125V104H302.341V2.125H300.341ZM301.341 103H282.341V105H301.341V103ZM283.11 103.361L232.235 42.111L230.697 43.3889L281.572 104.639L283.11 103.361ZM230.466 42.75V105.25H232.466V42.75H230.466ZM231.466 104.25H208.716V106.25H231.466V104.25ZM421.062 34.875V35.875H422.415L422.017 34.5814L421.062 34.875ZM396.062 34.875L395.192 35.368L395.479 35.875H396.062V34.875ZM399.062 67.5L400.034 67.7311L400.327 66.5H399.062V67.5ZM367.937 67.5H366.937V68.5H367.937V67.5ZM367.937 48.25V47.25H366.937V48.25H367.937ZM423.312 48.25H424.312V47.25H423.312V48.25ZM369.312 1.74999C395.55 1.74999 414.374 16.5117 420.106 35.1686L422.017 34.5814C415.999 14.9883 396.323 -0.250006 369.312 -0.250006V1.74999ZM421.062 33.875H396.062V35.875H421.062V33.875ZM396.932 34.382C392.474 26.5161 382.482 20.625 369.812 20.625V22.625C381.891 22.625 391.149 28.2339 395.192 35.368L396.932 34.382ZM369.812 20.625C350.754 20.625 336.562 34.7028 336.562 54.25H338.562C338.562 35.7972 351.869 22.625 369.812 22.625V20.625ZM336.562 54.25C336.562 73.9094 350.742 88.25 369.812 88.25V86.25C351.881 86.25 338.562 72.8406 338.562 54.25H336.562ZM369.812 88.25C386.087 88.25 397.538 78.2405 400.034 67.7311L398.089 67.2689C395.835 76.7595 385.286 86.25 369.812 86.25V88.25ZM399.062 66.5H367.937V68.5H399.062V66.5ZM368.937 67.5V48.25H366.937V67.5H368.937ZM367.937 49.25H423.312V47.25H367.937V49.25ZM422.312 48.25V54.25H424.312V48.25H422.312ZM422.312 54.25C422.312 84.5605 399.647 106.75 369.312 106.75V108.75C400.726 108.75 424.312 85.6895 424.312 54.25H422.312ZM369.312 106.75C338.47 106.75 315.812 84.5544 315.812 54.25H313.812C313.812 85.6956 337.403 108.75 369.312 108.75V106.75ZM315.812 54.25C315.812 23.9456 338.47 1.74999 369.312 1.74999V-0.250006C337.403 -0.250006 313.812 22.8044 313.812 54.25H315.812ZM429.365 71.375V70.375H428.353L428.365 71.3873L429.365 71.375ZM452.115 71.375H453.115V70.375H452.115V71.375ZM487.365 3.375V2.375H486.365V3.375H487.365ZM510.115 3.375H511.115V2.375H510.115V3.375ZM429.365 72.375H452.115V70.375H429.365V72.375ZM451.115 71.375C451.115 79.3872 457.524 88.25 469.365 88.25V86.25C458.707 86.25 453.115 78.3628 453.115 71.375H451.115ZM469.365 88.25C475.237 88.25 480.021 86.1869 483.327 82.5127C486.623 78.8511 488.365 73.6866 488.365 67.625H486.365C486.365 73.3134 484.733 77.9614 481.841 81.1748C478.96 84.3756 474.744 86.25 469.365 86.25V88.25ZM488.365 67.625V3.375H486.365V67.625H488.365ZM487.365 4.375H510.115V2.375H487.365V4.375ZM509.115 3.375V67.625H511.115V3.375H509.115ZM509.115 67.625C509.115 79.5841 505.134 89.3441 498.228 96.114C491.319 102.886 481.398 106.75 469.365 106.75V108.75C481.832 108.75 492.286 104.739 499.628 97.5422C506.972 90.3434 511.115 80.0409 511.115 67.625H509.115ZM469.365 106.75C457.34 106.75 447.659 102.797 440.96 96.4313C434.261 90.0652 430.487 81.2336 430.365 71.3627L428.365 71.3873C428.493 81.7664 432.47 91.1223 439.583 97.8812C446.696 104.641 456.89 108.75 469.365 108.75V106.75ZM526.587 3.375V2.375H525.587V3.375H526.587ZM549.337 3.375H550.337V2.375H549.337V3.375ZM549.337 105.25V106.25H550.337V105.25H549.337ZM526.587 105.25H525.587V106.25H526.587V105.25ZM526.587 4.375H549.337V2.375H526.587V4.375ZM548.337 3.375V105.25H550.337V3.375H548.337ZM549.337 104.25H526.587V106.25H549.337V104.25ZM527.587 105.25V3.375H525.587V105.25H527.587ZM567.358 105.25H566.358V106.25H567.358V105.25ZM567.358 3.375V2.375H566.358V3.375H567.358ZM586.358 3.375L587.128 2.73605L586.828 2.375H586.358V3.375ZM637.233 64.625L636.464 65.2639L638.233 67.394V64.625H637.233ZM637.233 2.125V1.125H636.233V2.125H637.233ZM659.983 2.125H660.983V1.125H659.983V2.125ZM659.983 104V105H660.983V104H659.983ZM640.983 104L640.214 104.639L640.514 105H640.983V104ZM590.108 42.75L590.878 42.111L589.108 39.981V42.75H590.108ZM590.108 105.25V106.25H591.108V105.25H590.108ZM568.358 105.25V3.375H566.358V105.25H568.358ZM567.358 4.375H586.358V2.375H567.358V4.375ZM585.589 4.01395L636.464 65.2639L638.003 63.986L587.128 2.73605L585.589 4.01395ZM638.233 64.625V2.125H636.233V64.625H638.233ZM637.233 3.125H659.983V1.125H637.233V3.125ZM658.983 2.125V104H660.983V2.125H658.983ZM659.983 103H640.983V105H659.983V103ZM641.753 103.361L590.878 42.111L589.339 43.3889L640.214 104.639L641.753 103.361ZM589.108 42.75V105.25H591.108V42.75H589.108ZM590.108 104.25H567.358V106.25H590.108V104.25ZM780.738 3.375V2.375H779.738V3.375H780.738ZM803.488 3.375H804.488V2.375H803.488V3.375ZM803.488 105.25V106.25H804.488V105.25H803.488ZM780.738 105.25H779.738V106.25H780.738V105.25ZM780.738 63.875H781.738V62.875H780.738V63.875ZM735.738 63.875V62.875H734.738V63.875H735.738ZM735.738 105.25V106.25H736.738V105.25H735.738ZM712.988 105.25H711.988V106.25H712.988V105.25ZM712.988 3.375V2.375H711.988V3.375H712.988ZM735.738 3.375H736.738V2.375H735.738V3.375ZM735.738 43.75H734.738V44.75H735.738V43.75ZM780.738 43.75V44.75H781.738V43.75H780.738ZM780.738 4.375H803.488V2.375H780.738V4.375ZM802.488 3.375V105.25H804.488V3.375H802.488ZM803.488 104.25H780.738V106.25H803.488V104.25ZM781.738 105.25V63.875H779.738V105.25H781.738ZM780.738 62.875H735.738V64.875H780.738V62.875ZM734.738 63.875V105.25H736.738V63.875H734.738ZM735.738 104.25H712.988V106.25H735.738V104.25ZM713.988 105.25V3.375H711.988V105.25H713.988ZM712.988 4.375H735.738V2.375H712.988V4.375ZM734.738 3.375V43.75H736.738V3.375H734.738ZM735.738 44.75H780.738V42.75H735.738V44.75ZM781.738 43.75V3.375H779.738V43.75H781.738ZM821.509 105.25H820.509V106.25H821.509V105.25ZM821.509 3.375V2.375H820.509V3.375H821.509ZM897.259 3.375H898.259V2.375H897.259V3.375ZM897.259 23.125V24.125H898.259V23.125H897.259ZM844.259 23.125V22.125H843.259V23.125H844.259ZM844.259 43.875H843.259V44.875H844.259V43.875ZM892.884 43.875H893.884V42.875H892.884V43.875ZM892.884 63.625V64.625H893.884V63.625H892.884ZM844.259 63.625V62.625H843.259V63.625H844.259ZM844.259 85.5H843.259V86.5H844.259V85.5ZM898.384 85.5H899.384V84.5H898.384V85.5ZM898.384 105.25V106.25H899.384V105.25H898.384ZM822.509 105.25V3.375H820.509V105.25H822.509ZM821.509 4.375H897.259V2.375H821.509V4.375ZM896.259 3.375V23.125H898.259V3.375H896.259ZM897.259 22.125H844.259V24.125H897.259V22.125ZM843.259 23.125V43.875H845.259V23.125H843.259ZM844.259 44.875H892.884V42.875H844.259V44.875ZM891.884 43.875V63.625H893.884V43.875H891.884ZM892.884 62.625H844.259V64.625H892.884V62.625ZM843.259 63.625V85.5H845.259V63.625H843.259ZM844.259 86.5H898.384V84.5H844.259V86.5ZM897.384 85.5V105.25H899.384V85.5H897.384ZM898.384 104.25H821.509V106.25H898.384V104.25ZM983.172 105.25L982.231 105.589L982.47 106.25H983.172V105.25ZM976.047 85.5L976.988 85.1606L976.749 84.5H976.047V85.5ZM936.547 85.5V84.5H935.845L935.606 85.1606L936.547 85.5ZM929.422 105.25V106.25H930.124L930.363 105.589L929.422 105.25ZM905.922 105.25L904.99 104.888L904.462 106.25H905.922V105.25ZM945.422 3.375V2.375H944.737L944.49 3.01349L945.422 3.375ZM969.047 3.375L969.979 3.01349L969.732 2.375H969.047V3.375ZM1008.55 105.25V106.25H1010.01L1009.48 104.888L1008.55 105.25ZM943.547 65.75L942.606 65.412L942.125 66.75H943.547V65.75ZM969.047 65.75V66.75H970.469L969.988 65.412L969.047 65.75ZM956.297 30.25L957.238 29.912L956.297 27.2915L955.356 29.912L956.297 30.25ZM984.113 104.911L976.988 85.1606L975.106 85.8394L982.231 105.589L984.113 104.911ZM976.047 84.5H936.547V86.5H976.047V84.5ZM935.606 85.1606L928.481 104.911L930.363 105.589L937.488 85.8394L935.606 85.1606ZM929.422 104.25H905.922V106.25H929.422V104.25ZM906.854 105.612L946.354 3.7365L944.49 3.01349L904.99 104.888L906.854 105.612ZM945.422 4.375H969.047V2.375H945.422V4.375ZM968.115 3.7365L1007.61 105.612L1009.48 104.888L969.979 3.01349L968.115 3.7365ZM1008.55 104.25H983.172V106.25H1008.55V104.25ZM943.547 66.75H969.047V64.75H943.547V66.75ZM969.988 65.412L957.238 29.912L955.356 30.588L968.106 66.088L969.988 65.412ZM955.356 29.912L942.606 65.412L944.488 66.088L957.238 30.588L955.356 29.912ZM1018.77 3.375V2.375H1017.77V3.375H1018.77ZM1041.52 3.375H1042.52V2.375H1041.52V3.375ZM1041.52 85.125H1040.52V86.125H1041.52V85.125ZM1092.4 85.125H1093.4V84.125H1092.4V85.125ZM1092.4 105.25V106.25H1093.4V105.25H1092.4ZM1018.77 105.25H1017.77V106.25H1018.77V105.25ZM1018.77 4.375H1041.52V2.375H1018.77V4.375ZM1040.52 3.375V85.125H1042.52V3.375H1040.52ZM1041.52 86.125H1092.4V84.125H1041.52V86.125ZM1091.4 85.125V105.25H1093.4V85.125H1091.4ZM1092.4 104.25H1018.77V106.25H1092.4V104.25ZM1019.77 105.25V3.375H1017.77V105.25H1019.77ZM1172.7 3.375H1173.7V2.375H1172.7V3.375ZM1172.7 23.5V24.5H1173.7V23.5H1172.7ZM1139.58 23.5V22.5H1138.58V23.5H1139.58ZM1139.58 105.25V106.25H1140.58V105.25H1139.58ZM1116.83 105.25H1115.83V106.25H1116.83V105.25ZM1116.83 23.5H1117.83V22.5H1116.83V23.5ZM1083.7 23.5H1082.7V24.5H1083.7V23.5ZM1083.7 3.375V2.375H1082.7V3.375H1083.7ZM1171.7 3.375V23.5H1173.7V3.375H1171.7ZM1172.7 22.5H1139.58V24.5H1172.7V22.5ZM1138.58 23.5V105.25H1140.58V23.5H1138.58ZM1139.58 104.25H1116.83V106.25H1139.58V104.25ZM1117.83 105.25V23.5H1115.83V105.25H1117.83ZM1116.83 22.5H1083.7V24.5H1116.83V22.5ZM1084.7 23.5V3.375H1082.7V23.5H1084.7ZM1083.7 4.375H1172.7V2.375H1083.7V4.375ZM1252.66 3.375V2.375H1251.66V3.375H1252.66ZM1275.41 3.375H1276.41V2.375H1275.41V3.375ZM1275.41 105.25V106.25H1276.41V105.25H1275.41ZM1252.66 105.25H1251.66V106.25H1252.66V105.25ZM1252.66 63.875H1253.66V62.875H1252.66V63.875ZM1207.66 63.875V62.875H1206.66V63.875H1207.66ZM1207.66 105.25V106.25H1208.66V105.25H1207.66ZM1184.91 105.25H1183.91V106.25H1184.91V105.25ZM1184.91 3.375V2.375H1183.91V3.375H1184.91ZM1207.66 3.375H1208.66V2.375H1207.66V3.375ZM1207.66 43.75H1206.66V44.75H1207.66V43.75ZM1252.66 43.75V44.75H1253.66V43.75H1252.66ZM1252.66 4.375H1275.41V2.375H1252.66V4.375ZM1274.41 3.375V105.25H1276.41V3.375H1274.41ZM1275.41 104.25H1252.66V106.25H1275.41V104.25ZM1253.66 105.25V63.875H1251.66V105.25H1253.66ZM1252.66 62.875H1207.66V64.875H1252.66V62.875ZM1206.66 63.875V105.25H1208.66V63.875H1206.66ZM1207.66 104.25H1184.91V106.25H1207.66V104.25ZM1185.91 105.25V3.375H1183.91V105.25H1185.91ZM1184.91 4.375H1207.66V2.375H1184.91V4.375ZM1206.66 3.375V43.75H1208.66V3.375H1206.66ZM1207.66 44.75H1252.66V42.75H1207.66V44.75ZM1253.66 43.75V3.375H1251.66V43.75H1253.66ZM1429.34 39.125V40.125H1430.55L1430.32 38.9366L1429.34 39.125ZM1406.34 39.125L1405.37 39.3617L1405.56 40.125H1406.34V39.125ZM1407.34 68V67H1406.51L1406.36 67.8141L1407.34 68ZM1430.34 68L1431.33 68.1507L1431.51 67H1430.34V68ZM1378.47 106.75C1347.63 106.75 1324.97 84.5544 1324.97 54.25H1322.97C1322.97 85.6956 1346.56 108.75 1378.47 108.75V106.75ZM1324.97 54.25C1324.97 23.9456 1347.63 1.74999 1378.47 1.74999V-0.250006C1346.56 -0.250006 1322.97 22.8044 1322.97 54.25H1324.97ZM1378.47 1.74999C1406.02 1.74999 1424.33 18.3177 1428.36 39.3134L1430.32 38.9366C1426.1 16.9323 1406.91 -0.250006 1378.47 -0.250006V1.74999ZM1429.34 38.125H1406.34V40.125H1429.34V38.125ZM1407.31 38.8883C1404.8 28.5707 1393.92 20.625 1378.97 20.625V22.625C1393.27 22.625 1403.13 30.1793 1405.37 39.3617L1407.31 38.8883ZM1378.97 20.625C1359.91 20.625 1345.72 34.7028 1345.72 54.25H1347.72C1347.72 35.7972 1361.02 22.625 1378.97 22.625V20.625ZM1345.72 54.25C1345.72 73.6696 1359.91 87.875 1378.97 87.875V85.875C1361.03 85.875 1347.72 72.5804 1347.72 54.25H1345.72ZM1378.97 87.875C1386.5 87.875 1393.35 85.3983 1398.56 81.7232C1403.75 78.0611 1407.39 73.1401 1408.32 68.1859L1406.36 67.8141C1405.55 72.1099 1402.31 76.6264 1397.41 80.0893C1392.52 83.5392 1386.06 85.875 1378.97 85.875V87.875ZM1407.34 69H1430.34V67H1407.34V69ZM1429.35 67.8493C1426.31 87.8167 1406.27 106.75 1378.47 106.75V108.75C1407.16 108.75 1428.12 89.1833 1431.33 68.1507L1429.35 67.8493ZM1443.46 105.25H1442.46V106.25H1443.46V105.25ZM1443.46 3.375V2.375H1442.46V3.375H1443.46ZM1519.21 3.375H1520.21V2.375H1519.21V3.375ZM1519.21 23.125V24.125H1520.21V23.125H1519.21ZM1466.21 23.125V22.125H1465.21V23.125H1466.21ZM1466.21 43.875H1465.21V44.875H1466.21V43.875ZM1514.83 43.875H1515.83V42.875H1514.83V43.875ZM1514.83 63.625V64.625H1515.83V63.625H1514.83ZM1466.21 63.625V62.625H1465.21V63.625H1466.21ZM1466.21 85.5H1465.21V86.5H1466.21V85.5ZM1520.33 85.5H1521.33V84.5H1520.33V85.5ZM1520.33 105.25V106.25H1521.33V105.25H1520.33ZM1444.46 105.25V3.375H1442.46V105.25H1444.46ZM1443.46 4.375H1519.21V2.375H1443.46V4.375ZM1518.21 3.375V23.125H1520.21V3.375H1518.21ZM1519.21 22.125H1466.21V24.125H1519.21V22.125ZM1465.21 23.125V43.875H1467.21V23.125H1465.21ZM1466.21 44.875H1514.83V42.875H1466.21V44.875ZM1513.83 43.875V63.625H1515.83V43.875H1513.83ZM1514.83 62.625H1466.21V64.625H1514.83V62.625ZM1465.21 63.625V85.5H1467.21V63.625H1465.21ZM1466.21 86.5H1520.33V84.5H1466.21V86.5ZM1519.33 85.5V105.25H1521.33V85.5H1519.33ZM1520.33 104.25H1443.46V106.25H1520.33V104.25ZM1535.62 105.25H1534.62V106.25H1535.62V105.25ZM1535.62 3.375V2.375H1534.62V3.375H1535.62ZM1554.62 3.375L1555.39 2.73605L1555.09 2.375H1554.62V3.375ZM1605.5 64.625L1604.73 65.2639L1606.5 67.394V64.625H1605.5ZM1605.5 2.125V1.125H1604.5V2.125H1605.5ZM1628.25 2.125H1629.25V1.125H1628.25V2.125ZM1628.25 104V105H1629.25V104H1628.25ZM1609.25 104L1608.48 104.639L1608.78 105H1609.25V104ZM1558.37 42.75L1559.14 42.111L1557.37 39.981V42.75H1558.37ZM1558.37 105.25V106.25H1559.37V105.25H1558.37ZM1536.62 105.25V3.375H1534.62V105.25H1536.62ZM1535.62 4.375H1554.62V2.375H1535.62V4.375ZM1553.85 4.01395L1604.73 65.2639L1606.26 63.986L1555.39 2.73605L1553.85 4.01395ZM1606.5 64.625V2.125H1604.5V64.625H1606.5ZM1605.5 3.125H1628.25V1.125H1605.5V3.125ZM1627.25 2.125V104H1629.25V2.125H1627.25ZM1628.25 103H1609.25V105H1628.25V103ZM1610.01 103.361L1559.14 42.111L1557.6 43.3889L1608.48 104.639L1610.01 103.361ZM1557.37 42.75V105.25H1559.37V42.75H1557.37ZM1558.37 104.25H1535.62V106.25H1558.37V104.25ZM1729.47 3.375H1730.47V2.375H1729.47V3.375ZM1729.47 23.5V24.5H1730.47V23.5H1729.47ZM1696.34 23.5V22.5H1695.34V23.5H1696.34ZM1696.34 105.25V106.25H1697.34V105.25H1696.34ZM1673.59 105.25H1672.59V106.25H1673.59V105.25ZM1673.59 23.5H1674.59V22.5H1673.59V23.5ZM1640.47 23.5H1639.47V24.5H1640.47V23.5ZM1640.47 3.375V2.375H1639.47V3.375H1640.47ZM1728.47 3.375V23.5H1730.47V3.375H1728.47ZM1729.47 22.5H1696.34V24.5H1729.47V22.5ZM1695.34 23.5V105.25H1697.34V23.5H1695.34ZM1696.34 104.25H1673.59V106.25H1696.34V104.25ZM1674.59 105.25V23.5H1672.59V105.25H1674.59ZM1673.59 22.5H1640.47V24.5H1673.59V22.5ZM1641.47 23.5V3.375H1639.47V23.5H1641.47ZM1640.47 4.375H1729.47V2.375H1640.47V4.375ZM1741.67 105.25H1740.67V106.25H1741.67V105.25ZM1741.67 3.375V2.375H1740.67V3.375H1741.67ZM1817.42 3.375H1818.42V2.375H1817.42V3.375ZM1817.42 23.125V24.125H1818.42V23.125H1817.42ZM1764.42 23.125V22.125H1763.42V23.125H1764.42ZM1764.42 43.875H1763.42V44.875H1764.42V43.875ZM1813.05 43.875H1814.05V42.875H1813.05V43.875ZM1813.05 63.625V64.625H1814.05V63.625H1813.05ZM1764.42 63.625V62.625H1763.42V63.625H1764.42ZM1764.42 85.5H1763.42V86.5H1764.42V85.5ZM1818.55 85.5H1819.55V84.5H1818.55V85.5ZM1818.55 105.25V106.25H1819.55V105.25H1818.55ZM1742.67 105.25V3.375H1740.67V105.25H1742.67ZM1741.67 4.375H1817.42V2.375H1741.67V4.375ZM1816.42 3.375V23.125H1818.42V3.375H1816.42ZM1817.42 22.125H1764.42V24.125H1817.42V22.125ZM1763.42 23.125V43.875H1765.42V23.125H1763.42ZM1764.42 44.875H1813.05V42.875H1764.42V44.875ZM1812.05 43.875V63.625H1814.05V43.875H1812.05ZM1813.05 62.625H1764.42V64.625H1813.05V62.625ZM1763.42 63.625V85.5H1765.42V63.625H1763.42ZM1764.42 86.5H1818.55V84.5H1764.42V86.5ZM1817.55 85.5V105.25H1819.55V85.5H1817.55ZM1818.55 104.25H1741.67V106.25H1818.55V104.25ZM1920.84 105.25V106.25H1922.67L1921.68 104.708L1920.84 105.25ZM1894.46 105.25L1893.61 105.774L1893.9 106.25H1894.46V105.25ZM1874.71 73.125L1875.56 72.6013L1875.27 72.125H1874.71V73.125ZM1856.59 73.125V72.125H1855.59V73.125H1856.59ZM1856.59 105.25V106.25H1857.59V105.25H1856.59ZM1833.84 105.25H1832.84V106.25H1833.84V105.25ZM1833.84 3.375V2.375H1832.84V3.375H1833.84ZM1897.21 68.625L1896.79 67.7195L1895.75 68.2053L1896.37 69.1671L1897.21 68.625ZM1856.59 23.5V22.5H1855.59V23.5H1856.59ZM1856.59 53H1855.59V54H1856.59V53ZM1920.84 104.25H1894.46V106.25H1920.84V104.25ZM1895.31 104.726L1875.56 72.6013L1873.86 73.6487L1893.61 105.774L1895.31 104.726ZM1874.71 72.125H1856.59V74.125H1874.71V72.125ZM1855.59 73.125V105.25H1857.59V73.125H1855.59ZM1856.59 104.25H1833.84V106.25H1856.59V104.25ZM1834.84 105.25V3.375H1832.84V105.25H1834.84ZM1833.84 4.375H1874.84V2.375H1833.84V4.375ZM1874.84 4.375C1887.61 4.375 1897.6 7.76688 1904.39 13.6464C1911.16 19.512 1914.84 27.9412 1914.84 38.25H1916.84C1916.84 27.4338 1912.96 18.4255 1905.7 12.1348C1898.45 5.85811 1887.94 2.375 1874.84 2.375V4.375ZM1914.84 38.25C1914.84 51.887 1908.42 62.2695 1896.79 67.7195L1897.64 69.5305C1910.01 63.7305 1916.84 52.613 1916.84 38.25H1914.84ZM1896.37 69.1671L1920 105.792L1921.68 104.708L1898.05 68.0829L1896.37 69.1671ZM1855.59 23.5V53H1857.59V23.5H1855.59ZM1856.59 54H1873.84V52H1856.59V54ZM1873.84 54C1879.96 54 1885.01 52.6955 1888.56 50.0344C1892.15 47.3419 1894.09 43.3438 1894.09 38.25H1892.09C1892.09 42.7812 1890.4 46.1581 1887.36 48.4344C1884.29 50.742 1879.72 52 1873.84 52V54ZM1894.09 38.25C1894.09 33.1562 1892.15 29.1581 1888.56 26.4656C1885.01 23.8045 1879.96 22.5 1873.84 22.5V24.5C1879.72 24.5 1884.29 25.758 1887.36 28.0656C1890.4 30.3419 1892.09 33.7188 1892.09 38.25H1894.09ZM1873.84 22.5H1856.59V24.5H1873.84V22.5Z" fill="#AEB4C5" mask="url(#path-1-outside-1_2206_2153)"/>
</g>
</svg>
