<svg width="12" height="12" viewBox="0 0 12 12" fill="none" xmlns="http://www.w3.org/2000/svg">
<path d="M10 1.83333V10.1667C10 10.3877 9.92338 10.5996 9.78699 10.7559C9.6506 10.9122 9.46561 11 9.27273 11H7.63636C7.44348 11 7.25849 10.9122 7.1221 10.7559C6.98571 10.5996 6.90909 10.3877 6.90909 10.1667V1.83333C6.90909 1.61232 6.98571 1.40036 7.1221 1.24408C7.25849 1.0878 7.44348 1 7.63636 1H9.27273C9.46561 1 9.6506 1.0878 9.78699 1.24408C9.92338 1.40036 10 1.61232 10 1.83333ZM4.36364 1H2.72727C2.53439 1 2.3494 1.0878 2.21301 1.24408C2.07662 1.40036 2 1.61232 2 1.83333V10.1667C2 10.3877 2.07662 10.5996 2.21301 10.7559C2.3494 10.9122 2.53439 11 2.72727 11H4.36364C4.55652 11 4.74151 10.9122 4.8779 10.7559C5.01429 10.5996 5.09091 10.3877 5.09091 10.1667V1.83333C5.09091 1.61232 5.01429 1.40036 4.8779 1.24408C4.74151 1.0878 4.55652 1 4.36364 1Z" fill="#343A40"/>
</svg>
