<svg width="20" height="20" viewBox="0 0 20 20" fill="none" xmlns="http://www.w3.org/2000/svg">
<path d="M4.39038 8.12503C4.38933 7.38407 4.5349 6.65023 4.81868 5.96578C5.10246 5.28132 5.51885 4.65977 6.04387 4.13693C6.5689 3.61408 7.19217 3.20028 7.8778 2.91934C8.56343 2.63841 9.29787 2.4959 10.0388 2.50003C13.1326 2.52346 15.6091 5.09378 15.6091 8.19534V8.75003C15.6091 11.5469 16.1951 13.1719 16.7107 14.0625C16.7655 14.1574 16.7943 14.265 16.7944 14.3745C16.7945 14.484 16.7658 14.5916 16.7112 14.6866C16.6566 14.7815 16.5781 14.8605 16.4834 14.9155C16.3886 14.9705 16.2811 14.9996 16.1716 15H3.82788C3.71835 14.9996 3.61085 14.9705 3.51615 14.9155C3.42144 14.8605 3.34286 14.7815 3.28826 14.6866C3.23367 14.5916 3.20498 14.484 3.20508 14.3745C3.20518 14.265 3.23405 14.1574 3.28881 14.0625C3.80444 13.1719 4.39038 11.5469 4.39038 8.75003V8.12503Z" stroke="#6C757D" stroke-width="1.5" stroke-linecap="round" stroke-linejoin="round"/>
<path d="M7.5 15V15.625C7.5 16.288 7.76339 16.9239 8.23223 17.3928C8.70107 17.8616 9.33696 18.125 10 18.125C10.663 18.125 11.2989 17.8616 11.7678 17.3928C12.2366 16.9239 12.5 16.288 12.5 15.625V15" stroke="#6C757D" stroke-width="1.5" stroke-linecap="round" stroke-linejoin="round"/>
</svg>
