<svg width="32" height="32" viewBox="0 0 32 32" fill="none" xmlns="http://www.w3.org/2000/svg">
<path d="M10 14C10 12.0222 10.5865 10.0888 11.6853 8.4443C12.7841 6.79981 14.3459 5.51809 16.1732 4.76121C18.0004 4.00433 20.0111 3.8063 21.9509 4.19215C23.8907 4.578 25.6725 5.53041 27.0711 6.92894C28.4696 8.32746 29.422 10.1093 29.8079 12.0491C30.1937 13.9889 29.9957 15.9996 29.2388 17.8268C28.4819 19.6541 27.2002 21.2159 25.5557 22.3147C23.9112 23.4135 21.9778 24 20 24H9C7.14348 24 5.36301 23.2625 4.05025 21.9498C2.7375 20.637 2 18.8565 2 17C2 15.1435 2.7375 13.363 4.05025 12.0503C5.36301 10.7375 7.14348 10 9 10C9.58566 9.99978 10.1692 10.0711 10.7375 10.2125" stroke="white" stroke-width="2" stroke-linecap="round" stroke-linejoin="round"/>
<mask id="path-2-outside-1_1627_19084" maskUnits="userSpaceOnUse" x="6" y="7" width="18" height="22" fill="black">
<rect fill="white" x="6" y="7" width="18" height="22"/>
<path d="M21.58 18.12C21.58 20.48 21.26 22.62 20.08 24.18C19.06 25.54 17.52 26.32 15.22 26.32C12.9 26.32 11.38 25.54 10.36 24.18C9.18 22.62 8.84 20.48 8.84 18.12C8.84 15.78 9.18 13.64 10.36 12.08C11.38 10.72 12.9 9.94 15.22 9.94C17.52 9.94 19.06 10.72 20.08 12.08C21.26 13.64 21.58 15.78 21.58 18.12ZM12.14 18.12C12.14 20.46 12.38 21.64 12.94 22.46C13.42 23.18 14.18 23.56 15.22 23.56C16.26 23.56 17.02 23.18 17.5 22.46C18.06 21.64 18.28 20.46 18.28 18.12C18.28 15.8 18.06 14.62 17.5 13.8C17.02 13.08 16.26 12.7 15.22 12.7C14.18 12.7 13.42 13.08 12.94 13.8C12.38 14.62 12.14 15.8 12.14 18.12Z"/>
</mask>
<path d="M21.58 18.12C21.58 20.48 21.26 22.62 20.08 24.18C19.06 25.54 17.52 26.32 15.22 26.32C12.9 26.32 11.38 25.54 10.36 24.18C9.18 22.62 8.84 20.48 8.84 18.12C8.84 15.78 9.18 13.64 10.36 12.08C11.38 10.72 12.9 9.94 15.22 9.94C17.52 9.94 19.06 10.72 20.08 12.08C21.26 13.64 21.58 15.78 21.58 18.12ZM12.14 18.12C12.14 20.46 12.38 21.64 12.94 22.46C13.42 23.18 14.18 23.56 15.22 23.56C16.26 23.56 17.02 23.18 17.5 22.46C18.06 21.64 18.28 20.46 18.28 18.12C18.28 15.8 18.06 14.62 17.5 13.8C17.02 13.08 16.26 12.7 15.22 12.7C14.18 12.7 13.42 13.08 12.94 13.8C12.38 14.62 12.14 15.8 12.14 18.12Z" fill="white"/>
<path d="M20.08 24.18L18.4849 22.9735L18.48 22.98L20.08 24.18ZM10.36 24.18L11.96 22.98L11.9551 22.9735L10.36 24.18ZM10.36 12.08L11.9551 13.2865L11.96 13.28L10.36 12.08ZM20.08 12.08L18.48 13.28L18.4849 13.2865L20.08 12.08ZM12.94 22.46L14.6041 21.3506C14.6 21.3444 14.5958 21.3382 14.5916 21.3321L12.94 22.46ZM17.5 22.46L15.8484 21.3321C15.8442 21.3382 15.84 21.3444 15.8359 21.3506L17.5 22.46ZM17.5 13.8L15.8359 14.9094C15.84 14.9156 15.8442 14.9218 15.8484 14.9279L17.5 13.8ZM12.94 13.8L14.5916 14.9279C14.5958 14.9218 14.6 14.9156 14.6041 14.9094L12.94 13.8ZM19.58 18.12C19.58 20.3868 19.2517 21.9597 18.4849 22.9735L21.6751 25.3865C23.2683 23.2803 23.58 20.5732 23.58 18.12H19.58ZM18.48 22.98C17.8991 23.7545 17.0004 24.32 15.22 24.32V28.32C18.0396 28.32 20.2209 27.3255 21.68 25.38L18.48 22.98ZM15.22 24.32C13.4234 24.32 12.5428 23.7571 11.96 22.98L8.76 25.38C10.2172 27.3229 12.3766 28.32 15.22 28.32V24.32ZM11.9551 22.9735C11.1828 21.9525 10.84 20.3698 10.84 18.12H6.84C6.84 20.5902 7.17715 23.2875 8.76492 25.3865L11.9551 22.9735ZM10.84 18.12C10.84 15.8921 11.1822 14.3083 11.9551 13.2865L8.76492 10.8735C7.17778 12.9717 6.84 15.6679 6.84 18.12H10.84ZM11.96 13.28C12.5428 12.5029 13.4234 11.94 15.22 11.94V7.94C12.3766 7.94 10.2172 8.93712 8.76 10.88L11.96 13.28ZM15.22 11.94C17.0004 11.94 17.8991 12.5055 18.48 13.28L21.68 10.88C20.2209 8.9345 18.0396 7.94 15.22 7.94V11.94ZM18.4849 13.2865C19.2523 14.3011 19.58 15.8751 19.58 18.12H23.58C23.58 15.6849 23.2677 12.9789 21.6751 10.8735L18.4849 13.2865ZM10.14 18.12C10.14 20.4887 10.3561 22.2227 11.2884 23.5879L14.5916 21.3321C14.4039 21.0573 14.14 20.4313 14.14 18.12H10.14ZM11.2759 23.5694C12.1888 24.9388 13.6314 25.56 15.22 25.56V21.56C14.9428 21.56 14.8031 21.5098 14.7454 21.4818C14.6982 21.4588 14.6555 21.4277 14.6041 21.3506L11.2759 23.5694ZM15.22 25.56C16.8086 25.56 18.2512 24.9388 19.1641 23.5694L15.8359 21.3506C15.7845 21.4277 15.7418 21.4588 15.6946 21.4818C15.6369 21.5098 15.4972 21.56 15.22 21.56V25.56ZM19.1516 23.5879C20.0907 22.2128 20.28 20.4619 20.28 18.12H16.28C16.28 20.4581 16.0293 21.0672 15.8484 21.3321L19.1516 23.5879ZM20.28 18.12C20.28 15.7956 20.0901 14.0463 19.1516 12.6721L15.8484 14.9279C16.0299 15.1937 16.28 15.8044 16.28 18.12H20.28ZM19.1641 12.6906C18.2512 11.3212 16.8086 10.7 15.22 10.7V14.7C15.4972 14.7 15.6369 14.7502 15.6946 14.7782C15.7418 14.8012 15.7845 14.8323 15.8359 14.9094L19.1641 12.6906ZM15.22 10.7C13.6314 10.7 12.1888 11.3212 11.2759 12.6906L14.6041 14.9094C14.6555 14.8323 14.6982 14.8012 14.7454 14.7782C14.8031 14.7502 14.9428 14.7 15.22 14.7V10.7ZM11.2884 12.6721C10.3567 14.0363 10.14 15.7687 10.14 18.12H14.14C14.14 15.8313 14.4033 15.2037 14.5916 14.9279L11.2884 12.6721Z" fill="#101E46" mask="url(#path-2-outside-1_1627_19084)"/>
<mask id="path-4-outside-2_1627_19084" maskUnits="userSpaceOnUse" x="19" y="15" width="13" height="17" fill="black">
<rect fill="white" x="19" y="15" width="13" height="17"/>
<path d="M25.354 27.404C26.25 27.404 26.852 26.816 26.852 25.78C26.852 24.618 26.264 24.072 25.2 24.072H24.22V22.294H25.2C26.026 22.294 26.558 21.832 26.558 20.894C26.558 20.068 26.082 19.578 25.354 19.578C24.64 19.578 24.15 20.068 24.15 20.894V21.034H21.966V20.74C21.966 19.032 23.226 17.758 25.354 17.758C27.496 17.758 28.756 19.032 28.756 20.74C28.756 21.986 28.084 22.826 27.09 23.148C28.364 23.47 29.078 24.45 29.078 25.892C29.078 27.922 27.58 29.224 25.354 29.224C23.156 29.224 21.63 27.922 21.63 25.892V25.626H23.87V25.78C23.87 26.816 24.458 27.404 25.354 27.404Z"/>
</mask>
<path d="M25.354 27.404C26.25 27.404 26.852 26.816 26.852 25.78C26.852 24.618 26.264 24.072 25.2 24.072H24.22V22.294H25.2C26.026 22.294 26.558 21.832 26.558 20.894C26.558 20.068 26.082 19.578 25.354 19.578C24.64 19.578 24.15 20.068 24.15 20.894V21.034H21.966V20.74C21.966 19.032 23.226 17.758 25.354 17.758C27.496 17.758 28.756 19.032 28.756 20.74C28.756 21.986 28.084 22.826 27.09 23.148C28.364 23.47 29.078 24.45 29.078 25.892C29.078 27.922 27.58 29.224 25.354 29.224C23.156 29.224 21.63 27.922 21.63 25.892V25.626H23.87V25.78C23.87 26.816 24.458 27.404 25.354 27.404Z" fill="white"/>
<path d="M24.22 24.072H22.22C22.22 25.1766 23.1154 26.072 24.22 26.072V24.072ZM24.22 22.294V20.294C23.1154 20.294 22.22 21.1894 22.22 22.294H24.22ZM24.15 21.034V23.034C25.2546 23.034 26.15 22.1386 26.15 21.034H24.15ZM21.966 21.034H19.966C19.966 22.1386 20.8614 23.034 21.966 23.034V21.034ZM27.09 23.148L26.4736 21.2453C25.6256 21.52 25.0618 22.3228 25.0911 23.2137C25.1204 24.1046 25.7357 24.8686 26.5999 25.087L27.09 23.148ZM21.63 25.626V23.626C20.5254 23.626 19.63 24.5214 19.63 25.626H21.63ZM23.87 25.626H25.87C25.87 24.5214 24.9746 23.626 23.87 23.626V25.626ZM25.354 29.404C26.2508 29.404 27.1858 29.0987 27.8895 28.3575C28.5841 27.6259 28.852 26.6824 28.852 25.78H24.852C24.852 25.9136 24.8189 25.7821 24.9885 25.6035C25.0672 25.5206 25.1575 25.4646 25.2379 25.4332C25.3146 25.4032 25.3597 25.404 25.354 25.404V29.404ZM28.852 25.78C28.852 24.8845 28.6236 23.8653 27.8436 23.0804C27.0617 22.2936 26.0533 22.072 25.2 22.072V26.072C25.3004 26.072 25.3119 26.0855 25.2654 26.0698C25.2098 26.0509 25.1075 26.0018 25.0064 25.9001C24.9055 25.7986 24.8612 25.7004 24.8467 25.6571C24.8353 25.6228 24.852 25.6526 24.852 25.78H28.852ZM25.2 22.072H24.22V26.072H25.2V22.072ZM26.22 24.072V22.294H22.22V24.072H26.22ZM24.22 24.294H25.2V20.294H24.22V24.294ZM25.2 24.294C25.9755 24.294 26.8801 24.0722 27.5924 23.3705C28.3112 22.6623 28.558 21.7378 28.558 20.894H24.558C24.558 20.9882 24.5388 20.7637 24.7851 20.521C25.0249 20.2848 25.2505 20.294 25.2 20.294V24.294ZM28.558 20.894C28.558 20.1023 28.3252 19.2432 27.6934 18.564C27.0476 17.8699 26.1833 17.578 25.354 17.578V21.578C25.2527 21.578 24.9904 21.5311 24.7646 21.2885C24.5528 21.0608 24.558 20.8597 24.558 20.894H28.558ZM25.354 17.578C24.5234 17.578 23.6662 17.875 23.0255 18.558C22.395 19.2302 22.15 20.087 22.15 20.894H26.15C26.15 20.875 26.15 21.0738 25.943 21.2945C25.7258 21.526 25.4706 21.578 25.354 21.578V17.578ZM22.15 20.894V21.034H26.15V20.894H22.15ZM24.15 19.034H21.966V23.034H24.15V19.034ZM23.966 21.034V20.74H19.966V21.034H23.966ZM23.966 20.74C23.966 20.3987 24.0797 20.2052 24.2126 20.0835C24.3564 19.9519 24.6887 19.758 25.354 19.758V15.758C23.8913 15.758 22.5296 16.2011 21.5114 17.1335C20.4823 18.0758 19.966 19.3733 19.966 20.74H23.966ZM25.354 19.758C26.0295 19.758 26.3655 19.9538 26.5098 20.0856C26.6426 20.2068 26.756 20.399 26.756 20.74H30.756C30.756 19.373 30.2394 18.0742 29.2067 17.1314C28.1855 16.1992 26.8205 15.758 25.354 15.758V19.758ZM26.756 20.74C26.756 20.9942 26.6919 21.0953 26.6725 21.1221C26.652 21.1506 26.6042 21.203 26.4736 21.2453L27.7064 25.0507C29.5404 24.4565 30.756 22.8371 30.756 20.74H26.756ZM26.5999 25.087C26.8385 25.1473 26.9123 25.2323 26.943 25.2745C26.9832 25.33 27.078 25.4995 27.078 25.892H31.078C31.078 24.8425 30.8158 23.801 30.1805 22.9255C29.5357 22.0367 28.6155 21.4707 27.5801 21.209L26.5999 25.087ZM27.078 25.892C27.078 26.3841 26.913 26.655 26.7233 26.8233C26.5095 27.013 26.0851 27.224 25.354 27.224V31.224C26.8489 31.224 28.2865 30.784 29.3782 29.8152C30.494 28.825 31.078 27.4299 31.078 25.892H27.078ZM25.354 27.224C24.6419 27.224 24.2132 27.0157 23.9913 26.8198C23.7937 26.6455 23.63 26.3726 23.63 25.892H19.63C19.63 27.4414 20.2293 28.8345 21.3442 29.8187C22.4348 30.7813 23.8681 31.224 25.354 31.224V27.224ZM23.63 25.892V25.626H19.63V25.892H23.63ZM21.63 27.626H23.87V23.626H21.63V27.626ZM21.87 25.626V25.78H25.87V25.626H21.87ZM21.87 25.78C21.87 26.67 22.1273 27.6122 22.8163 28.3478C23.5183 29.0971 24.4554 29.404 25.354 29.404V25.404C25.3483 25.404 25.3962 25.4032 25.4768 25.435C25.5616 25.4684 25.6552 25.5273 25.7357 25.6132C25.9067 25.7958 25.87 25.926 25.87 25.78H21.87Z" fill="#101E46" mask="url(#path-4-outside-2_1627_19084)"/>
</svg>
