<svg width="15" height="189" viewBox="0 0 15 189" fill="none" xmlns="http://www.w3.org/2000/svg">
<path d="M9.57822 1.21391C11.1862 1.21391 12.1462 2.67791 12.1462 4.80191C12.1462 5.98991 11.8942 7.12991 11.4022 8.04191L10.2502 7.50191C10.7302 6.74591 11.0062 5.78591 11.0062 4.92191C11.0062 3.33791 10.4062 2.59391 9.63822 2.59391C8.85822 2.59391 8.45022 3.51791 7.92222 5.04191C7.32222 6.75791 6.75822 8.22191 4.92222 8.22191C3.51822 8.22191 2.28222 6.91391 2.28222 4.63391C2.28222 3.33791 2.52222 2.11391 3.09822 1.03391L4.31022 1.60991C3.78222 2.37791 3.43422 3.50591 3.43422 4.51391C3.43422 5.94191 4.07022 6.84191 4.86222 6.84191C5.93022 6.84191 6.29022 5.94191 6.81822 4.38191C7.40622 2.66591 8.01822 1.21391 9.57822 1.21391ZM4.27422 20.9841L3.18222 21.6321C2.63022 20.8521 2.28222 19.7001 2.28222 18.3801C2.28222 15.5241 4.31022 13.3161 7.21422 13.3161C10.1182 13.3161 12.1462 15.5241 12.1462 18.3801C12.1462 19.6521 11.8462 20.7201 11.3182 21.4761L10.2262 20.8641C10.7062 20.2641 10.9822 19.3641 10.9822 18.4401C10.9822 16.3521 9.37422 14.6841 7.21422 14.6841C5.05422 14.6841 3.45822 16.3521 3.45822 18.4401C3.45822 19.4001 3.75822 20.3961 4.27422 20.9841ZM2.52222 28.0771L2.52222 26.7931L11.9062 26.7931L11.9062 30.7651C11.9062 32.7451 10.7422 34.0291 8.99022 34.0291C7.74222 34.0291 6.80622 33.3811 6.37422 32.2891L2.52222 34.5691L2.52222 33.0571L6.11022 31.0651C6.09822 30.9691 6.09822 30.8731 6.09822 30.7651L6.09822 28.0771L2.52222 28.0771ZM10.7902 28.0771L7.19022 28.0771L7.19022 30.7051C7.19022 31.9771 7.82622 32.7211 8.99022 32.7211C10.1542 32.7211 10.7902 31.9771 10.7902 30.7051L10.7902 28.0771ZM7.21422 39.1386C10.0342 39.1386 12.1462 41.2266 12.1462 44.0826C12.1462 46.9266 10.0342 49.0266 7.21422 49.0266C4.39422 49.0266 2.28222 46.9266 2.28222 44.0826C2.28222 41.2266 4.39422 39.1386 7.21422 39.1386ZM7.21422 40.4946C5.04222 40.4946 3.45822 42.0306 3.45822 44.0826C3.45822 46.1346 5.04222 47.6706 7.21422 47.6706C9.38622 47.6706 10.9702 46.1346 10.9702 44.0826C10.9702 42.0306 9.38622 40.4946 7.21422 40.4946ZM2.52222 60.8118L2.52222 54.5478L11.9062 54.5478L11.9062 55.9038L3.68622 55.9038L3.68622 60.8118L2.52222 60.8118ZM2.52222 72.2985L2.52222 66.0345L11.9062 66.0345L11.9062 67.3905L3.68622 67.3905L3.68622 72.2985L2.52222 72.2985ZM2.52221 88.7726L2.52221 85.3166L11.9062 85.3166L11.9062 88.7726C11.9062 91.4246 10.0222 93.1166 7.21422 93.1166C4.40621 93.1166 2.52221 91.4246 2.52221 88.7726ZM10.7902 86.6246L3.65021 86.6246L3.65021 88.5926C3.65021 90.4766 4.94621 91.7966 7.21422 91.7966C9.48222 91.7966 10.7902 90.4766 10.7902 88.5926L10.7902 86.6246ZM7.21421 98.2128C10.0342 98.2128 12.1462 100.301 12.1462 103.157C12.1462 106.001 10.0342 108.101 7.21421 108.101C4.39421 108.101 2.28221 106.001 2.28221 103.157C2.28221 100.301 4.39421 98.2128 7.21421 98.2128ZM7.21421 99.5688C5.04221 99.5688 3.45821 101.105 3.45821 103.157C3.45821 105.209 5.04221 106.745 7.21421 106.745C9.38621 106.745 10.9702 105.209 10.9702 103.157C10.9702 101.105 9.38621 99.5688 7.21421 99.5688ZM2.52221 115.446L11.9062 112.722L11.9062 114.126L6.00221 115.71L3.96221 116.13L6.00221 116.55L11.9062 118.086L11.9062 119.43L6.00221 120.966L3.96221 121.386L6.00221 121.806L11.9062 123.39L11.9062 124.794L2.52221 122.07L2.52221 120.702L8.48621 119.19L10.4662 118.758L8.48621 118.338L2.52221 116.814L2.52221 115.446ZM2.52221 131.045L2.52221 129.773L11.9062 129.773L11.9062 131.201L4.21421 136.433L6.85421 136.337L11.9062 136.337L11.9062 137.609L2.52221 137.609L2.52221 136.181L10.2142 130.949L7.57421 131.045L2.52221 131.045Z" fill="#6C757D"/>
<path d="M7.07422 165L0.0742188 158H14.0742L7.07422 165Z" fill="#343A40"/>
<path d="M7.07422 176L0.0742188 169H14.0742L7.07422 176Z" fill="#6C757D"/>
<path d="M7.07422 187L0.0742188 180H14.0742L7.07422 187Z" fill="#8D9BA8"/>
</svg>
