<svg width="40" height="40" viewBox="0 0 40 40" fill="none" xmlns="http://www.w3.org/2000/svg">
<path d="M26.008 36.0677C25.0885 35.2033 25.2101 29.8135 25.1645 29.7533C24.8605 29.3324 20.3161 29.6406 19.1761 29.7834C18.0362 29.6331 15.3308 29.3324 15.0269 29.7533C14.9813 29.8135 15.1029 35.2108 14.1833 36.0677C13.2638 36.9247 11.9643 37.5561 12.0403 37.8042C12.1163 38.0598 12.4203 37.9846 12.4203 37.9846H27.7635C27.7635 37.9846 28.0751 38.0598 28.1435 37.8042C28.2195 37.5561 26.92 36.9247 26.0004 36.0677H26.008Z" fill="#6ABBEE" stroke="#282828" stroke-width="2" stroke-linecap="round" stroke-linejoin="round"/>
<path d="M36.1911 29.8661C36.1911 30.3021 35.834 30.6554 35.3932 30.6554H4.79794C4.35717 30.6554 4 30.3021 4 29.8661V7.24701C4 6.81102 4.35717 6.4502 4.79794 6.4502H35.3856C35.8264 6.4502 36.1835 6.81102 36.1835 7.24701V29.8661H36.1911Z" fill="#F8CE00" stroke="#282828" stroke-width="2" stroke-linecap="round" stroke-linejoin="round"/>
<path d="M4 29.8659C4 30.3019 4.35717 30.6552 4.79794 30.6552H35.3856C35.8264 30.6552 36.1835 30.3019 36.1835 29.8659V24.9647H4V29.8659Z" fill="white" stroke="#282828" stroke-width="2" stroke-linecap="round" stroke-linejoin="round"/>
<path d="M20.0955 10.7501L12.4353 6.37512V15.1176L20.0955 19.4925V10.7501Z" fill="white" stroke="#282828" stroke-width="2" stroke-linecap="round" stroke-linejoin="round"/>
<path d="M20.0955 2L12.4353 6.37498L20.0955 10.75L27.7481 6.37498L20.0955 2Z" fill="#EE5750" stroke="#282828" stroke-width="2" stroke-linecap="round" stroke-linejoin="round"/>
<path d="M27.7481 6.37512L20.0955 10.7501V19.4925L27.7481 15.1176V6.37512Z" fill="white" stroke="#282828" stroke-width="2" stroke-linecap="round" stroke-linejoin="round"/>
</svg>
