<svg width="40" height="40" viewBox="0 0 40 40" fill="none" xmlns="http://www.w3.org/2000/svg">
<path d="M7.85983 2H21.3773C23.5082 2 25.2371 3.70521 25.2371 5.80698V34.1928C25.2371 36.2946 23.5082 37.9998 21.3773 37.9998H7.85983C5.72888 37.9998 4 36.2946 4 34.1928V5.80698C4 3.70521 5.72888 2 7.85983 2Z" fill="#6ABBEE" stroke="#282828" stroke-width="2" stroke-linecap="round" stroke-linejoin="round"/>
<path d="M12.7893 5.61652H16.4561" stroke="#282828" stroke-width="2" stroke-linecap="round" stroke-linejoin="round"/>
<path d="M31.2035 8.97949H18.1525C15.9319 8.97949 14.1318 10.755 14.1318 12.9451V30.021C14.1318 32.2111 15.9319 33.9866 18.1525 33.9866H31.2035C33.4241 33.9866 35.2242 32.2111 35.2242 30.021V12.9451C35.2242 10.755 33.4241 8.97949 31.2035 8.97949Z" fill="white"/>
<path d="M31.2035 8.97949H18.1525C15.9319 8.97949 14.1318 10.755 14.1318 12.9451V30.021C14.1318 32.2111 15.9319 33.9866 18.1525 33.9866H31.2035C33.4241 33.9866 35.2242 32.2111 35.2242 30.021V12.9451C35.2242 10.755 33.4241 8.97949 31.2035 8.97949Z" stroke="#282828" stroke-width="2" stroke-linecap="round" stroke-linejoin="round"/>
<path d="M22.0122 14.8724H27.3436" stroke="#282828" stroke-width="2" stroke-linecap="round" stroke-linejoin="round"/>
<path d="M19.6963 20.2736H29.6514" stroke="#282828" stroke-width="2" stroke-linecap="round" stroke-linejoin="round"/>
<path d="M19.6963 23.8187H29.6514" stroke="#282828" stroke-width="2" stroke-linecap="round" stroke-linejoin="round"/>
<path d="M19.6963 27.3642H29.6514" stroke="#282828" stroke-width="2" stroke-linecap="round" stroke-linejoin="round"/>
</svg>
