<svg width="40" height="40" viewBox="0 0 40 40" fill="none" xmlns="http://www.w3.org/2000/svg">
<path d="M4.66982 3H14.88C16.3556 3 17.5498 4.18056 17.5498 5.6394V34.3608C17.5498 35.8196 16.3556 37.0002 14.88 37.0002H4.66982C3.19417 37.0002 2 35.8196 2 34.3608V5.6394C2 4.18056 3.19417 3 4.66982 3Z" fill="#C6EEEC" stroke="#282828" stroke-width="2" stroke-linecap="round" stroke-linejoin="round"/>
<path d="M11.8007 8.00903H7.74902V16.4332H11.8007V8.00903Z" fill="#EE5750" stroke="#282828" stroke-width="2" stroke-linecap="round" stroke-linejoin="round"/>
<path d="M24.9962 3H35.2064C36.6821 3 37.8762 4.18056 37.8762 5.6394V34.3608C37.8762 35.8196 36.6821 37.0002 35.2064 37.0002H24.9962C23.5206 37.0002 22.3264 35.8196 22.3264 34.3608V5.6394C22.3264 4.18056 23.5206 3 24.9962 3Z" fill="#DBCAFF" stroke="#282828" stroke-width="2" stroke-linecap="round" stroke-linejoin="round"/>
<path d="M32.1271 8.00903H28.0754V16.4332H32.1271V8.00903Z" fill="#EE5750" stroke="#282828" stroke-width="2" stroke-linecap="round" stroke-linejoin="round"/>
</svg>
