<svg width="40" height="40" viewBox="0 0 40 40" fill="none" xmlns="http://www.w3.org/2000/svg">
<circle cx="20" cy="20" r="20" fill="#FE0000"/>
<path fill-rule="evenodd" clip-rule="evenodd" d="M29.0976 12.7157C30.0445 12.9679 30.7896 13.7169 31.0418 14.6716C31.4998 16.3985 31.4959 19.9999 31.4959 19.9999C31.4959 19.9999 31.4959 23.6012 31.0379 25.3281C30.7857 26.2789 30.0406 27.0279 29.0937 27.284C27.3784 27.7459 20.4978 27.7459 20.4978 27.7459C20.4978 27.7459 13.6172 27.7459 11.9019 27.284C10.955 27.0318 10.2099 26.2828 9.95768 25.3281C9.49976 23.6012 9.49976 19.9999 9.49976 19.9999C9.49976 19.9999 9.49976 16.3985 9.96157 14.6677C10.2138 13.7169 10.9589 12.9679 11.9058 12.7118C13.6211 12.25 20.5017 12.25 20.5017 12.25C20.5017 12.25 27.3784 12.25 29.0976 12.7157ZM24.0023 19.9999L18.251 16.7284V23.2714L24.0023 19.9999Z" fill="white"/>
</svg>
