<svg width="40" height="40" viewBox="0 0 40 40" fill="none" xmlns="http://www.w3.org/2000/svg">
<path d="M32.3626 6.63828C32.3626 6.56454 32.377 6.4908 32.3842 6.41706C32.4708 4.50718 33.6899 2.91438 35.3636 2.28759V2H9.53758C7.10648 2 5.13707 3.9615 5.02164 6.41706C5.02164 6.4908 5 6.55716 5 6.63828C5 9.19707 7.03434 11.2766 9.53758 11.2766H35.3636V10.9816C33.6178 10.3327 32.3626 8.64402 32.3626 6.63828Z" fill="white" stroke="#282828" stroke-width="2" stroke-linecap="round" stroke-linejoin="round"/>
<path d="M9.53758 11.2763C7.03434 11.2763 5 9.55867 5 6.99988V33.2141H5.01443C5.01443 33.2657 5 33.3174 5 33.369C5 35.9278 7.03434 38.0073 9.53758 38.0073H35.3636V11.2763H9.53758Z" fill="#F8CE00" stroke="#282828" stroke-width="2" stroke-linecap="round" stroke-linejoin="round"/>
<path d="M19.8895 22.6253L15.9002 19.8453L11.9109 22.6253V16.9694V11.3209H15.9002H19.8895V16.9694V22.6253Z" fill="#6ABBEE" stroke="#282828" stroke-width="2" stroke-linecap="round" stroke-linejoin="round"/>
<path d="M32.135 7H20.135" stroke="#282828" stroke-width="2" stroke-linecap="round" stroke-linejoin="round"/>
</svg>
