<svg width="40" height="40" viewBox="0 0 40 40" fill="none" xmlns="http://www.w3.org/2000/svg">
<path d="M7.38383 9.30042H32.6176C33.6105 9.30042 34.4168 10.1121 34.4168 11.1117V31.4572C34.4168 32.4568 33.6105 33.2685 32.6176 33.2685H7.38383C6.3909 33.2685 5.57715 32.4568 5.57715 31.4496V11.1193C5.57715 10.1196 6.38343 9.30042 7.38383 9.30042Z" fill="#6ABBEE" stroke="#282828" stroke-width="2" stroke-linecap="round" stroke-linejoin="round"/>
<path d="M35.5215 35.1475H4.47952C3.12078 35.1475 2.01587 34.0352 2.01587 32.6673V29.7812H16.2677L16.3872 30.2998C16.5066 30.8259 16.962 31.1942 17.4995 31.1942H22.509C23.039 31.1942 23.4944 30.8259 23.6213 30.2998L23.7408 29.7812H38.0001V32.6673C38.0001 34.0352 36.8952 35.1475 35.5365 35.1475H35.5215Z" fill="#C6EEEC" stroke="#282828" stroke-width="2" stroke-linecap="round" stroke-linejoin="round"/>
<path d="M25.0471 4.86609H14.9536V15.6213H25.0471V4.86609Z" fill="white" stroke="#282828" stroke-width="2" stroke-linecap="round" stroke-linejoin="round"/>
<path d="M18.582 10.2473H21.419" stroke="#282828" stroke-width="2" stroke-linecap="round" stroke-linejoin="round"/>
<path d="M12 23H28" stroke="#282828" stroke-width="2" stroke-linecap="round" stroke-linejoin="round"/>
</svg>
