<svg width="40" height="40" viewBox="0 0 40 40" fill="none" xmlns="http://www.w3.org/2000/svg">
<circle cx="20" cy="20" r="20" fill="#E9309F"/>
<path d="M20.5002 16.8335C18.7885 16.8335 17.3335 18.2885 17.3335 20.0002C17.3335 21.7119 18.7885 23.1668 20.5002 23.1668C22.2119 23.1668 23.6668 21.7119 23.6668 20.0002C23.6668 18.2885 22.2119 16.8335 20.5002 16.8335Z" fill="white"/>
<path d="M24.5588 10.5H16.527C13.4179 10.5 10.9998 12.9182 10.9998 15.9409V23.9727C10.9998 27.0818 13.4179 29.5 16.527 29.5H24.5588C27.5816 29.5 29.9998 27.0818 29.9998 23.9727V15.9409C29.9998 12.9182 27.5816 10.5 24.5588 10.5ZM20.4998 25.0091C17.7361 25.0091 15.577 22.7636 15.577 20.0864C15.577 17.4091 17.7361 15.0773 20.4998 15.0773C23.2634 15.0773 25.4225 17.3227 25.4225 20C25.4225 22.6773 23.2634 25.0091 20.4998 25.0091ZM25.5952 16.1136C24.9907 16.1136 24.4725 15.5955 24.4725 14.9909C24.4725 14.3864 24.9907 13.8682 25.5952 13.8682C26.1998 13.8682 26.7179 14.3864 26.7179 14.9909C26.7179 15.5955 26.1998 16.1136 25.5952 16.1136Z" fill="white"/>
</svg>
