<svg width="40" height="40" viewBox="0 0 40 40" fill="none" xmlns="http://www.w3.org/2000/svg">
<path d="M28.7823 23.8118L27.8322 18.2335C27.8322 18.2335 31.5748 14.5118 31.7401 14.3461C33.6899 12.4479 33.3181 10.5664 31.0296 9.9033L24.8414 8.99983L22.1481 3.52927C20.9005 1.49024 19.0995 1.49024 17.8519 3.52927L15.1586 8.99983L8.97044 9.9033C6.68191 10.5664 6.31012 12.4397 8.25992 14.3461C8.42516 14.5118 12.176 18.2335 12.176 18.2335L11.2259 23.8118C10.8459 26.6134 12.5809 27.7987 15.1668 26.431C15.3982 26.3067 20 23.9361 20 23.9361C20 23.9361 24.6018 26.3067 24.8332 26.431C27.4191 27.7987 29.1541 26.6134 28.7741 23.8118H28.7823Z" fill="#F8CE00" stroke="#282828" stroke-width="2" stroke-linecap="round" stroke-linejoin="round"/>
<path d="M28 35C28 36.6536 26.8038 38 25.3347 38H14.6653C13.1962 38 12 36.6536 12 35C12 33.3464 13.1962 32 14.6653 32H25.3347C26.8118 32 28 33.3464 28 35Z" fill="#C6EEEC" stroke="#282828" stroke-width="2" stroke-linecap="round" stroke-linejoin="round"/>
</svg>
