<svg width="40" height="40" viewBox="0 0 40 40" fill="none" xmlns="http://www.w3.org/2000/svg">
<path d="M35.1715 15H4.8285C3.81865 15 3 15.8133 3 16.8167V33.1833C3 34.1867 3.81865 35 4.8285 35H35.1715C36.1814 35 37 34.1867 37 33.1833V16.8167C37 15.8133 36.1814 15 35.1715 15Z" fill="#C6EEEC" stroke="#282828" stroke-width="2" stroke-linecap="round" stroke-linejoin="round"/>
<path d="M10.8347 4C9.82859 4 9 4.81755 9 5.81028V33.1897C9 34.1908 9.82859 35 10.8347 35H29.1653C30.1714 35 31 34.1825 31 33.1897V5.81028C31 4.81755 30.1714 4 29.1653 4H10.8347Z" fill="#F8CE00" stroke="#282828" stroke-width="2" stroke-linecap="round" stroke-linejoin="round"/>
<path d="M17.1843 10.5908H22.8154" stroke="#282828" stroke-width="2" stroke-linecap="round" stroke-linejoin="round"/>
<path d="M17.1843 17.2734H22.8154" stroke="#282828" stroke-width="2" stroke-linecap="round" stroke-linejoin="round"/>
</svg>
