<svg width="40" height="40" viewBox="0 0 40 40" fill="none" xmlns="http://www.w3.org/2000/svg">
<path d="M37.0687 32.5903L28.0559 23.5664L21.4166 16.9252C20.1749 15.6916 18.173 15.6916 16.9313 16.9252C15.6896 18.1673 15.6896 20.1698 16.9313 21.4118L23.5706 28.053L32.5834 37.0685C33.8251 38.3105 35.827 38.3105 37.0687 37.0685C38.3104 35.8264 38.3104 33.8239 37.0687 32.5819V32.5903Z" fill="#EE5750" stroke="#282828" stroke-width="2" stroke-linecap="round" stroke-linejoin="round"/>
<path d="M25.0445 5.95552C30.3185 11.2295 30.3185 19.7788 25.0445 25.0445C19.7705 30.3185 11.2212 30.3185 5.95552 25.0445C0.681493 19.7705 0.681493 11.2295 5.95552 5.95552C11.2212 0.681493 19.7705 0.681493 25.0445 5.95552Z" fill="white" stroke="#282828" stroke-width="2" stroke-linecap="round" stroke-linejoin="round"/>
<path d="M22.2176 8.78242C25.9275 12.4923 25.9275 18.5077 22.2176 22.2176C18.5077 25.9275 12.4923 25.9275 8.78242 22.2176C5.07253 18.5077 5.07253 12.4923 8.78242 8.78242C12.4923 5.07253 18.5077 5.07253 22.2176 8.78242Z" fill="#56C1A7" stroke="#282828" stroke-width="2" stroke-linecap="round" stroke-linejoin="round"/>
<path d="M10 16C10 14.4637 10.5889 12.9275 11.7582 11.7582C12.9275 10.5889 14.4637 10 16 10" stroke="#282828" stroke-width="2" stroke-linecap="round" stroke-linejoin="round"/>
</svg>
