<svg width="40" height="40" viewBox="0 0 40 40" fill="none" xmlns="http://www.w3.org/2000/svg">
<path d="M19.4175 4V6.57538" stroke="#282828" stroke-width="2" stroke-linecap="round" stroke-linejoin="round"/>
<path d="M12.064 5.95453L13.3643 8.18499" stroke="#282828" stroke-width="2" stroke-linecap="round" stroke-linejoin="round"/>
<path d="M25.478 8.18499L26.7784 5.95453" stroke="#282828" stroke-width="2" stroke-linecap="round" stroke-linejoin="round"/>
<path d="M13.3412 17.7125C13.3412 19.8816 11.5686 21.6369 9.37811 21.6369C7.18758 21.6369 5.41504 19.8816 5.41504 17.7125C5.41504 15.5433 7.18758 13.7881 9.37811 13.7881C11.5686 13.7881 13.3412 15.5433 13.3412 17.7125Z" fill="#9CC445" stroke="#282828" stroke-width="2" stroke-linecap="round" stroke-linejoin="round"/>
<path d="M34.2633 17.7125C34.2633 19.8816 32.4908 21.6369 30.3002 21.6369C28.1097 21.6369 26.3372 19.8816 26.3372 17.7125C26.3372 15.5433 28.1097 13.7881 30.3002 13.7881C32.4908 13.7881 34.2633 15.5433 34.2633 17.7125Z" fill="#9CC445" stroke="#282828" stroke-width="2" stroke-linecap="round" stroke-linejoin="round"/>
<path d="M15.253 26.8915C14.2855 24.6227 12.0175 23.0361 9.37807 23.0361C5.8562 23.0361 3 25.8644 3 29.3519V33.0004H12.451" fill="#9CC445"/>
<path d="M15.253 26.8915C14.2855 24.6227 12.0175 23.0361 9.37807 23.0361C5.8562 23.0361 3 25.8644 3 29.3519V33.0004H12.451" stroke="#282828" stroke-width="2" stroke-linecap="round" stroke-linejoin="round"/>
<path d="M27.2351 33.0004H36.6861V29.3519C36.6861 25.8644 33.8299 23.0361 30.308 23.0361C27.6686 23.0361 25.4007 24.6227 24.4331 26.8915" fill="#9CC445"/>
<path d="M27.2351 33.0004H36.6861V29.3519C36.6861 25.8644 33.8299 23.0361 30.308 23.0361C27.6686 23.0361 25.4007 24.6227 24.4331 26.8915" stroke="#282828" stroke-width="2" stroke-linecap="round" stroke-linejoin="round"/>
<path d="M23.9136 20C23.9136 22.2109 22.1245 24 19.9136 24C17.7026 24 15.9136 22.2109 15.9136 20C15.9136 17.7891 17.7026 16 19.9136 16C22.1245 16 23.9136 17.7891 23.9136 20Z" fill="#F8CE00" stroke="#282828" stroke-width="2" stroke-linecap="round" stroke-linejoin="round"/>
<path d="M24.218 26.9385C23.1264 25.7462 21.6055 25 19.9099 25C18.2144 25 16.6862 25.7462 15.6019 26.9385C14.5612 28.0769 13.9136 29.0077 13.9136 30.7231V35H25.9136V30.7231C25.9136 29.0077 25.2659 28.0769 24.2253 26.9385H24.218Z" fill="#F8CE00" stroke="#282828" stroke-width="2" stroke-linecap="round" stroke-linejoin="round"/>
</svg>
