<svg width="323" height="37" viewBox="0 0 323 37" fill="none" xmlns="http://www.w3.org/2000/svg">
<path d="M19.2108 4.8C19.5041 4.50667 19.7841 4.42667 20.0508 4.56C20.3441 4.66667 20.4641 4.92 20.4108 5.32C20.3574 5.74667 20.2908 6.97333 20.2108 9C20.1308 11.0267 20.1041 12.0667 20.1308 12.12C20.1841 12.2267 20.5174 12.1467 21.1308 11.88C21.7708 11.5867 22.5574 11.32 23.4908 11.08C23.9974 10.9467 24.7041 10.8267 25.6108 10.72C26.5174 10.6133 27.0508 10.5867 27.2108 10.64C27.6108 10.7733 27.5308 11.0267 26.9708 11.4C26.5974 11.6667 26.1708 11.84 25.6908 11.92C25.1841 12 23.8774 12.3867 21.7708 13.08C21.1574 13.2667 20.7708 13.36 20.6108 13.36C20.2908 13.36 20.0908 13.52 20.0108 13.84C19.9574 14.16 19.9441 15.0933 19.9708 16.64C19.9974 18.2667 19.9708 19.2667 19.8908 19.64C19.8374 19.9867 19.6774 20.1467 19.4108 20.12C19.0908 20.0933 18.8908 19.9067 18.8108 19.56C18.7308 19.2133 18.6774 18.2933 18.6508 16.8C18.5974 15.0133 18.5441 13.92 18.4908 13.52C18.4374 13.12 18.4374 12.7733 18.4908 12.48C18.5708 12.24 18.6374 11.0267 18.6908 8.84C18.7708 7.02667 18.8241 5.94666 18.8508 5.6C18.9041 5.25333 19.0241 4.98667 19.2108 4.8ZM9.69078 7.96C10.8108 7.8 11.3974 7.84 11.4508 8.08C11.5308 8.29333 11.4508 8.49333 11.2108 8.68C10.9708 8.84 10.5841 8.97333 10.0508 9.08C9.30412 9.24 7.81078 9.64 5.57078 10.28C4.98411 10.4667 4.21078 10.72 3.25078 11.04C2.47745 11.3067 1.97078 11.4533 1.73078 11.48C1.51745 11.5067 1.34411 11.44 1.21078 11.28C0.997448 11.0667 0.997448 10.7733 1.21078 10.4C1.42411 10.0267 1.69078 9.84 2.01078 9.84C2.17078 9.84 2.62411 9.70667 3.37078 9.44C4.73078 8.98666 5.93078 8.66666 6.97078 8.48C7.37078 8.4 7.91745 8.29333 8.61078 8.16C8.95745 8.08 9.31745 8.01333 9.69078 7.96ZM4.29078 11.68C4.61078 11.4933 4.86411 11.4267 5.05078 11.48C5.23745 11.5333 5.33078 11.6933 5.33078 11.96C5.33078 12.2 5.23745 12.5467 5.05078 13C4.81078 13.5067 4.63745 14 4.53078 14.48C4.34411 15.2267 4.19745 15.7733 4.09078 16.12C3.98411 16.4933 3.90411 16.7867 3.85078 17C3.79745 17.2133 3.77078 17.3867 3.77078 17.52C3.79745 17.6533 3.83745 17.7467 3.89078 17.8C3.97078 17.8267 4.07745 17.84 4.21078 17.84C4.90411 17.7333 6.13078 17.3867 7.89078 16.8C8.69078 16.5333 9.38412 16.32 9.97078 16.16C10.9308 15.9467 11.5041 15.8133 11.6908 15.76C12.5174 15.6 13.0374 15.52 13.2508 15.52C13.4908 15.52 13.6108 15.6267 13.6108 15.84C13.6108 16 13.4908 16.1467 13.2508 16.28C13.0108 16.3867 12.4108 16.6 11.4508 16.92C9.90412 17.4267 8.62412 17.8533 7.61078 18.2C6.06412 18.7333 5.09078 19.0267 4.69078 19.08C4.26411 19.1067 3.93078 19.1867 3.69078 19.32C3.02411 19.6667 2.57078 19.6667 2.33078 19.32C2.09078 18.9733 2.07745 18.32 2.29078 17.36C2.47745 16.5867 2.59745 15.9333 2.65078 15.4C2.75745 14.7333 2.98411 13.9867 3.33078 13.16C3.70411 12.3333 4.02411 11.84 4.29078 11.68ZM15.5308 23.24C15.8241 22.9467 16.0908 22.8533 16.3308 22.96C16.5974 23.0667 16.6908 23.3067 16.6108 23.68C16.5308 24 16.5041 24.2 16.5308 24.28C16.5841 24.36 16.7308 24.44 16.9708 24.52C17.2641 24.6 17.5974 24.8 17.9708 25.12C18.3441 25.44 18.5708 25.72 18.6508 25.96C18.9441 26.6267 18.9041 27.7333 18.5308 29.28C18.1574 30.8267 17.6908 31.8533 17.1308 32.36C16.9441 32.5467 16.5708 32.7733 16.0108 33.04C15.4774 33.3333 15.1308 33.48 14.9708 33.48C14.4374 33.48 13.9974 32.9733 13.6508 31.96C13.3041 30.9733 13.2641 30.08 13.5308 29.28C13.6641 28.9333 13.8108 28.3333 13.9708 27.48C14.1574 26.5733 14.3974 25.8 14.6908 25.16C14.9841 24.52 15.1574 24.08 15.2108 23.84C15.2641 23.6267 15.3708 23.4267 15.5308 23.24ZM16.8108 25.72C16.5174 25.5333 16.3308 25.44 16.2508 25.44C15.9841 25.44 15.7308 25.7333 15.4908 26.32C15.2508 26.9067 15.0908 27.5867 15.0108 28.36C15.0108 28.4933 14.9841 28.7733 14.9308 29.2C14.8774 29.6267 14.8508 29.9333 14.8508 30.12C14.7708 30.8667 14.7841 31.32 14.8908 31.48C15.0241 31.6667 15.3174 31.64 15.7708 31.4C17.0508 30.68 17.6108 29.36 17.4508 27.44C17.3974 26.7733 17.3441 26.3733 17.2908 26.24C17.2374 26.08 17.0774 25.9067 16.8108 25.72ZM44.5302 5.96C44.6368 5.82666 44.7835 5.77333 44.9702 5.8C45.1568 5.8 45.3302 5.85333 45.4902 5.96C45.6502 6.09333 45.7302 7.04 45.7302 8.8C45.7568 10.56 45.7035 12.24 45.5702 13.84C45.5168 14.24 45.4502 14.88 45.3702 15.76C45.2902 16.64 45.2368 17.1867 45.2102 17.4C45.1035 18.4133 45.0502 19.0667 45.0502 19.36C45.0502 19.6533 44.9835 19.8933 44.8502 20.08C44.7435 20.2667 44.6102 20.3467 44.4502 20.32C44.2902 20.2667 44.1568 20.12 44.0502 19.88C43.9702 19.72 43.9302 19 43.9302 17.72C43.9302 16.44 43.9568 15.3867 44.0102 14.56C44.2768 11.3067 44.3568 9.13333 44.2502 8.04C44.1435 7 44.2368 6.30667 44.5302 5.96ZM33.4902 9.72C33.7568 9.64 34.1435 9.61333 34.6502 9.64C35.1568 9.66666 35.4768 9.73333 35.6102 9.84C36.1702 10.2667 35.8102 11.6933 34.5302 14.12C34.2902 14.6 34.1568 14.92 34.1302 15.08C34.1302 15.24 34.2368 15.4667 34.4502 15.76C34.9568 16.5333 35.4502 17.16 35.9302 17.64C37.2368 18.84 37.6902 19.6 37.2902 19.92C37.1568 20.0533 36.7835 19.96 36.1702 19.64C35.5568 19.2933 35.1435 18.96 34.9302 18.64C34.7702 18.4267 34.4902 18.0933 34.0902 17.64C33.6368 17.16 33.3702 16.8533 33.2902 16.72C32.9968 16.3733 32.6102 16.6533 32.1302 17.56C31.9435 17.96 31.5035 18.6533 30.8102 19.64C30.1435 20.6 29.7435 21.12 29.6102 21.2C29.1302 21.52 28.8502 21.48 28.7702 21.08C28.6902 20.68 28.8368 20.2267 29.2102 19.72C29.3968 19.5067 29.5435 19.2667 29.6502 19C29.7568 18.7067 30.0102 18.2667 30.4102 17.68C31.2635 16.4267 31.9435 15.2267 32.4502 14.08C32.5835 13.76 32.7968 13.44 33.0902 13.12C33.6768 12.4267 33.9835 11.84 34.0102 11.36C34.0102 11.2533 33.9702 11.1867 33.8902 11.16C33.2502 11.1067 32.2235 11.56 30.8102 12.52C29.9302 13.1333 29.3168 13.52 28.9702 13.68C28.4902 13.9467 28.2368 14.0933 28.2102 14.12C27.9435 14.28 27.7168 14.1867 27.5302 13.84C27.3968 13.6533 27.3835 13.4533 27.4902 13.24C27.5968 13 27.7968 12.8267 28.0902 12.72C28.3835 12.5867 28.9435 12.2267 29.7702 11.64C30.9435 10.76 31.9435 10.2 32.7702 9.96C32.8768 9.93333 33.0102 9.89333 33.1702 9.84C33.3568 9.78667 33.4635 9.74667 33.4902 9.72ZM37.5302 25C37.7168 24.8933 37.8368 24.84 37.8902 24.84C37.9435 24.84 38.0768 24.88 38.2902 24.96C38.6902 25.0933 38.7968 25.4 38.6102 25.88C38.5035 26.1467 38.3968 26.9333 38.2902 28.24C38.1835 29.52 38.1568 30.28 38.2102 30.52C38.3168 30.84 38.8102 30.8133 39.6902 30.44C40.1168 30.28 40.6102 30.12 41.1702 29.96C41.6235 29.8533 41.9302 29.7733 42.0902 29.72C42.8102 29.5067 43.3302 29.3733 43.6502 29.32C43.9435 29.24 44.2235 29.1733 44.4902 29.12C46.0368 28.6667 47.9568 28.4133 50.2502 28.36C51.3702 28.3067 51.9568 28.3333 52.0102 28.44C52.0902 28.68 51.9702 28.8667 51.6502 29C51.3302 29.1333 50.7435 29.24 49.8902 29.32C48.7168 29.4267 47.3435 29.68 45.7702 30.08C44.1968 30.4533 42.8235 30.8667 41.6502 31.32C38.8768 32.3867 37.2768 32.5867 36.8502 31.92C36.7702 31.76 36.7035 31.2667 36.6502 30.44C36.6235 29.5867 36.6502 28.9333 36.7302 28.48C36.8102 27.9467 36.8635 27.3733 36.8902 26.76C36.9168 25.8 37.1302 25.2133 37.5302 25ZM81.0798 10.12C81.2132 9.98667 81.3865 9.93333 81.5998 9.96C81.8932 10.0133 82.0798 10.1467 82.1598 10.36C82.2398 10.5467 82.3065 10.9467 82.3598 11.56C82.3865 12.0133 82.4265 14.4533 82.4798 18.88C82.5332 23.3067 82.5598 25.8933 82.5598 26.64C82.5332 27.2 82.3198 27.56 81.9198 27.72C81.6798 27.8267 81.5198 27.7333 81.4398 27.44C81.1198 26.2933 80.9332 23.3067 80.8798 18.48C80.8532 15.6267 80.7998 13.64 80.7198 12.52C80.6665 11.6667 80.6532 11.1067 80.6798 10.84C80.7332 10.5733 80.8665 10.3333 81.0798 10.12ZM68.6398 12.4C68.8798 12.2667 69.0932 12.2533 69.2798 12.36C69.4932 12.4667 69.5998 12.6267 69.5998 12.84C69.5998 12.9733 69.4132 13.4933 69.0398 14.4C68.6665 15.3067 68.3065 16.1333 67.9598 16.88C67.7998 17.2533 67.7198 17.5067 67.7198 17.64C67.7465 17.7733 67.8932 17.9867 68.1598 18.28C68.4532 18.6 68.7598 18.96 69.0798 19.36C69.3465 19.7333 69.7065 20.1733 70.1598 20.68C70.6132 21.1333 71.1332 21.7733 71.7198 22.6C72.3065 23.4 72.5998 23.8533 72.5998 23.96C72.5998 24.5467 72.0532 24.4 70.9598 23.52C70.0532 22.8 69.1998 21.92 68.3998 20.88C67.5998 19.84 67.0665 19.32 66.7998 19.32C66.5598 19.2933 66.3065 19.7733 66.0398 20.76C65.7998 21.72 65.4932 22.6933 65.1198 23.68C64.7732 24.64 64.5465 25.12 64.4398 25.12C64.1465 25.1733 63.9598 25 63.8798 24.6C63.7998 24.2 63.8398 23.7733 63.9998 23.32C64.1332 23.0267 64.2265 22.6933 64.2798 22.32C64.3865 21.7333 64.6932 20.72 65.1998 19.28C65.7332 17.84 66.2132 16.7067 66.6398 15.88C66.8798 15.3733 67.0665 14.9067 67.1998 14.48C67.3332 14.1067 67.5465 13.6933 67.8398 13.24C68.1598 12.7867 68.4265 12.5067 68.6398 12.4ZM102.059 5.64C102.379 5.4 102.699 5.42667 103.019 5.72C103.179 5.88 103.192 7.16 103.059 9.56C102.686 16.4933 102.366 20.04 102.099 20.2C101.779 20.4667 101.552 20.2533 101.419 19.56C101.259 18.7067 101.232 17.04 101.339 14.56C101.419 12.9067 101.472 11.2933 101.499 9.72C101.526 8.12 101.566 7.08 101.619 6.6C101.699 6.12 101.846 5.8 102.059 5.64ZM90.9389 7.88C91.8189 7.61333 92.4056 7.58667 92.6989 7.8C92.9922 8.01333 93.0589 8.52 92.8989 9.32C92.7922 10.0667 92.6856 10.72 92.5789 11.28C92.5522 11.6 92.4989 12.0133 92.4189 12.52C92.3389 13.0267 92.2989 13.2933 92.2989 13.32C91.9789 15.2933 91.8989 16.36 92.0589 16.52C92.1122 16.5733 92.2722 16.5733 92.5389 16.52C92.8056 16.4667 93.0189 16.3867 93.1789 16.28C93.3656 16.1733 93.6056 16.0933 93.8989 16.04C94.1922 15.9867 94.4456 15.9867 94.6589 16.04C94.8989 16.0667 95.0189 16.1333 95.0189 16.24C94.9656 16.6133 94.0989 17.0933 92.4189 17.68C91.6722 17.9733 90.7656 18.3867 89.6989 18.92C88.7656 19.3733 88.2056 19.6267 88.0189 19.68C87.8322 19.7067 87.6456 19.64 87.4589 19.48C86.9522 19.0267 87.1656 18.6267 88.0989 18.28C88.4189 18.1467 88.7389 17.9867 89.0589 17.8C89.3256 17.6133 89.6056 17.4533 89.8989 17.32C89.9256 17.32 89.9656 17.3067 90.0189 17.28C90.2589 17.2 90.4056 17.0533 90.4589 16.84C90.5122 16.6267 90.5789 15.9067 90.6589 14.68C90.6856 14.44 90.7122 14.2533 90.7389 14.12C90.7922 13.24 90.8856 12.4533 91.0189 11.76C91.3389 10.1867 91.4456 9.36 91.3389 9.28C91.2856 9.25333 91.1122 9.25333 90.8189 9.28C90.4722 9.33333 89.7922 9.66667 88.7789 10.28C87.7656 10.8667 87.1389 11.32 86.8989 11.64C86.7922 11.7467 86.6322 11.84 86.4189 11.92C85.6989 12.16 85.5922 13.4267 86.0989 15.72C86.4456 17.4267 86.3389 18.28 85.7789 18.28C85.3256 18.28 84.9522 17.5733 84.6589 16.16C84.3922 14.72 84.3122 13.1333 84.4189 11.4C84.4722 10.2 84.5522 9.4 84.6589 9C84.7922 8.57333 85.0056 8.28 85.2989 8.12C85.6456 7.93333 85.8722 7.94666 85.9789 8.16C86.1122 8.34667 86.1122 8.73333 85.9789 9.32C85.8722 9.90666 85.8589 10.24 85.9389 10.32C86.0456 10.3733 86.3522 10.24 86.8589 9.92C88.4589 8.88 89.8189 8.2 90.9389 7.88ZM94.2589 24.88C94.5522 24.72 94.8056 24.72 95.0189 24.88C95.2322 25.0133 95.3122 25.24 95.2589 25.56C95.2056 25.8533 95.1522 26.4667 95.0989 27.4C95.0456 28.2 94.9922 28.9467 94.9389 29.64C94.8856 30.2533 94.9389 30.6267 95.0989 30.76C95.2856 30.8667 95.7122 30.8133 96.3789 30.6C96.6722 30.52 96.9656 30.44 97.2589 30.36C97.3122 30.3333 97.3789 30.3067 97.4589 30.28C97.5389 30.2533 97.6322 30.2267 97.7389 30.2C97.8722 30.1733 97.9522 30.1467 97.9789 30.12C98.0056 30.12 98.2589 30.0533 98.7389 29.92C99.2189 29.8133 100.019 29.6133 101.139 29.32C102.099 29.0267 103.526 28.8133 105.419 28.68C106.406 28.6267 107.072 28.5733 107.419 28.52C108.032 28.44 108.339 28.5733 108.339 28.92C108.339 29.16 107.792 29.36 106.699 29.52C103.019 30.0267 100.019 30.7733 97.6989 31.76C97.1389 32 96.6189 32.16 96.1389 32.24C95.7122 32.2933 95.3256 32.36 94.9789 32.44C94.3122 32.5733 93.8722 32.48 93.6589 32.16C93.4722 31.8667 93.3789 31.1733 93.3789 30.08C93.3789 28.2933 93.4456 27.0267 93.5789 26.28C93.7122 25.5067 93.9389 25.04 94.2589 24.88ZM127.272 8.4C127.352 8.32 127.512 8.29333 127.752 8.32C128.019 8.34667 128.206 8.41333 128.312 8.52C128.526 8.73333 128.526 11.44 128.312 16.64C128.259 18.4 128.232 20.8133 128.232 23.88C128.232 26.3867 128.206 27.92 128.152 28.48C128.126 29.04 128.006 29.3733 127.792 29.48C127.446 29.72 127.192 29.48 127.032 28.76C126.766 27.48 126.686 23.1467 126.792 15.76C126.846 12.7467 126.899 10.8133 126.952 9.96C127.006 9.08 127.112 8.56 127.272 8.4ZM115.112 10.36C115.406 10.1733 115.686 10.16 115.952 10.32C116.219 10.48 116.326 10.7333 116.272 11.08C116.246 11.32 116.339 11.56 116.552 11.8C117.406 12.76 117.712 14 117.472 15.52C117.232 17.04 116.512 18.3333 115.312 19.4C114.646 20.04 114.046 20.4 113.512 20.48C112.979 20.5333 112.579 20.3067 112.312 19.8C112.206 19.5867 112.139 19.1733 112.112 18.56C112.086 17.9467 112.112 17.48 112.192 17.16C112.219 17.0533 112.286 16.7867 112.392 16.36C112.632 15.3467 112.766 14.72 112.792 14.48C113.006 13.52 113.259 12.7867 113.552 12.28C113.819 11.7733 113.952 11.4133 113.952 11.2C113.952 10.6933 114.166 10.44 114.592 10.44C114.832 10.44 115.006 10.4133 115.112 10.36ZM115.552 12.84C115.366 12.6267 115.166 12.6133 114.952 12.8C114.739 12.96 114.566 13.28 114.432 13.76C114.219 14.48 114.059 15.0133 113.952 15.36C113.686 16.24 113.512 17.0133 113.432 17.68C113.379 18.32 113.432 18.68 113.592 18.76C113.806 18.84 114.192 18.56 114.752 17.92C115.339 17.28 115.699 16.7067 115.832 16.2C116.019 15.6133 116.072 14.9867 115.992 14.32C115.939 13.6267 115.792 13.1333 115.552 12.84ZM122.352 22.8C122.832 22.72 123.139 22.7067 123.272 22.76C123.432 22.8133 123.486 22.9333 123.432 23.12C123.406 23.28 123.272 23.4533 123.032 23.64C122.819 23.8 122.632 23.88 122.472 23.88C122.206 23.88 120.752 24.24 118.112 24.96C117.499 25.12 116.539 25.4267 115.232 25.88C113.952 26.3067 113.099 26.6267 112.672 26.84C111.232 27.4267 110.406 27.4667 110.192 26.96C110.112 26.8 110.126 26.6 110.232 26.36C110.339 26.1467 110.486 25.9867 110.672 25.88C110.886 25.7467 111.272 25.6267 111.832 25.52C112.286 25.4133 113.099 25.1733 114.272 24.8C115.472 24.4267 116.379 24.16 116.992 24C117.339 23.92 118.032 23.7467 119.072 23.48C119.952 23.24 121.046 23.0133 122.352 22.8ZM163.335 4.84C163.708 4.70667 163.935 4.93333 164.015 5.52C164.095 6.05333 164.055 7 163.895 8.36C163.602 11.3467 163.388 14.12 163.255 16.68C163.202 17.5333 163.162 18.0533 163.135 18.24C163.108 18.4 163.015 18.5333 162.855 18.64C162.482 18.9867 162.228 18.8667 162.095 18.28C162.042 18.04 162.015 17.1867 162.015 15.72C162.015 14.2267 162.055 13.0533 162.135 12.2C162.188 11.4267 162.175 11.0133 162.095 10.96C162.042 10.88 161.775 10.9733 161.295 11.24C160.868 11.5067 160.455 11.7333 160.055 11.92C159.602 12.16 159.028 12.4933 158.335 12.92C157.588 13.3467 157.068 13.6 156.775 13.68C156.455 13.7867 156.268 14.04 156.215 14.44C156.162 14.84 156.188 15.8133 156.295 17.36C156.348 18.1333 156.348 18.64 156.295 18.88C156.268 19.12 156.148 19.2933 155.935 19.4C155.722 19.5067 155.535 19.4533 155.375 19.24C155.242 19.0267 155.135 18.6533 155.055 18.12C154.922 17.32 154.868 15.92 154.895 13.92C154.922 11.8933 155.028 10.3067 155.215 9.16C155.268 8.68 155.322 8.16 155.375 7.6C155.428 6.74667 155.615 6.2 155.935 5.96C156.522 5.56 156.815 5.82667 156.815 6.76C156.815 7.26667 156.748 8.01333 156.615 9C156.428 10.2 156.335 11.0267 156.335 11.48C156.362 11.9067 156.482 12.12 156.695 12.12C156.855 12.12 157.255 11.9733 157.895 11.68C158.535 11.3867 159.015 11.12 159.335 10.88C159.522 10.7733 159.762 10.6533 160.055 10.52C161.148 10.04 161.802 9.68 162.015 9.44C162.255 9.2 162.415 8.72 162.495 8C162.628 6.53333 162.735 5.66666 162.815 5.4C162.895 5.13333 163.068 4.94667 163.335 4.84ZM146.175 5.16C147.082 5.02667 147.735 5.01333 148.135 5.12C148.562 5.22667 148.762 5.46667 148.735 5.84C148.708 6 148.602 6.12 148.415 6.2C148.255 6.25333 147.842 6.36 147.175 6.52C146.482 6.65333 145.415 6.89333 143.975 7.24C143.388 7.4 142.868 7.57333 142.415 7.76C141.828 8.02667 141.415 8.04 141.175 7.8C140.748 7.34667 141.175 6.81333 142.455 6.2C143.495 5.69333 144.735 5.34666 146.175 5.16ZM148.055 8.68C148.295 8.62667 148.775 8.61333 149.495 8.64C150.215 8.66667 150.655 8.72 150.815 8.8C151.162 8.98667 151.175 9.21333 150.855 9.48C150.642 9.64 150.348 9.72 149.975 9.72C149.228 9.72 148.402 9.85333 147.495 10.12C146.588 10.36 144.922 10.92 142.495 11.8C141.642 12.0933 141.082 12.2667 140.815 12.32C140.548 12.3467 140.375 12.28 140.295 12.12C140.215 11.9867 140.202 11.8267 140.255 11.64C140.308 11.4533 140.402 11.3333 140.535 11.28C141.148 11.04 141.695 10.7867 142.175 10.52C143.455 9.8 144.895 9.29333 146.495 9C147.268 8.86667 147.788 8.76 148.055 8.68ZM146.135 12.4C146.535 12.2133 146.855 12.3733 147.095 12.88C147.228 13.1467 147.468 13.3867 147.815 13.6C148.322 13.9467 148.602 14.36 148.655 14.84C148.708 15.32 148.562 16.1733 148.215 17.4C147.815 18.9467 147.108 20 146.095 20.56C145.215 21.0667 144.575 20.9067 144.175 20.08C143.775 19.2267 143.668 18.3867 143.855 17.56C144.068 16.44 144.228 15.6933 144.335 15.32C144.468 14.9467 144.642 14.5867 144.855 14.24C145.068 13.8933 145.282 13.52 145.495 13.12C145.682 12.8 145.895 12.56 146.135 12.4ZM146.895 14.68C146.655 14.44 146.442 14.4 146.255 14.56C146.068 14.72 145.855 15.1733 145.615 15.92C145.428 16.5333 145.282 17.1067 145.175 17.64C145.095 18.1733 145.082 18.5867 145.135 18.88C145.188 19.1733 145.295 19.32 145.455 19.32C145.588 19.32 145.855 19.1067 146.255 18.68C146.682 18.2533 146.935 17.9333 147.015 17.72C147.228 17.24 147.322 16.68 147.295 16.04C147.268 15.3733 147.135 14.92 146.895 14.68ZM158.615 22.64C158.935 22.5333 159.175 22.5333 159.335 22.64C159.522 22.72 159.588 22.88 159.535 23.12C159.428 23.5467 159.375 23.8133 159.375 23.92C159.402 24 159.508 24.08 159.695 24.16C160.415 24.4533 160.895 25.04 161.135 25.92C161.375 26.7733 161.362 27.84 161.095 29.12C160.855 30.2933 160.308 31.2933 159.455 32.12C158.602 32.9467 157.908 33.16 157.375 32.76C157.028 32.4667 156.802 31.8667 156.695 30.96C156.615 30.0533 156.682 29.0933 156.895 28.08C157.028 27.5733 157.095 27.12 157.095 26.72C157.095 26.3467 157.228 25.88 157.495 25.32C157.762 24.7867 157.935 24.3067 158.015 23.88C158.148 23.16 158.348 22.7467 158.615 22.64ZM159.455 25.48C159.215 25.32 159.082 25.2533 159.055 25.28C158.762 25.3333 158.482 25.9067 158.215 27C157.975 28.0667 157.855 29.2133 157.855 30.44C157.855 31.1067 158.002 31.4133 158.295 31.36C158.695 31.3067 159.135 30.72 159.615 29.6C160.522 27.4133 160.468 26.04 159.455 25.48ZM176.151 1.08C176.418 0.813333 176.738 0.839999 177.111 1.16C177.218 1.26666 177.271 2.10667 177.271 3.68C177.298 5.22667 177.244 6.46667 177.111 7.4C176.951 8.65333 176.871 9.37333 176.871 9.56C176.871 9.74667 176.964 9.86667 177.151 9.92C177.524 10.0533 177.671 10.2533 177.591 10.52C177.538 10.76 177.311 10.88 176.911 10.88C176.298 10.88 174.618 11.4533 171.871 12.6C170.964 12.9733 170.324 13.1733 169.951 13.2C169.578 13.2267 169.284 13.2933 169.071 13.4C168.671 13.6133 168.351 13.6 168.111 13.36C167.978 13.2267 167.911 12.4667 167.911 11.08C167.938 9.66667 168.004 8.8 168.111 8.48C168.191 8.34667 168.244 7.76 168.271 6.72C168.298 4.82667 168.391 3.61333 168.551 3.08C168.711 2.52 169.044 2.24 169.551 2.24C169.871 2.24 170.058 2.30666 170.111 2.44C170.164 2.54667 170.138 2.8 170.031 3.2C169.924 3.6 169.844 4.46667 169.791 5.8C169.738 7.13333 169.764 7.82667 169.871 7.88C169.951 7.93333 170.258 7.81333 170.791 7.52C172.044 6.88 172.858 6.48 173.231 6.32C173.631 6.13333 174.071 5.98667 174.551 5.88C175.164 5.74667 175.511 5.61333 175.591 5.48C175.671 5.32 175.724 4.69333 175.751 3.6C175.804 2.53333 175.844 1.88 175.871 1.64C175.898 1.4 175.991 1.21333 176.151 1.08ZM175.511 7.44C175.511 7.28 175.218 7.26667 174.631 7.4C174.204 7.48 173.524 7.76 172.591 8.24C171.658 8.72 171.018 9.10667 170.671 9.4C170.298 9.72 170.044 9.90667 169.911 9.96C169.538 10.0933 169.324 10.56 169.271 11.36C169.244 11.8133 169.311 12.0533 169.471 12.08C169.684 12.1067 170.671 11.8133 172.431 11.2C172.644 11.1467 173.258 10.9467 174.271 10.6C174.991 10.36 175.391 10.2133 175.471 10.16C175.498 10.1067 175.511 9.76 175.511 9.12C175.538 8.45333 175.538 7.89333 175.511 7.44ZM172.391 13.56C173.111 13.0533 173.471 13.2667 173.471 14.2C173.471 14.6533 173.391 15.2133 173.231 15.88C172.911 17.08 172.804 18.2267 172.911 19.32C172.911 19.4 172.924 19.4533 172.951 19.48C172.978 19.5067 173.044 19.52 173.151 19.52C173.284 19.4933 173.444 19.4667 173.631 19.44C173.818 19.3867 174.071 19.3067 174.391 19.2C176.071 18.72 177.591 18.3867 178.951 18.2C180.338 18.0133 181.098 18.04 181.231 18.28C181.364 18.4933 181.311 18.68 181.071 18.84C180.831 18.9733 180.351 19.0933 179.631 19.2C179.044 19.3067 178.671 19.3867 178.511 19.44C178.458 19.44 178.298 19.48 178.031 19.56C177.764 19.6133 177.564 19.6533 177.431 19.68C176.791 19.84 175.164 20.3467 172.551 21.2C171.644 21.4933 171.151 21.6667 171.071 21.72C171.044 21.72 170.978 21.7467 170.871 21.8C170.764 21.8267 170.618 21.88 170.431 21.96C170.271 22.0133 170.124 22.0667 169.991 22.12C169.404 22.36 168.938 22.5733 168.591 22.76C168.084 23.08 167.564 23.3067 167.031 23.44C166.498 23.5733 166.164 23.5733 166.031 23.44C165.498 22.9067 166.218 22.2 168.191 21.32C168.618 21.1333 169.098 20.9333 169.631 20.72C170.564 20.3733 171.084 20.16 171.191 20.08C171.298 20 171.351 19.7867 171.351 19.44C171.378 15.9733 171.724 14.0133 172.391 13.56ZM177.671 22.96C177.911 22.8533 178.151 22.8 178.391 22.8C178.658 22.7733 178.844 22.8133 178.951 22.92C179.164 23.1867 178.951 25.3333 178.311 29.36C178.178 30.16 178.071 31.1867 177.991 32.44C177.938 33.4267 177.884 34.2 177.831 34.76C177.804 35.32 177.751 35.7733 177.671 36.12C177.618 36.4667 177.551 36.68 177.471 36.76C177.418 36.8667 177.338 36.8933 177.231 36.84C176.911 36.7333 176.724 35.5733 176.671 33.36C176.618 31.1733 176.738 29.0533 177.031 27C177.218 25.5333 177.218 24.76 177.031 24.68C176.764 24.6 176.084 24.7467 174.991 25.12C173.898 25.4933 172.978 25.9067 172.231 26.36C171.031 27.08 170.178 27.2667 169.671 26.92C169.484 26.8133 169.431 26.6133 169.511 26.32C169.644 25.8133 170.604 25.2533 172.391 24.64C172.871 24.4533 173.244 24.3067 173.511 24.2C173.804 24.0667 174.004 24 174.111 24C174.218 24 174.564 23.9067 175.151 23.72C175.738 23.5333 176.231 23.4 176.631 23.32C177.058 23.2133 177.404 23.0933 177.671 22.96ZM199.493 10.28C199.626 10.1467 199.733 10.08 199.813 10.08C199.893 10.0533 200.053 10.08 200.293 10.16C200.506 10.24 200.626 10.3467 200.653 10.48C200.866 11.4133 200.96 13.4533 200.933 16.6C200.933 19.08 200.96 21.4667 201.013 23.76C201.093 25.7067 201.106 26.88 201.053 27.28C201 27.68 200.813 27.8933 200.493 27.92C200.306 27.9467 200.173 27.8933 200.093 27.76C200.04 27.6 199.96 27.2 199.853 26.56C199.586 24.88 199.44 22.0133 199.413 17.96C199.386 14.4667 199.333 12.4667 199.253 11.96C199.12 11.16 199.2 10.6 199.493 10.28ZM187.853 12.68C188.866 12.4667 189.493 12.56 189.733 12.96C190 13.3333 189.88 14.0533 189.373 15.12C189.026 15.92 188.786 16.4933 188.653 16.84C188.44 17.4 188.24 17.84 188.053 18.16C187.893 18.5067 187.813 18.7333 187.813 18.84C187.813 19.0267 188.013 19.48 188.413 20.2C188.84 20.8933 189.32 21.5867 189.853 22.28C191.266 24.12 191.706 25.1067 191.173 25.24C191.04 25.2667 190.853 25.2267 190.613 25.12C190.4 25.04 189.973 24.6267 189.333 23.88C188.693 23.1067 188.213 22.44 187.893 21.88C187.36 21.0267 186.986 20.6 186.773 20.6C186.586 20.5733 186.32 20.96 185.973 21.76C185.76 22.2667 185.56 22.6533 185.373 22.92C185.186 23.24 184.92 23.7333 184.573 24.4C184.333 24.88 184.133 25.2533 183.973 25.52C183.84 25.7867 183.706 25.9867 183.573 26.12C183.466 26.2533 183.36 26.32 183.253 26.32C183.173 26.2933 183.08 26.2133 182.973 26.08C182.813 25.8667 182.773 25.64 182.853 25.4C182.933 25.1333 183.28 24.28 183.893 22.84C184.16 22.2 184.72 21.04 185.573 19.36C186.426 17.6533 186.906 16.72 187.013 16.56C187.36 16.1067 187.626 15.6133 187.813 15.08C188.026 14.52 188.066 14.2 187.933 14.12C187.453 13.8533 186.426 14.24 184.853 15.28C183.013 16.48 181.893 16.9467 181.493 16.68C181.28 16.4933 181.226 16.2 181.333 15.8C181.466 15.3733 181.68 15.16 181.973 15.16C182.16 15.16 182.493 14.9867 182.973 14.64C184.28 13.76 185.906 13.1067 187.853 12.68ZM209.207 6.04C209.527 5.82667 209.873 5.74667 210.247 5.8C210.62 5.85333 210.807 6 210.807 6.24C210.807 6.34667 210.553 6.70667 210.047 7.32C209.513 7.90667 209.153 8.36 208.967 8.68C208.78 9 208.58 9.29333 208.367 9.56C208.127 9.82667 207.753 10.4533 207.247 11.44C206.767 12.4 206.38 13.2667 206.087 14.04C205.82 14.7333 205.593 15.2133 205.407 15.48C205.22 15.7467 205.02 15.88 204.807 15.88C204.487 15.88 204.3 15.72 204.247 15.4C204.193 15.08 204.273 14.68 204.487 14.2C204.673 13.7733 204.82 13.4 204.927 13.08C205.033 12.7333 205.447 11.8667 206.167 10.48C206.887 9.09333 207.367 8.22667 207.607 7.88C208.247 6.92 208.78 6.30667 209.207 6.04ZM211.127 8.56C212.113 8.42666 213.527 8.56 215.367 8.96C217.207 9.33333 218.18 9.68 218.287 10C218.367 10.3467 218.273 10.6 218.007 10.76C217.74 10.92 217.38 10.92 216.927 10.76C216.34 10.5467 215.553 10.3867 214.567 10.28C213.58 10.1733 212.727 10.16 212.007 10.24C210.833 10.3733 210.02 10.4133 209.567 10.36C209.113 10.3067 208.847 10.1467 208.767 9.88C208.687 9.56 208.847 9.28 209.247 9.04C209.673 8.8 210.3 8.64 211.127 8.56ZM217.887 17.16C219.14 17 219.86 17.0133 220.047 17.2C220.18 17.36 220.22 17.5067 220.167 17.64C220.113 17.7733 219.967 17.9067 219.727 18.04C219.513 18.1467 219.233 18.2267 218.887 18.28C218.38 18.3333 217.473 18.5067 216.167 18.8C214.38 19.1733 213.26 19.4533 212.807 19.64C212.273 19.8267 211.527 20.0267 210.567 20.24C209.9 20.3733 209.02 20.6267 207.927 21C206.833 21.3733 206.167 21.64 205.927 21.8C205.393 22.1733 204.807 22.4267 204.167 22.56C203.553 22.6667 203.18 22.6133 203.047 22.4C202.807 22.0533 202.847 21.7333 203.167 21.44C203.487 21.1467 204.193 20.8 205.287 20.4C205.34 20.4 205.86 20.2133 206.847 19.84C208.233 19.3067 209.94 18.8133 211.967 18.36C212.073 18.3333 212.22 18.2933 212.407 18.24C212.62 18.1867 212.86 18.1333 213.127 18.08C213.393 18 213.593 17.9467 213.727 17.92C214.98 17.6267 216.367 17.3733 217.887 17.16ZM214.167 20C214.3 19.92 214.473 19.8667 214.687 19.84C214.927 19.8133 215.073 19.84 215.127 19.92C215.18 20.0267 215.193 21.0133 215.167 22.88C215.167 24.7467 215.127 25.8267 215.047 26.12C214.94 26.68 214.913 28.0267 214.967 30.16C214.993 30.9333 214.98 31.4533 214.927 31.72C214.873 31.9867 214.74 32.1733 214.527 32.28C214.393 32.3067 214.273 32.24 214.167 32.08C214.06 31.9467 213.953 31.7333 213.847 31.44C213.74 31.1733 213.647 30.8533 213.567 30.48C213.513 30.1067 213.473 29.7333 213.447 29.36C213.42 28.9867 213.42 28.6267 213.447 28.28C213.5 27.8267 213.54 26.4533 213.567 24.16C213.593 22.3467 213.633 21.2533 213.687 20.88C213.74 20.48 213.9 20.1867 214.167 20ZM226.784 1.96C227.077 1.93333 227.464 1.94666 227.944 2C228.45 2.02667 228.77 2.08 228.904 2.16C229.197 2.32 229.37 2.50667 229.424 2.72C229.504 2.90667 229.557 3.38667 229.584 4.16C229.61 4.98667 229.597 5.49333 229.544 5.68C229.49 5.84 229.277 6.06667 228.904 6.36C228.664 6.54667 228.504 6.69333 228.424 6.8C228.37 6.90667 228.317 7.12 228.264 7.44C228.077 8.24 227.584 9.10667 226.784 10.04C225.637 11.4 225.064 12.1467 225.064 12.28C225.064 12.68 226.157 12.4267 228.344 11.52C228.69 11.36 229.05 11.2 229.424 11.04C230.49 10.5333 231.224 10.2133 231.624 10.08C232.05 9.92 232.45 9.82667 232.824 9.8C233.197 9.77333 233.37 9.86667 233.344 10.08C233.317 10.3733 232.997 10.6 232.384 10.76C232.09 10.84 231.584 11.0533 230.864 11.4C230.144 11.7467 229.757 11.92 229.704 11.92C229.677 11.92 229.264 12.12 228.464 12.52C227.61 12.92 226.957 13.1867 226.504 13.32C226.077 13.4533 225.584 13.5333 225.024 13.56C224.357 13.5867 223.917 13.5067 223.704 13.32C223.517 13.1067 223.57 12.8 223.864 12.4C224.05 12.16 224.197 11.9067 224.304 11.64C224.41 11.3733 224.73 10.8533 225.264 10.08C226.224 8.66667 226.584 7.92 226.344 7.84C226.184 7.81333 225.744 7.96 225.024 8.28C224.17 8.65333 223.45 8.86667 222.864 8.92C222.304 8.97333 221.97 8.85333 221.864 8.56C221.784 8.32 221.837 8.09333 222.024 7.88C222.237 7.66667 222.49 7.56 222.784 7.56C222.917 7.56 223.264 7.44 223.824 7.2C224.384 6.93333 224.85 6.69333 225.224 6.48C225.624 6.24 226.064 6 226.544 5.76C227.157 5.44 227.584 5.13333 227.824 4.84C228.064 4.54667 228.184 4.17333 228.184 3.72C228.21 2.52 226.677 2.72 223.584 4.32C222.837 4.69333 222.357 4.92 222.144 5C221.93 5.05333 221.77 5.02667 221.664 4.92C221.477 4.73333 221.464 4.48 221.624 4.16C221.784 3.84 221.997 3.68 222.264 3.68C222.344 3.68 222.53 3.58667 222.824 3.4C223.917 2.65333 225.237 2.17333 226.784 1.96ZM233.344 16.16C234.81 16.0533 235.637 16.1067 235.824 16.32C236.037 16.5333 235.93 16.7067 235.504 16.84C235.29 16.8933 234.957 16.9733 234.504 17.08C233.384 17.2933 232.477 17.48 231.784 17.64C231.09 17.8 230.09 18.0133 228.784 18.28C227.77 18.4933 226.97 18.6933 226.384 18.88C224.89 19.4133 223.97 19.7333 223.624 19.84C223.384 19.92 223.09 20.0267 222.744 20.16C221.784 20.5067 221.117 20.68 220.744 20.68C220.37 20.6533 220.184 20.4533 220.184 20.08C220.184 19.8133 220.37 19.5867 220.744 19.4C221.117 19.2133 222.197 18.8133 223.984 18.2C225.664 17.6667 227.717 17.1733 230.144 16.72C230.25 16.6933 230.424 16.6533 230.664 16.6C230.93 16.5467 231.104 16.52 231.184 16.52C232.064 16.3067 232.784 16.1867 233.344 16.16ZM226.784 23.44C227.424 23.2 228.277 23.1067 229.344 23.16C230.437 23.2133 231.17 23.3867 231.544 23.68C231.944 23.9733 232.184 24.64 232.264 25.68C232.344 26.6933 232.21 27.4133 231.864 27.84C231.704 28.0267 231.49 28.4 231.224 28.96C230.957 29.5467 230.717 29.9733 230.504 30.24C229.09 32.0533 228.197 33.4533 227.824 34.44C227.717 34.7067 227.73 34.8267 227.864 34.8C227.997 34.7467 228.21 34.6933 228.504 34.64C228.77 34.5867 229.17 34.48 229.704 34.32C232.424 33.4933 235.117 32.9867 237.784 32.8C238.317 32.7733 238.65 32.7733 238.784 32.8C238.944 32.8533 239.024 32.96 239.024 33.12C239.024 33.4133 238.624 33.6133 237.824 33.72C237.424 33.7467 237.01 33.8 236.584 33.88C236.504 33.9067 236.397 33.9333 236.264 33.96C236.13 33.9867 235.97 34.0133 235.784 34.04C235.624 34.0667 235.517 34.08 235.464 34.08C235.357 34.1067 235.224 34.1333 235.064 34.16C234.93 34.1867 234.784 34.2133 234.624 34.24C234.49 34.2667 234.397 34.2933 234.344 34.32C234.05 34.4 233.797 34.4533 233.584 34.48C232.704 34.64 231.61 34.9333 230.304 35.36C228.17 36.0533 226.837 36.2 226.304 35.8C225.77 35.4 226.037 34.44 227.104 32.92C227.904 31.7467 228.304 31.1333 228.304 31.08C228.304 31.0267 228.557 30.6933 229.064 30.08C230.29 28.56 230.477 27.8533 229.624 27.96C229.49 27.9867 229.33 28.0267 229.144 28.08C228.744 28.2133 228.17 28.4933 227.424 28.92C226.677 29.3467 226.09 29.7333 225.664 30.08C225.077 30.56 224.65 30.6533 224.384 30.36C224.117 30.12 224.237 29.76 224.744 29.28C225.09 28.96 225.997 28.44 227.464 27.72C228.957 26.9733 229.864 26.6 230.184 26.6C230.637 26.6 230.944 26.4133 231.104 26.04C231.264 25.64 231.224 25.1733 230.984 24.64C230.824 24.2667 230.277 24.12 229.344 24.2C228.437 24.2533 227.424 24.5067 226.304 24.96C225.824 25.1467 225.53 25.24 225.424 25.24C225.05 25.24 224.73 25.4667 224.464 25.92C224.224 26.3467 223.984 26.4133 223.744 26.12C223.557 25.9067 223.504 25.5733 223.584 25.12C223.664 24.5067 224.01 24.1467 224.624 24.04C225.157 23.96 225.877 23.76 226.784 23.44ZM251.315 3.96C251.582 3.72 251.835 3.65333 252.075 3.76C252.368 3.86666 252.435 4.26667 252.275 4.96C252.168 5.41333 252.128 6.25333 252.155 7.48V9.36H252.755C253.688 9.33333 255.635 9.08 258.595 8.6C259.102 8.49333 259.622 8.42667 260.155 8.4C260.768 8.32 261.115 8.25333 261.195 8.2C261.355 8.09333 261.542 8.13333 261.755 8.32C261.995 8.50667 262.048 8.68 261.915 8.84C261.808 8.94667 261.648 9.05333 261.435 9.16C261.222 9.26667 261.048 9.32 260.915 9.32C260.728 9.32 260.048 9.45333 258.875 9.72C257.808 9.96 257.275 10.16 257.275 10.32C257.275 10.4 257.342 10.4667 257.475 10.52C257.635 10.6 257.688 10.9733 257.635 11.64C257.608 12.3067 257.475 12.9867 257.235 13.68C257.048 14.2133 256.848 15.4667 256.635 17.44C256.582 17.7867 256.635 17.9733 256.795 18C256.982 18.0267 258.102 17.84 260.155 17.44C260.822 17.3067 261.288 17.24 261.555 17.24C261.875 17.24 262.275 17.2 262.755 17.12C263.395 16.9867 263.715 17.08 263.715 17.4C263.688 17.6933 263.328 17.9067 262.635 18.04C262.422 18.0933 261.915 18.2133 261.115 18.4C261.008 18.4267 260.742 18.5067 260.315 18.64C259.888 18.7467 259.608 18.8133 259.475 18.84C259.342 18.8667 259.128 18.92 258.835 19C258.542 19.08 258.328 19.1333 258.195 19.16C258.008 19.2133 257.342 19.3733 256.195 19.64C255.342 19.8267 254.782 19.96 254.515 20.04C254.222 20.1467 253.648 20.3067 252.795 20.52C252.688 20.5467 252.408 20.6133 251.955 20.72C251.502 20.8267 251.168 20.9067 250.955 20.96C249.542 21.3333 248.902 21.2267 249.035 20.64C249.062 20.5333 249.102 20.4267 249.155 20.32C249.262 20.1333 249.435 20 249.675 19.92C249.942 19.8133 250.808 19.5733 252.275 19.2C253.635 18.8533 254.435 18.6267 254.675 18.52C254.915 18.4133 255.035 18.2267 255.035 17.96C255.035 17.7467 255.088 17.3867 255.195 16.88C255.302 16.3733 255.355 15.92 255.355 15.52C255.355 15.1467 255.422 14.7333 255.555 14.28C255.688 13.8533 255.795 13.36 255.875 12.8C255.955 12.24 256.088 11.72 256.275 11.24C256.488 10.76 256.595 10.5067 256.595 10.48C256.568 10.4267 256.422 10.4133 256.155 10.44C255.888 10.4667 255.555 10.52 255.155 10.6C254.755 10.68 254.408 10.7733 254.115 10.88C253.448 11.0667 252.955 11.2 252.635 11.28C252.342 11.36 252.035 11.4 251.715 11.4C251.395 11.3733 251.182 11.32 251.075 11.24C250.968 11.16 250.862 10.96 250.755 10.64C250.675 10.2933 250.635 9.94667 250.635 9.6C250.635 9.25333 250.635 8.72 250.635 8C250.635 6.53333 250.675 5.56 250.755 5.08C250.835 4.6 251.022 4.22667 251.315 3.96ZM260.035 22.96C260.488 22.88 260.835 22.88 261.075 22.96C261.315 23.0133 261.408 23.16 261.355 23.4C261.302 23.6133 261.088 23.84 260.715 24.08C260.342 24.2667 260.088 24.56 259.955 24.96C259.822 25.36 259.715 26.0533 259.635 27.04C259.528 28.0533 259.328 29.12 259.035 30.24C258.875 30.8 258.808 31.1067 258.835 31.16C258.888 31.24 259.168 31.2267 259.675 31.12C260.582 30.96 261.822 30.8133 263.395 30.68C264.995 30.52 265.875 30.48 266.035 30.56C266.435 30.72 266.462 30.92 266.115 31.16C265.928 31.2667 265.662 31.3467 265.315 31.4C264.808 31.4533 264.208 31.56 263.515 31.72C262.768 31.9067 261.955 32.0933 261.075 32.28C260.222 32.44 259.662 32.56 259.395 32.64C259.342 32.64 259.262 32.6533 259.155 32.68C259.048 32.7333 258.955 32.7733 258.875 32.8C258.795 32.8267 258.728 32.84 258.675 32.84C258.515 32.8933 258.155 33 257.595 33.16C256.822 33.4 256.155 33.5733 255.595 33.68C254.928 33.84 254.315 34 253.755 34.16C253.142 34.32 252.768 34.2667 252.635 34C252.528 33.7867 252.555 33.6 252.715 33.44C252.902 33.28 253.288 33.08 253.875 32.84C254.835 32.4133 255.195 32.1467 254.955 32.04C254.448 31.88 254.355 30.3467 254.675 27.44C254.808 26.4 254.835 25.84 254.755 25.76C254.595 25.6 253.835 25.8667 252.475 26.56C251.835 26.88 251.408 27.0667 251.195 27.12C251.008 27.1467 250.835 27.08 250.675 26.92C250.088 26.36 250.528 25.7333 251.995 25.04C252.528 24.7733 253.155 24.5333 253.875 24.32C253.928 24.32 254.048 24.2933 254.235 24.24C254.448 24.16 254.608 24.1067 254.715 24.08C256.022 23.6533 257.555 23.3333 259.315 23.12C259.502 23.0933 259.742 23.04 260.035 22.96ZM258.395 24.92C258.315 24.76 258.008 24.76 257.475 24.92C256.942 25.08 256.635 25.2533 256.555 25.44C256.288 26.08 256.062 27.84 255.875 30.72C255.822 31.52 255.808 31.96 255.835 32.04C255.862 32.12 256.048 32.1333 256.395 32.08C256.848 32 257.155 31.88 257.315 31.72C257.502 31.56 257.608 31.28 257.635 30.88C257.688 30.4267 257.742 30.1467 257.795 30.04C257.848 29.96 257.902 29.36 257.955 28.24C258.008 27.0933 258.102 26.2667 258.235 25.76C258.368 25.2533 258.422 24.9733 258.395 24.92ZM285.652 10C285.785 9.89333 285.945 9.85333 286.132 9.88C286.345 9.90667 286.519 9.97333 286.652 10.08C286.732 10.16 286.772 10.7333 286.772 11.8C286.772 12.8667 286.732 13.8133 286.652 14.64C286.572 15.2533 286.545 17.5467 286.572 21.52C286.572 21.6267 286.572 21.7733 286.572 21.96C286.572 24.7867 286.559 26.4533 286.532 26.96C286.505 27.44 286.385 27.7333 286.172 27.84C286.172 27.84 286.159 27.84 286.132 27.84C285.945 27.9467 285.772 27.72 285.612 27.16C285.265 26.04 285.092 24.1733 285.092 21.56C285.092 21.4267 285.092 21.24 285.092 21C285.092 20.0667 285.039 19.5467 284.932 19.44C284.825 19.3067 284.465 19.3467 283.852 19.56C283.719 19.6133 283.599 19.6533 283.492 19.68C282.745 19.92 282.145 20.0933 281.692 20.2C281.372 20.2533 281.012 20.3333 280.612 20.44C280.559 20.4667 280.465 20.4933 280.332 20.52C280.225 20.5467 280.092 20.5867 279.932 20.64C279.772 20.6667 279.639 20.6933 279.532 20.72C278.999 20.8533 278.545 20.9867 278.172 21.12C277.319 21.3867 276.692 21.5467 276.292 21.6C275.892 21.6267 275.559 21.5467 275.292 21.36C274.892 21.0933 274.759 20.8533 274.892 20.64C275.052 20.4 275.465 20.2133 276.132 20.08C276.799 19.9467 277.865 19.6933 279.332 19.32C281.012 18.8933 282.052 18.6533 282.452 18.6C283.199 18.44 283.865 18.2133 284.452 17.92L284.932 17.68L285.052 14.2C285.105 12.3867 285.159 11.28 285.212 10.88C285.265 10.48 285.412 10.1867 285.652 10ZM269.492 11.92C269.732 11.8667 269.945 11.8533 270.132 11.88C270.319 11.88 270.452 11.92 270.532 12C270.612 12.08 270.625 12.1867 270.572 12.32C270.439 12.6133 270.385 12.8533 270.412 13.04C270.465 13.2 270.612 13.4133 270.852 13.68C272.319 15.3067 272.559 17.8133 271.572 21.2C271.332 21.9733 270.852 22.76 270.132 23.56C269.412 24.36 268.732 24.8533 268.092 25.04C267.399 25.2533 266.879 24.84 266.532 23.8C266.212 22.76 266.239 21.6267 266.612 20.4C266.932 19.3067 267.145 18.3867 267.252 17.64C267.279 17.5067 267.332 17.2533 267.412 16.88C267.492 16.48 267.532 16.2267 267.532 16.12C267.639 15.5333 267.825 14.9067 268.092 14.24C268.359 13.6 268.519 13.1067 268.572 12.76C268.652 12.3333 268.959 12.0533 269.492 11.92ZM269.932 14.96C269.559 14.6667 269.279 14.7867 269.092 15.32C268.932 15.7467 268.719 16.64 268.452 18C267.812 21.3333 267.692 23.0267 268.092 23.08C268.172 23.1067 268.292 23.0667 268.452 22.96C270.212 21.7067 270.945 19.6933 270.652 16.92C270.572 16.28 270.479 15.84 270.372 15.6C270.292 15.3333 270.145 15.12 269.932 14.96ZM280.292 13.88C280.905 13.7733 281.452 13.72 281.932 13.72C282.412 13.72 282.799 13.7733 283.092 13.88C283.385 13.9867 283.519 14.1333 283.492 14.32C283.465 14.5867 282.919 14.7867 281.852 14.92C280.839 15.08 280.145 15.2267 279.772 15.36C279.745 15.36 279.599 15.4 279.332 15.48C279.092 15.56 278.892 15.6267 278.732 15.68C277.585 16 276.639 16.3467 275.892 16.72C275.305 17.0133 274.825 17.16 274.452 17.16C274.105 17.1333 273.932 16.9467 273.932 16.6C273.932 16.3867 274.119 16.1333 274.492 15.84C274.865 15.52 275.172 15.36 275.412 15.36C275.465 15.36 275.652 15.2933 275.972 15.16C276.852 14.76 277.785 14.44 278.772 14.2C278.852 14.2 279.359 14.0933 280.292 13.88ZM296.51 5.72C297.31 5.58667 297.87 5.58667 298.19 5.72C298.537 5.85333 298.71 6.14667 298.71 6.6C298.71 6.89333 298.617 7.17333 298.43 7.44C298.27 7.68 297.923 8.06667 297.39 8.6C296.75 9.21333 296.43 9.57333 296.43 9.68C296.457 9.78666 296.817 9.81333 297.51 9.76C298.043 9.73333 298.79 9.76 299.75 9.84C300.737 9.92 301.457 10.0267 301.91 10.16C301.99 10.16 302.137 10.1867 302.35 10.24C302.563 10.2933 302.71 10.3333 302.79 10.36C303.883 10.6267 304.43 10.92 304.43 11.24C304.43 11.4533 304.31 11.6 304.07 11.68C303.83 11.76 303.563 11.76 303.27 11.68C302.683 11.4933 302.163 11.3867 301.71 11.36C301.283 11.3067 300.377 11.28 298.99 11.28C297.15 11.28 296.07 11.2267 295.75 11.12C295.483 11.04 295.27 11.04 295.11 11.12C294.95 11.2 294.723 11.4533 294.43 11.88C294.19 12.2 293.897 12.56 293.55 12.96C293.123 13.4933 292.657 14.0667 292.15 14.68C291.483 15.5067 291.03 16.04 290.79 16.28C290.577 16.4933 290.377 16.6 290.19 16.6C289.897 16.6 289.737 16.44 289.71 16.12C289.71 15.7733 289.843 15.48 290.11 15.24C290.297 15.0533 290.497 14.8 290.71 14.48C290.843 14.2667 291.163 13.84 291.67 13.2C292.203 12.56 292.603 12.0933 292.87 11.8C293.003 11.64 293.15 11.4667 293.31 11.28C293.497 11.0133 293.643 10.84 293.75 10.76C293.83 10.68 294.003 10.4267 294.27 10C294.537 9.6 295.017 9.05333 295.71 8.36L296.75 7.28L296.19 7.24C295.657 7.21333 294.883 7.42667 293.87 7.88C292.43 8.49333 291.377 9.01333 290.71 9.44C290.123 9.81333 289.617 9.98667 289.19 9.96C288.79 9.90667 288.59 9.68 288.59 9.28C288.59 9.09333 288.683 8.86667 288.87 8.6C289.083 8.30667 289.257 8.16 289.39 8.16C289.55 8.16 290.377 7.81333 291.87 7.12C293.203 6.50667 294.75 6.04 296.51 5.72ZM303.75 17.2C304.657 17.12 305.27 17.1067 305.59 17.16C305.91 17.2133 306.07 17.3467 306.07 17.56C306.07 17.7467 306.003 17.88 305.87 17.96C305.737 18.04 305.443 18.1067 304.99 18.16C304.43 18.24 303.577 18.4 302.43 18.64C302.083 18.72 301.67 18.8133 301.19 18.92C300.87 18.9733 300.457 19.0667 299.95 19.2C297.79 19.84 296.603 20.16 296.39 20.16C296.257 20.16 296.123 20.1867 295.99 20.24C295.857 20.32 295.643 20.3867 295.35 20.44C294.79 20.6267 294.363 20.7733 294.07 20.88C294.043 20.88 293.99 20.8933 293.91 20.92C293.83 20.9467 293.75 20.9733 293.67 21C293.617 21.0267 293.55 21.0533 293.47 21.08C293.07 21.2133 292.47 21.48 291.67 21.88C290.577 22.3867 289.817 22.68 289.39 22.76C288.963 22.8133 288.71 22.6667 288.63 22.32C288.603 22.1333 288.643 21.9333 288.75 21.72C288.857 21.48 288.99 21.3467 289.15 21.32C289.283 21.2667 289.537 21.1467 289.91 20.96C290.337 20.7467 290.71 20.6 291.03 20.52C291.403 20.4133 291.803 20.2533 292.23 20.04C292.603 19.8533 293.083 19.68 293.67 19.52C294.23 19.36 294.817 19.1867 295.43 19C296.603 18.6267 297.657 18.3467 298.59 18.16C298.91 18.08 299.217 18.0133 299.51 17.96C301.297 17.5333 302.71 17.28 303.75 17.2ZM300.03 19.84C300.35 19.7067 300.59 19.68 300.75 19.76C300.937 19.8133 301.017 19.9733 300.99 20.24C300.963 20.6133 300.95 21.4667 300.95 22.8C300.923 24.1867 300.857 25.2933 300.75 26.12C300.617 26.92 300.59 28 300.67 29.36C300.777 31.2533 300.657 32.2 300.31 32.2C300.23 32.2 300.15 32.1733 300.07 32.12C299.883 32.04 299.67 31.52 299.43 30.56C299.217 29.6 299.123 28.88 299.15 28.4C299.23 27.6 299.31 25.8 299.39 23C299.417 21.7733 299.47 20.9733 299.55 20.6C299.63 20.2267 299.79 19.9733 300.03 19.84ZM309.641 6.2C310.041 5.96 310.321 5.94667 310.481 6.16C310.641 6.34667 310.654 6.72 310.521 7.28C310.414 7.84 310.361 8.70667 310.361 9.88V11.64L310.961 11.56C311.388 11.5333 312.121 11.3867 313.161 11.12C313.454 11.0667 313.814 10.9867 314.241 10.88C314.321 10.8533 314.588 10.7867 315.041 10.68C316.214 10.3867 317.254 10.2 318.161 10.12C319.068 10.0133 319.588 10.04 319.721 10.2C320.014 10.52 319.561 10.8267 318.361 11.12C318.308 11.12 318.268 11.1333 318.241 11.16C316.854 11.4533 315.201 11.9333 313.281 12.6C312.294 12.9467 311.601 13.1467 311.201 13.2C310.561 13.28 310.188 13.3333 310.081 13.36C309.494 13.44 309.121 13.28 308.961 12.88C308.828 12.4533 308.788 11.44 308.841 9.84C308.894 8.50666 308.961 7.61333 309.041 7.16C309.148 6.68 309.348 6.36 309.641 6.2ZM318.961 16.96C320.614 16.88 321.454 16.9733 321.481 17.24C321.508 17.4533 321.374 17.6133 321.081 17.72C320.814 17.8 319.934 17.9867 318.441 18.28C316.521 18.68 315.521 18.88 315.441 18.88C314.081 19.1733 312.908 19.4933 311.921 19.84C311.574 19.9733 311.094 20.1467 310.481 20.36C309.974 20.52 309.374 20.72 308.681 20.96C307.561 21.3867 306.894 21.6 306.681 21.6C306.414 21.6 306.241 21.44 306.161 21.12C306.081 20.8 306.148 20.5333 306.361 20.32C306.468 20.2133 307.281 19.92 308.801 19.44C311.041 18.72 312.561 18.2667 313.361 18.08C314.081 17.8933 314.508 17.7867 314.641 17.76C315.014 17.6267 315.694 17.48 316.681 17.32C317.668 17.1333 318.428 17.0133 318.961 16.96ZM310.561 24.8C310.854 24.5333 311.148 24.44 311.441 24.52C311.734 24.6 311.841 24.8133 311.761 25.16C311.708 25.4267 311.654 26.24 311.601 27.6C311.548 28.9333 311.534 29.6533 311.561 29.76C311.614 29.8933 311.814 29.9467 312.161 29.92C312.508 29.8933 312.854 29.7867 313.201 29.6C313.308 29.5467 313.414 29.52 313.521 29.52C313.654 29.52 313.774 29.48 313.881 29.4C314.281 29.1867 315.441 28.8133 317.361 28.28C319.308 27.7467 320.601 27.4533 321.241 27.4C321.641 27.3467 321.974 27.3067 322.241 27.28C322.428 27.2533 322.588 27.28 322.721 27.36C322.881 27.44 322.961 27.56 322.961 27.72C322.961 27.88 322.854 28.0267 322.641 28.16C322.428 28.2933 322.201 28.36 321.961 28.36C321.614 28.36 320.854 28.5333 319.681 28.88C319.681 28.88 319.414 28.96 318.881 29.12C317.334 29.5467 315.948 30.04 314.721 30.6C312.641 31.5867 311.294 31.8667 310.681 31.44C310.094 31.04 309.881 29.6933 310.041 27.4C310.121 26.3067 310.188 25.6533 310.241 25.44C310.294 25.2 310.401 24.9867 310.561 24.8Z" fill="#444444"/>
</svg>
